<svg width="205" height="113" viewBox="0 0 205 113" fill="none" xmlns="http://www.w3.org/2000/svg">
<g clip-path="url(#clip0_601_4066)">
<path d="M0.819115 28.7463C3.72196 27.9752 3.90172 27.8284 5.21333 24.6439C8.40579 16.8598 11.4784 9.12577 14.6742 0.891017C15.1536 -0.340691 16.5151 -0.237214 16.9445 0.827596C20.1903 8.87542 23.2928 16.4392 26.7383 24.5905C28.0899 27.795 28.3196 27.9819 30.8496 28.7763C31.775 29.0567 31.7983 30.7491 30.1938 30.6756C26.7183 30.5288 23.719 30.5388 20.5664 30.6656C19.4512 30.7057 19.1616 29.0901 20.3467 28.7463C23.1663 27.9318 23.2928 27.0039 22.3974 24.7274C21.9912 23.716 21.5352 22.5143 21.1157 21.4929C20.7728 20.6684 20.2402 20.2078 19.3247 20.1978C16.1822 20.1677 14.0683 20.1677 10.8958 20.1978C9.65747 20.2078 9.07491 20.7319 8.76199 21.523C8.35585 22.5444 7.93974 23.5257 7.55358 24.5505C6.49164 27.3377 7.26063 28.0153 10.3732 28.6629C11.778 28.9566 11.5184 30.709 10.0703 30.6656C7.04092 30.5822 4.06484 30.5388 1.0355 30.6656C-0.0797016 30.7057 -0.505807 29.0901 0.815786 28.7463M11.4784 18.4454C14.0916 18.4754 16.059 18.4754 18.3993 18.4454C19.3347 18.4353 19.6476 17.8812 19.2315 16.8999C18.7821 15.8351 16.848 11.222 15.6196 8.3113C15.2767 7.49684 14.348 7.50686 14.0284 8.3113C13.2461 10.274 12.6236 11.8295 10.553 16.9733C10.1269 18.0381 10.6795 18.4353 11.4784 18.4454Z" fill="#E2C09A"/>
<path d="M34.4579 28.7465C37.1444 28.0155 37.2775 27.6283 37.3208 23.3624C37.3608 18.3621 37.3608 14.0862 37.3208 6.21525C37.2809 3.78522 37.0179 3.35462 34.4579 2.54016C33.2728 2.15296 33.356 0.577437 34.7176 0.620831C37.9966 0.70428 41.2423 0.747673 44.5213 0.620831C52.1912 0.317076 56.2425 4.29593 56.2425 8.61525C56.2425 11.7763 54.3684 14.7204 50.7897 16.3059C50.0207 16.6497 49.9775 17.2873 50.4868 18.0183C53.8191 22.9351 55.0574 24.4272 56.0761 25.8758C57.5242 27.932 58.1267 28.2358 60.0409 28.6196C61.489 28.9134 61.0595 30.5824 59.9144 30.5824H56.5422C54.9176 30.5824 54.1586 30.322 53.1267 28.8299C50.7831 25.3217 48.526 21.7735 46.1858 18.4889C45.6232 17.7179 44.6878 17.4141 43.4993 17.4141H43.0732C41.9181 17.4141 41.4487 18.0183 41.4088 19.0831C41.3688 20.2814 41.3255 21.6934 41.3688 23.2789C41.4953 27.8085 41.5752 27.932 44.7843 28.7465C46.0127 29.0502 45.6798 30.7092 44.5646 30.6658C40.6398 30.539 38.1331 30.539 34.7176 30.6658C33.6456 30.7059 33.1363 29.0903 34.4579 28.7465ZM42.9001 15.7118C49.6845 16.139 51.602 12.07 51.602 9.00245C51.602 4.80663 48.1865 2.15629 43.3695 2.3332C41.715 2.41665 41.3721 2.97076 41.3721 4.46282C41.3322 7.58382 41.3322 11.0486 41.3721 14.2097C41.3721 15.1476 41.9647 15.6617 42.9035 15.7118" fill="#E2C09A"/>
<path d="M64.0188 28.7463C66.9217 27.9752 67.1014 27.8284 68.413 24.6439C71.6088 16.8598 74.6781 9.12577 77.8739 0.891017C78.3533 -0.340691 79.7148 -0.237214 80.1442 0.827596C83.39 8.87542 86.4926 16.4392 89.938 24.5905C91.2896 27.795 91.5193 27.9819 94.0493 28.7763C94.9747 29.0567 94.9947 30.7491 93.3935 30.6756C89.918 30.5288 86.9187 30.5388 83.7661 30.6656C82.6509 30.7057 82.3613 29.0901 83.5464 28.7463C86.3661 27.9318 86.4926 27.0039 85.5971 24.7274C85.1909 23.716 84.7349 22.5143 84.3154 21.4929C83.9725 20.6684 83.4399 20.2078 82.5244 20.1978C79.3819 20.1677 77.268 20.1677 74.0955 20.1978C72.8572 20.2078 72.2746 20.7319 71.9617 21.523C71.5556 22.5444 71.1394 23.5257 70.7533 24.5505C69.6913 27.3377 70.4603 28.0153 73.5729 28.6629C74.9777 28.9566 74.7181 30.709 73.27 30.6656C70.2406 30.5822 67.2645 30.5388 64.2352 30.6656C63.12 30.7057 62.6939 29.0901 64.0155 28.7463M74.6748 18.4454C77.288 18.4754 79.2554 18.4754 81.5957 18.4454C82.5311 18.4353 82.844 17.8812 82.4279 16.8999C81.9818 15.8351 80.0444 11.222 78.816 8.3113C78.4731 7.49684 77.5443 7.50686 77.2248 8.3113C76.4425 10.274 75.8199 11.8295 73.7493 16.9733C73.3232 18.0381 73.8758 18.4353 74.6748 18.4454Z" fill="#E2C09A"/>
<path d="M97.8776 30.666C96.8057 30.666 96.3796 29.1305 97.6579 28.7467C100.344 27.9756 100.521 27.6719 100.561 23.3192C100.601 18.142 100.601 13.3954 100.561 7.92448C100.521 3.60516 100.521 3.52171 97.6579 2.54035C96.4195 2.11309 96.596 0.577625 97.9176 0.621019C101.413 0.747861 103.84 0.747861 107.295 0.621019C108.45 0.580963 108.783 2.11309 107.378 2.58374C104.652 3.48165 104.609 3.60516 104.609 7.92782V23.3225C104.609 28.3228 105.118 28.8335 110.281 28.8335C115.901 28.8335 116.889 28.2694 118.723 23.1022C119.13 21.9439 120.804 22.1208 120.638 23.446C120.378 25.3253 120.168 27.2045 120.002 29.0905C119.865 30.3756 119.482 30.7495 118.254 30.7495C111.563 30.666 104.569 30.5826 97.8743 30.666" fill="#E2C09A"/>
<path d="M1.71436 56.7683C1.71436 47.836 7.85627 41.0732 17.7832 41.0732C20.6461 41.0732 23.5922 41.6774 26.1821 42.4919C27.2973 42.8257 27.8466 43.3898 27.9298 44.4546C28.0663 46.167 28.316 47.9094 28.5756 49.5383C28.782 50.8635 26.9411 51.3141 26.525 50.009C25.2134 45.8666 22.0609 43.0493 17.1673 43.0493C11.2651 43.0493 6.70778 47.1083 6.57129 56.0841C6.48807 64.202 10.2365 70.3405 17.4902 70.4039C22.1541 70.444 25.4531 68.2643 26.7647 63.1806C27.0976 61.8754 29.0017 62.326 28.8253 63.5244C28.5756 65.3602 28.3992 66.9892 28.2328 68.7316C28.1063 69.9333 27.6402 70.4006 26.4418 70.7878C23.7986 71.6423 20.8958 72.2798 17.7832 72.2798C7.76971 72.2798 1.71436 65.8309 1.71436 56.7717" fill="#E2C09A"/>
<path d="M35.8526 60.4843C35.8925 56.205 35.8526 53.261 35.8126 47.2726C35.7727 44.7158 35.4265 44.412 32.9597 43.6009C31.6781 43.1736 31.9411 41.6382 33.2627 41.6816C36.3752 41.765 39.4878 41.8084 42.597 41.6816C43.7822 41.6415 43.9619 43.217 42.7635 43.6009C40.2035 44.4154 39.9539 44.8426 39.9006 47.2726C39.8607 52.837 39.8607 55.4039 39.9006 60.7447C39.9539 66.6829 43.5325 70.1076 48.5592 70.1076C53.0766 70.1076 56.6985 67.3204 56.7417 61.0384C56.795 56.4253 56.7418 53.3043 56.6985 47.2726C56.6585 44.7992 56.4488 44.4554 53.8456 43.6009C52.6904 43.2571 52.7304 41.6382 54.0952 41.6816C56.7384 41.765 58.9988 41.765 61.5987 41.6816C62.9203 41.6415 63.0568 43.217 61.8583 43.6009C59.3816 44.372 59.0487 44.7592 58.9954 47.2726C58.9122 53.0039 58.9122 55.6943 58.9555 59.7132C59.0487 67.4573 55.2903 72.2773 47.444 72.2773C39.5977 72.2773 35.766 67.8312 35.8493 60.4843" fill="#E2C09A"/>
<path d="M66.0895 71.7226C65.0176 71.7226 64.5915 70.1872 65.8698 69.8033C68.5563 69.0322 68.7327 68.7285 68.7727 64.3758C68.8126 59.1986 68.8126 54.452 68.7727 48.9811C68.7327 44.6618 68.7327 44.5783 65.8698 43.597C64.6314 43.1697 64.8079 41.6343 66.1295 41.6777C69.6249 41.8045 72.0517 41.8045 75.5071 41.6777C76.6623 41.6376 76.9952 43.1697 75.5904 43.6404C72.8639 44.5383 72.8207 44.6618 72.8207 48.9845V64.3791C72.8207 69.3794 73.33 69.8901 78.4932 69.8901C84.1125 69.8901 85.1012 69.326 86.9354 64.1588C87.3415 63.0006 89.016 63.1775 88.8496 64.5026C88.5899 66.3819 88.3802 68.2612 88.2137 70.1471C88.0772 71.4322 87.6944 71.8061 86.466 71.8061C79.7748 71.7226 72.7807 71.6392 66.0862 71.7226" fill="#E2C09A"/>
<path d="M95.8371 69.8034C99.0329 68.9489 99.1261 68.782 99.166 64.4193C99.206 59.2855 99.206 54.2452 99.166 49.1081C99.1261 44.1078 98.8231 43.4836 94.8683 43.5437C92.1086 43.5837 90.6539 44.5785 89.0593 49.4919C88.6332 50.7971 86.8023 50.5267 87.0187 48.9478C87.2683 47.1854 87.528 45.1292 87.6545 43.1665C87.7377 42.1451 88.2071 41.631 89.6519 41.6744C100.061 41.8814 102.319 41.8814 112.632 41.6744C114.036 41.6344 114.589 42.0616 114.682 43.2933C114.809 45.1826 115.068 47.3523 115.285 49.0346C115.481 50.5267 113.724 50.7036 113.317 49.5787C111.496 44.505 110.175 43.5871 107.605 43.557C103.64 43.5036 103.254 43.9008 103.214 49.1081C103.174 54.2418 103.174 59.2822 103.214 64.4193C103.254 68.6885 103.38 68.9489 106.576 69.8034C107.898 70.1472 107.472 71.7661 106.41 71.7227C102.871 71.5959 99.5921 71.5959 96.0967 71.7227C94.8151 71.7628 94.5987 70.1472 95.8371 69.8034Z" fill="#E2C09A"/>
<path d="M121.64 60.4843C121.68 56.205 121.64 53.261 121.6 47.2726C121.56 44.7158 121.214 44.412 118.747 43.6009C117.465 43.1736 117.728 41.6382 119.05 41.6816C122.162 41.765 125.275 41.8084 128.384 41.6816C129.569 41.6415 129.749 43.217 128.551 43.6009C125.991 44.4154 125.741 44.8426 125.688 47.2726C125.648 52.837 125.648 55.4039 125.688 60.7447C125.741 66.6829 129.32 70.1076 134.346 70.1076C138.864 70.1076 142.486 67.3204 142.529 61.0384C142.582 56.4253 142.529 53.3043 142.486 47.2726C142.446 44.7992 142.236 44.4554 139.633 43.6009C138.478 43.2571 138.517 41.6382 139.882 41.6816C142.526 41.765 144.786 41.765 147.386 41.6816C148.707 41.6415 148.844 43.217 147.645 43.6009C145.169 44.372 144.836 44.7592 144.783 47.2726C144.699 53.0039 144.699 55.6943 144.743 59.7132C144.836 67.4573 141.077 72.2773 133.231 72.2773C125.385 72.2773 121.553 67.8312 121.636 60.4843" fill="#E2C09A"/>
<path d="M151.657 69.8031C154.344 69.0721 154.477 68.6849 154.52 64.419C154.56 59.4187 154.56 55.1428 154.52 47.2719C154.48 44.8385 154.217 44.4113 151.657 43.5968C150.472 43.2096 150.555 41.6341 151.917 41.6775C155.196 41.7609 158.442 41.8043 161.721 41.6775C169.39 41.3737 173.442 45.3526 173.442 49.6719C173.442 52.8329 171.568 55.777 167.989 57.3626C167.22 57.7064 167.177 58.3439 167.686 59.0749C171.018 63.9917 172.257 65.4838 173.275 66.9325C174.723 68.9887 175.326 69.2924 177.24 69.6763C178.688 69.97 178.259 71.639 177.114 71.639H173.741C172.117 71.639 171.358 71.3787 170.326 69.8866C167.986 66.3784 165.725 62.8301 163.385 59.5456C162.822 58.7745 161.887 58.4708 160.699 58.4708H160.272C159.117 58.4708 158.648 59.0749 158.608 60.1397C158.568 61.3381 158.525 62.75 158.568 64.3356C158.695 68.8652 158.774 68.9887 161.984 69.8031C163.212 70.1069 162.879 71.7659 161.764 71.7225C157.839 71.5956 155.332 71.5956 151.917 71.7225C150.845 71.7625 150.336 70.1469 151.657 69.8031ZM160.096 56.7684C166.88 57.1957 168.798 53.1267 168.798 50.0591C168.798 45.8633 165.382 43.2129 160.565 43.3898C158.911 43.4733 158.568 44.0274 158.568 45.5195C158.528 48.6405 158.528 52.1053 158.568 55.2663C158.568 56.2043 159.161 56.7183 160.099 56.7684" fill="#E2C09A"/>
<path d="M198.056 71.7228C196.108 71.6928 194.224 71.6694 192.456 71.6494C187.283 71.6193 183.089 71.6494 181.204 71.7228C180.133 71.7629 179.623 70.1873 180.945 69.8035C183.631 68.989 183.724 68.9056 183.808 64.3359C183.891 59.0753 183.891 53.9815 183.808 47.2722C183.768 44.7554 183.465 44.4116 180.945 43.5971C179.706 43.1699 179.883 41.6344 181.248 41.6778C185.442 41.7513 189.147 41.7813 192.789 41.7613C194.86 41.7513 196.92 41.7312 199.044 41.6878C199.93 41.6778 200.835 41.6578 201.751 41.6344C203.116 41.5944 203.625 42.0116 203.718 43.4302C203.845 45.0892 204.051 47.0219 204.354 49.1081C204.52 50.5701 202.773 50.6936 202.347 49.4953C200.369 43.8608 199.277 43.517 196.048 43.4636C194.051 43.4336 192.123 43.4336 189.43 43.4736C188.285 43.4736 187.859 43.9843 187.859 45.0925C187.819 49.1615 187.819 51.5114 187.859 54.0783C187.859 55.0597 188.368 55.6138 189.567 55.6138H191.741C194.976 55.6138 195.749 55.1865 196.851 52.2859C197.32 51.0441 198.984 51.2945 198.858 52.7031C198.555 55.961 198.472 57.0224 198.858 60.2703C199.024 61.6488 197.317 61.8992 196.851 60.6575C195.745 57.7568 194.976 57.3696 191.741 57.3696H189.567C188.368 57.3696 187.859 58.0071 187.859 59.1654C187.819 60.6174 187.819 62.0661 187.859 64.3426C187.942 69.1025 188.628 69.8936 194.397 69.967C194.74 69.9771 195.106 69.9771 195.489 69.9771C200.07 69.9771 201.215 69.433 203.076 64.1623C203.502 62.9607 205.166 63.181 204.99 64.5495C204.74 66.4288 204.52 68.2647 204.354 70.154C204.271 71.3022 203.845 71.8563 202.606 71.8129C201.065 71.7829 199.547 71.7495 198.059 71.7295" fill="#E2C09A"/>
<path d="M3.6421 111.381C2.2273 110.567 2.06085 110.306 2.14407 108.647C2.18402 107.573 2.2273 105.997 2.18402 104.161C2.14407 102.743 4.06821 102.556 4.2746 103.857C5.08686 108.868 7.57359 111.121 11.332 111.121C14.8906 111.121 17.1077 109.158 17.1077 106.424C17.1077 103.47 14.7242 101.331 10.3732 99.1509C5.04359 96.5006 2.48363 93.8069 2.48363 89.7479C2.48363 84.9145 6.1488 81.7969 12.5071 81.7969C14.9738 81.7969 17.1077 82.2675 18.386 82.7882C19.7076 83.3424 20.0505 83.8931 20.0006 85.0547C19.9606 86.4633 19.9173 88.2992 19.9606 90.055C20.0006 91.4636 18.1497 91.6305 17.88 90.3587C16.8713 85.5788 15.2568 83.7729 11.9678 83.7729C8.6788 83.7729 6.61818 85.3485 6.61818 88.3026C6.61818 91.507 8.83526 93.6466 13.103 95.7863C19.4113 98.9473 21.159 101.474 21.159 104.845C21.159 109.719 17.4539 113.007 11.0523 113.007C7.8166 113.007 5.00364 112.162 3.6421 111.388" fill="#E2C09A"/>
<path d="M28.1729 101.207C28.2129 96.9281 28.1729 93.984 28.133 87.9957C28.093 85.4388 27.7468 85.135 25.2801 84.3239C23.9984 83.8967 24.2614 82.3612 25.583 82.4046C28.6956 82.488 31.8081 82.5314 34.9174 82.4046C36.1025 82.3645 36.2822 83.94 35.0838 84.3239C32.5238 85.1384 32.2742 85.5656 32.2209 87.9957C32.181 93.56 32.181 96.1269 32.2209 101.468C32.2742 107.406 35.8528 110.827 40.8795 110.827C45.3969 110.827 49.0188 108.04 49.0621 101.758C49.1153 97.145 49.0621 94.024 49.0188 87.9923C48.9788 85.5189 48.7691 85.1751 46.1659 84.3206C45.0107 83.9768 45.0507 82.3579 46.4155 82.4012C49.0587 82.4847 51.3191 82.4847 53.919 82.4012C55.2406 82.3612 55.3771 83.9367 54.1787 84.3206C51.7019 85.0916 51.369 85.4788 51.3158 87.9923C51.2325 93.7236 51.2325 96.414 51.2758 100.433C51.369 108.177 47.6106 112.997 39.7643 112.997C31.918 112.997 28.0864 108.551 28.1696 101.204" fill="#E2C09A"/>
<path d="M57.4408 110.487C60.1273 109.799 60.4269 109.505 60.813 105.143C61.1859 101 61.5521 96.858 61.875 92.9959C62.0314 91.2435 62.1679 89.5311 62.3011 87.9122C62.4775 85.4789 62.0514 85.0115 59.6146 84.2805C58.5527 83.9367 58.5127 82.2677 60.1239 82.3612C61.6652 82.4446 62.9868 82.488 64.3484 82.4446C65.5867 82.4046 66.0961 82.8318 66.429 83.7298C69.0722 91.0766 72.1015 98.3934 74.788 105.009C75.1741 105.957 76.0696 105.957 76.4524 105.009C78.0869 101.084 79.7947 96.9614 81.4991 92.7456C82.7375 89.7081 83.9759 86.6104 85.1943 83.5095C85.4872 82.7384 85.9533 82.4013 86.942 82.4446C88.43 82.488 89.7116 82.4446 91.4593 82.3612C92.741 82.3211 92.9074 83.9801 91.6657 84.3239C89.2422 85.0115 88.896 85.7325 89.0625 87.7053C89.4054 92.829 89.9147 98.9442 90.4773 105.103C90.8535 109.455 91.1131 109.759 93.7963 110.447C95.1178 110.781 94.6917 112.41 93.6298 112.366C90.5172 112.239 87.4879 112.283 84.3787 112.366C83.0138 112.406 82.7974 110.654 84.119 110.353C86.8055 109.759 86.8987 109.455 86.5558 105.103C86.2529 101.334 85.91 97.579 85.5271 93.727C85.4007 92.4852 84.1223 92.4418 83.6962 93.4232C81.9385 97.5256 80.1975 101.564 78.4498 105.677C77.5743 107.733 76.7021 109.819 75.8166 111.939C75.2973 113.181 73.8092 113.181 73.3399 111.939C70.9131 105.613 68.4796 99.4582 65.7532 92.789C65.367 91.8911 64.2652 91.9745 64.1287 93.0093C63.6593 97.4955 63.3164 101.294 63.0235 105.146C62.6806 109.509 62.7205 109.803 65.407 110.407C66.7286 110.7 66.5222 112.493 65.1573 112.41C62.6373 112.243 60.1206 112.326 57.6106 112.41C56.5387 112.45 56.1126 110.834 57.4341 110.49" fill="#E2C09A"/>
<path d="M97.555 110.487C100.241 109.799 100.541 109.505 100.927 105.143C101.3 101 101.666 96.858 101.989 92.9959C102.146 91.2435 102.282 89.5311 102.415 87.9122C102.592 85.4789 102.166 85.0115 99.7288 84.2805C98.6668 83.9367 98.6269 82.2677 100.238 82.3612C101.779 82.4446 103.101 82.488 104.463 82.4446C105.701 82.4046 106.21 82.8318 106.543 83.7298C109.186 91.0766 112.216 98.3934 114.902 105.009C115.288 105.957 116.184 105.957 116.567 105.009C118.201 101.084 119.909 96.9614 121.613 92.7456C122.852 89.7081 124.09 86.6104 125.308 83.5095C125.601 82.7384 126.067 82.4013 127.056 82.4446C128.544 82.488 129.826 82.4446 131.574 82.3612C132.855 82.3211 133.022 83.9801 131.78 84.3239C129.353 85.0115 129.01 85.7325 129.177 87.7053C129.52 92.829 130.029 98.9442 130.591 105.103C130.968 109.455 131.227 109.759 133.91 110.447C135.232 110.781 134.806 112.41 133.744 112.366C130.631 112.239 127.602 112.283 124.493 112.366C123.128 112.406 122.912 110.654 124.233 110.353C126.92 109.759 127.013 109.455 126.67 105.103C126.367 101.334 126.024 97.579 125.638 93.727C125.511 92.4852 124.233 92.4418 123.807 93.4232C122.049 97.5256 120.308 101.564 118.561 105.677C117.685 107.733 116.813 109.819 115.927 111.939C115.408 113.181 113.92 113.181 113.451 111.939C111.027 105.613 108.59 99.4582 105.864 92.789C105.478 91.8911 104.376 91.9745 104.24 93.0093C103.77 97.4955 103.427 101.294 103.134 105.146C102.791 109.509 102.831 109.803 105.518 110.407C106.839 110.7 106.63 112.493 105.268 112.41C102.748 112.243 100.231 112.326 97.7214 112.41C96.6495 112.45 96.2234 110.834 97.545 110.49" fill="#E2C09A"/>
<path d="M138.135 110.527C140.821 109.712 140.914 109.629 140.998 105.059C141.081 99.7987 141.081 94.7084 140.998 87.9957C140.958 85.4789 140.655 85.1351 138.135 84.3206C136.896 83.8934 137.073 82.3579 138.438 82.4013C141.507 82.4847 144.58 82.4847 147.649 82.4013C149.014 82.3612 149.18 83.8934 147.942 84.3206C145.435 85.1351 145.132 85.4789 145.089 87.9957C145.006 94.705 145.006 99.7987 145.089 105.059C145.172 109.629 145.255 109.712 147.942 110.527C149.263 110.914 148.754 112.49 147.692 112.446C144.58 112.363 141.51 112.363 138.398 112.446C137.326 112.486 136.816 110.911 138.138 110.527" fill="#E2C09A"/>
<path d="M160.609 110.527C163.804 109.673 163.898 109.506 163.937 105.143C163.977 100.009 163.977 94.9688 163.937 89.8317C163.898 84.8314 163.595 84.2072 159.64 84.2673C156.88 84.3074 155.425 85.3021 153.831 90.2156C153.405 91.5207 151.574 91.2503 151.79 89.6715C152.04 87.909 152.299 85.8528 152.426 83.8901C152.509 82.8687 152.979 82.3547 154.423 82.3981C164.833 82.605 167.09 82.605 177.403 82.3981C178.808 82.358 179.361 82.7853 179.454 84.017C179.58 85.9063 179.84 88.0759 180.056 89.7583C180.253 91.2503 178.495 91.4272 178.089 90.3023C176.268 85.2286 174.946 84.3107 172.376 84.2807C168.412 84.2273 168.025 84.6245 167.985 89.8317C167.946 94.9655 167.946 100.006 167.985 105.143C168.025 109.412 168.152 109.673 171.348 110.527C172.669 110.871 172.243 112.49 171.181 112.446C167.643 112.32 164.364 112.32 160.868 112.446C159.587 112.486 159.37 110.871 160.609 110.527Z" fill="#E2C09A"/>
</g>
<defs>
<clipPath id="clip0_601_4066">
<rect width="205" height="113" fill="white"/>
</clipPath>
</defs>
</svg>
