<svg width="205" height="113" viewBox="0 0 205 113" fill="none" xmlns="http://www.w3.org/2000/svg">
<g clip-path="url(#clip0_594_3653)">
<path d="M0.819115 28.7465C3.72196 27.9754 3.90172 27.8286 5.21333 24.6442C8.40579 16.86 11.4784 9.12598 14.6742 0.891231C15.1536 -0.340477 16.5151 -0.237 16.9445 0.827809C20.1903 8.87563 23.2928 16.4395 26.7383 24.5908C28.0899 27.7952 28.3196 27.9821 30.8496 28.7766C31.775 29.0569 31.7983 30.7493 30.1938 30.6759C26.7183 30.529 23.719 30.539 20.5664 30.6658C19.4512 30.7059 19.1616 29.0903 20.3467 28.7465C23.1663 27.9321 23.2928 27.0041 22.3974 24.7276C21.9912 23.7162 21.5352 22.5145 21.1157 21.4931C20.7728 20.6686 20.2402 20.208 19.3247 20.198C16.1822 20.168 14.0683 20.168 10.8958 20.198C9.65747 20.208 9.07491 20.7321 8.76199 21.5232C8.35585 22.5446 7.93974 23.5259 7.55358 24.5507C6.49164 27.3379 7.26063 28.0155 10.3732 28.6631C11.778 28.9568 11.5184 30.7092 10.0703 30.6658C7.04092 30.5824 4.06484 30.539 1.0355 30.6658C-0.0797016 30.7059 -0.505807 29.0903 0.815786 28.7465M11.4784 18.4456C14.0916 18.4756 16.059 18.4756 18.3993 18.4456C19.3347 18.4356 19.6476 17.8815 19.2315 16.9001C18.7821 15.8353 16.848 11.2222 15.6196 8.31152C15.2767 7.49706 14.348 7.50707 14.0284 8.31152C13.2461 10.2742 12.6236 11.8297 10.553 16.9735C10.1269 18.0383 10.6795 18.4356 11.4784 18.4456Z" fill="black"/>
<path d="M34.4579 28.7465C37.1444 28.0155 37.2775 27.6283 37.3208 23.3624C37.3608 18.3621 37.3608 14.0862 37.3208 6.21528C37.2809 3.78525 37.0179 3.35465 34.4579 2.54019C33.2728 2.15299 33.356 0.577468 34.7176 0.620861C37.9966 0.70431 41.2423 0.747704 44.5213 0.620861C52.1912 0.317107 56.2425 4.29596 56.2425 8.61528C56.2425 11.7763 54.3684 14.7204 50.7897 16.3059C50.0207 16.6498 49.9775 17.2873 50.4868 18.0183C53.8191 22.9351 55.0574 24.4272 56.0761 25.8759C57.5242 27.9321 58.1267 28.2358 60.0409 28.6197C61.489 28.9134 61.0595 30.5824 59.9144 30.5824H56.5422C54.9176 30.5824 54.1586 30.322 53.1267 28.83C50.7831 25.3218 48.526 21.7735 46.1858 18.489C45.6232 17.7179 44.6878 17.4141 43.4993 17.4141H43.0732C41.9181 17.4141 41.4487 18.0183 41.4088 19.0831C41.3688 20.2815 41.3255 21.6934 41.3688 23.2789C41.4953 27.8086 41.5752 27.9321 44.7843 28.7465C46.0127 29.0503 45.6798 30.7092 44.5646 30.6659C40.6398 30.539 38.1331 30.539 34.7176 30.6659C33.6456 30.7059 33.1363 29.0903 34.4579 28.7465ZM42.9001 15.7118C49.6845 16.139 51.602 12.0701 51.602 9.00248C51.602 4.80666 48.1865 2.15632 43.3695 2.33324C41.715 2.41668 41.3721 2.97079 41.3721 4.46285C41.3322 7.58385 41.3322 11.0487 41.3721 14.2097C41.3721 15.1477 41.9647 15.6617 42.9035 15.7118" fill="black"/>
<path d="M64.0188 28.7465C66.9217 27.9754 67.1014 27.8286 68.413 24.6442C71.6088 16.86 74.6781 9.12598 77.8739 0.891231C78.3533 -0.340477 79.7148 -0.237 80.1442 0.827809C83.39 8.87563 86.4926 16.4395 89.938 24.5908C91.2896 27.7952 91.5193 27.9821 94.0493 28.7766C94.9747 29.0569 94.9947 30.7493 93.3935 30.6759C89.918 30.529 86.9187 30.539 83.7661 30.6658C82.6509 30.7059 82.3613 29.0903 83.5464 28.7465C86.3661 27.9321 86.4926 27.0041 85.5971 24.7276C85.1909 23.7162 84.7349 22.5145 84.3154 21.4931C83.9725 20.6686 83.4399 20.208 82.5244 20.198C79.3819 20.168 77.268 20.168 74.0955 20.198C72.8572 20.208 72.2746 20.7321 71.9617 21.5232C71.5556 22.5446 71.1394 23.5259 70.7533 24.5507C69.6913 27.3379 70.4603 28.0155 73.5729 28.6631C74.9777 28.9568 74.7181 30.7092 73.27 30.6658C70.2406 30.5824 67.2645 30.539 64.2352 30.6658C63.12 30.7059 62.6939 29.0903 64.0155 28.7465M74.6748 18.4456C77.288 18.4756 79.2554 18.4756 81.5957 18.4456C82.5311 18.4356 82.844 17.8815 82.4279 16.9001C81.9818 15.8353 80.0444 11.2222 78.816 8.31152C78.4731 7.49706 77.5443 7.50707 77.2248 8.31152C76.4425 10.2742 75.8199 11.8297 73.7493 16.9735C73.3232 18.0383 73.8758 18.4356 74.6748 18.4456Z" fill="black"/>
<path d="M97.8776 30.6659C96.8057 30.6659 96.3796 29.1304 97.6579 28.7465C100.344 27.9755 100.521 27.6717 100.561 23.319C100.601 18.1418 100.601 13.3952 100.561 7.92432C100.521 3.605 100.521 3.52155 97.6579 2.54019C96.4195 2.11293 96.596 0.577473 97.9176 0.620866C101.413 0.747709 103.84 0.747709 107.295 0.620866C108.45 0.580811 108.783 2.11293 107.378 2.58359C104.652 3.4815 104.609 3.605 104.609 7.92766V23.3223C104.609 28.3226 105.118 28.8333 110.281 28.8333C115.901 28.8333 116.889 28.2692 118.723 23.102C119.13 21.9438 120.804 22.1207 120.638 23.4458C120.378 25.3251 120.168 27.2044 120.002 29.0903C119.865 30.3755 119.482 30.7493 118.254 30.7493C111.563 30.6659 104.569 30.5824 97.8743 30.6659" fill="black"/>
<path d="M1.71436 56.7687C1.71436 47.8363 7.85627 41.0736 17.7832 41.0736C20.6461 41.0736 23.5922 41.6778 26.1821 42.4922C27.2973 42.826 27.8466 43.3901 27.9298 44.455C28.0663 46.1673 28.316 47.9098 28.5756 49.5387C28.782 50.8638 26.9411 51.3145 26.525 50.0093C25.2134 45.8669 22.0609 43.0497 17.1673 43.0497C11.2651 43.0497 6.70778 47.1086 6.57129 56.0844C6.48807 64.2023 10.2365 70.3409 17.4902 70.4043C22.1541 70.4443 25.4531 68.2646 26.7647 63.1809C27.0976 61.8758 29.0017 62.3264 28.8253 63.5247C28.5756 65.3606 28.3992 66.9895 28.2328 68.732C28.1063 69.9336 27.6402 70.4009 26.4418 70.7881C23.7986 71.6427 20.8958 72.2802 17.7832 72.2802C7.76971 72.2802 1.71436 65.8313 1.71436 56.772" fill="black"/>
<path d="M35.8526 60.4839C35.8925 56.2046 35.8526 53.2605 35.8126 47.2722C35.7727 44.7153 35.4265 44.4116 32.9597 43.6004C31.6781 43.1732 31.9411 41.6377 33.2627 41.6811C36.3752 41.7646 39.4878 41.808 42.597 41.6811C43.7822 41.6411 43.9619 43.2166 42.7635 43.6004C40.2035 44.4149 39.9539 44.8422 39.9006 47.2722C39.8607 52.8366 39.8607 55.4035 39.9006 60.7442C39.9539 66.6824 43.5325 70.1072 48.5592 70.1072C53.0766 70.1072 56.6985 67.32 56.7417 61.038C56.795 56.4249 56.7418 53.3039 56.6985 47.2722C56.6585 44.7988 56.4488 44.455 53.8456 43.6004C52.6904 43.2566 52.7304 41.6377 54.0952 41.6811C56.7384 41.7646 58.9988 41.7646 61.5987 41.6811C62.9203 41.6411 63.0568 43.2166 61.8583 43.6004C59.3816 44.3715 59.0487 44.7587 58.9954 47.2722C58.9122 53.0035 58.9122 55.6939 58.9555 59.7128C59.0487 67.4569 55.2903 72.2769 47.444 72.2769C39.5977 72.2769 35.766 67.8307 35.8493 60.4839" fill="black"/>
<path d="M66.0895 71.7228C65.0176 71.7228 64.5915 70.1873 65.8698 69.8034C68.5563 69.0324 68.7327 68.7286 68.7727 64.3759C68.8126 59.1987 68.8126 54.4522 68.7727 48.9812C68.7327 44.6619 68.7327 44.5785 65.8698 43.5971C64.6314 43.1698 64.8079 41.6344 66.1295 41.6778C69.6249 41.8046 72.0517 41.8046 75.5071 41.6778C76.6623 41.6377 76.9952 43.1699 75.5904 43.6405C72.8639 44.5384 72.8207 44.6619 72.8207 48.9846V64.3793C72.8207 69.3795 73.33 69.8902 78.4932 69.8902C84.1125 69.8902 85.1012 69.3261 86.9354 64.159C87.3415 63.0007 89.016 63.1776 88.8496 64.5028C88.5899 66.382 88.3802 68.2613 88.2137 70.1472C88.0772 71.4324 87.6944 71.8062 86.466 71.8062C79.7748 71.7228 72.7807 71.6393 66.0862 71.7228" fill="black"/>
<path d="M95.8371 69.8034C99.0329 68.9489 99.1261 68.782 99.166 64.4193C99.206 59.2855 99.206 54.2452 99.166 49.1081C99.1261 44.1078 98.8231 43.4836 94.8683 43.5437C92.1086 43.5838 90.6539 44.5785 89.0593 49.4919C88.6332 50.7971 86.8023 50.5267 87.0187 48.9479C87.2683 47.1854 87.528 45.1292 87.6545 43.1665C87.7377 42.1451 88.2071 41.631 89.6519 41.6744C100.061 41.8814 102.319 41.8814 112.632 41.6744C114.036 41.6344 114.589 42.0616 114.682 43.2933C114.809 45.1826 115.068 47.3523 115.285 49.0346C115.481 50.5267 113.724 50.7036 113.317 49.5787C111.496 44.505 110.175 43.5871 107.605 43.5571C103.64 43.5036 103.254 43.9009 103.214 49.1081C103.174 54.2419 103.174 59.2822 103.214 64.4193C103.254 68.6886 103.38 68.9489 106.576 69.8034C107.898 70.1472 107.472 71.7662 106.41 71.7228C102.871 71.5959 99.5921 71.5959 96.0967 71.7228C94.8151 71.7628 94.5987 70.1472 95.8371 69.8034Z" fill="black"/>
<path d="M121.64 60.4839C121.68 56.2046 121.64 53.2605 121.6 47.2722C121.56 44.7153 121.214 44.4116 118.747 43.6004C117.465 43.1732 117.728 41.6377 119.05 41.6811C122.162 41.7646 125.275 41.808 128.384 41.6811C129.569 41.6411 129.749 43.2166 128.551 43.6004C125.991 44.4149 125.741 44.8422 125.688 47.2722C125.648 52.8366 125.648 55.4035 125.688 60.7442C125.741 66.6824 129.32 70.1072 134.346 70.1072C138.864 70.1072 142.486 67.32 142.529 61.038C142.582 56.4249 142.529 53.3039 142.486 47.2722C142.446 44.7988 142.236 44.455 139.633 43.6004C138.478 43.2566 138.517 41.6377 139.882 41.6811C142.526 41.7646 144.786 41.7646 147.386 41.6811C148.707 41.6411 148.844 43.2166 147.645 43.6004C145.169 44.3715 144.836 44.7587 144.783 47.2722C144.699 53.0035 144.699 55.6939 144.743 59.7128C144.836 67.4569 141.077 72.2769 133.231 72.2769C125.385 72.2769 121.553 67.8307 121.636 60.4839" fill="black"/>
<path d="M151.657 69.8034C154.344 69.0724 154.477 68.6852 154.52 64.4193C154.56 59.419 154.56 55.1431 154.52 47.2722C154.48 44.8388 154.217 44.4116 151.657 43.5971C150.472 43.2099 150.555 41.6344 151.917 41.6778C155.196 41.7612 158.442 41.8046 161.721 41.6778C169.39 41.374 173.442 45.3529 173.442 49.6722C173.442 52.8332 171.568 55.7773 167.989 57.3629C167.22 57.7067 167.177 58.3442 167.686 59.0752C171.018 63.992 172.257 65.4841 173.275 66.9328C174.723 68.989 175.326 69.2927 177.24 69.6766C178.688 69.9703 178.259 71.6393 177.114 71.6393H173.741C172.117 71.6393 171.358 71.379 170.326 69.8869C167.986 66.3787 165.725 62.8304 163.385 59.5459C162.822 58.7748 161.887 58.4711 160.699 58.4711H160.272C159.117 58.4711 158.648 59.0752 158.608 60.14C158.568 61.3384 158.525 62.7503 158.568 64.3359C158.695 68.8655 158.774 68.989 161.984 69.8034C163.212 70.1072 162.879 71.7662 161.764 71.7228C157.839 71.5959 155.332 71.5959 151.917 71.7228C150.845 71.7628 150.336 70.1472 151.657 69.8034ZM160.096 56.7687C166.88 57.196 168.798 53.127 168.798 50.0594C168.798 45.8636 165.382 43.2132 160.565 43.3902C158.911 43.4736 158.568 44.0277 158.568 45.5198C158.528 48.6408 158.528 52.1056 158.568 55.2666C158.568 56.2046 159.161 56.7186 160.099 56.7687" fill="black"/>
<path d="M198.056 71.7228C196.108 71.6927 194.224 71.6694 192.456 71.6493C187.283 71.6193 183.089 71.6493 181.204 71.7228C180.133 71.7628 179.623 70.1873 180.945 69.8034C183.631 68.989 183.724 68.9055 183.808 64.3359C183.891 59.0752 183.891 53.9815 183.808 47.2722C183.768 44.7554 183.465 44.4116 180.945 43.5971C179.706 43.1699 179.883 41.6344 181.248 41.6778C185.442 41.7512 189.147 41.7813 192.789 41.7612C194.86 41.7512 196.92 41.7312 199.044 41.6878C199.93 41.6778 200.835 41.6578 201.751 41.6344C203.116 41.5943 203.625 42.0116 203.718 43.4302C203.845 45.0892 204.051 47.0219 204.354 49.1081C204.52 50.5701 202.773 50.6936 202.347 49.4953C200.369 43.8608 199.277 43.517 196.048 43.4636C194.051 43.4336 192.123 43.4336 189.43 43.4736C188.285 43.4736 187.859 43.9843 187.859 45.0925C187.819 49.1615 187.819 51.5114 187.859 54.0783C187.859 55.0597 188.368 55.6138 189.567 55.6138H191.741C194.976 55.6138 195.749 55.1865 196.851 52.2858C197.32 51.0441 198.984 51.2945 198.858 52.7031C198.555 55.9609 198.472 57.0224 198.858 60.2702C199.024 61.6488 197.317 61.8992 196.851 60.6574C195.745 57.7567 194.976 57.3695 191.741 57.3695H189.567C188.368 57.3695 187.859 58.0071 187.859 59.1654C187.819 60.6174 187.819 62.066 187.859 64.3425C187.942 69.1025 188.628 69.8936 194.397 69.967C194.74 69.977 195.106 69.977 195.489 69.977C200.07 69.977 201.215 69.4329 203.076 64.1623C203.502 62.9606 205.166 63.1809 204.99 64.5495C204.74 66.4288 204.52 68.2646 204.354 70.1539C204.271 71.3022 203.845 71.8563 202.606 71.8129C201.065 71.7829 199.547 71.7495 198.059 71.7294" fill="black"/>
<path d="M3.6421 111.381C2.2273 110.567 2.06085 110.306 2.14407 108.647C2.18402 107.572 2.2273 105.997 2.18402 104.161C2.14407 102.742 4.06821 102.556 4.2746 103.857C5.08686 108.868 7.57359 111.121 11.332 111.121C14.8906 111.121 17.1077 109.158 17.1077 106.424C17.1077 103.47 14.7242 101.331 10.3732 99.1508C5.04359 96.5005 2.48363 93.8067 2.48363 89.7478C2.48363 84.9144 6.1488 81.7968 12.5071 81.7968C14.9738 81.7968 17.1077 82.2674 18.386 82.7881C19.7076 83.3422 20.0505 83.893 20.0006 85.0546C19.9606 86.4632 19.9173 88.2991 19.9606 90.0549C20.0006 91.4635 18.1497 91.6304 17.88 90.3586C16.8713 85.5787 15.2568 83.7728 11.9678 83.7728C8.6788 83.7728 6.61818 85.3483 6.61818 88.3024C6.61818 91.5069 8.83526 93.6465 13.103 95.7861C19.4113 98.9472 21.159 101.474 21.159 104.845C21.159 109.719 17.4539 113.007 11.0523 113.007C7.8166 113.007 5.00364 112.162 3.6421 111.388" fill="black"/>
<path d="M28.1729 101.207C28.2129 96.9277 28.1729 93.9836 28.133 87.9953C28.093 85.4385 27.7468 85.1347 25.2801 84.3236C23.9984 83.8963 24.2614 82.3609 25.583 82.4042C28.6956 82.4877 31.8081 82.5311 34.9174 82.4042C36.1025 82.3642 36.2822 83.9397 35.0838 84.3236C32.5238 85.138 32.2742 85.5653 32.2209 87.9953C32.181 93.5597 32.181 96.1266 32.2209 101.467C32.2742 107.406 35.8528 110.827 40.8795 110.827C45.3969 110.827 49.0188 108.04 49.0621 101.758C49.1153 97.1447 49.0621 94.0237 49.0188 87.992C48.9788 85.5186 48.7691 85.1748 46.1659 84.3202C45.0107 83.9764 45.0507 82.3575 46.4155 82.4009C49.0587 82.4844 51.3191 82.4844 53.919 82.4009C55.2406 82.3609 55.3771 83.9364 54.1787 84.3202C51.7019 85.0913 51.369 85.4785 51.3158 87.992C51.2325 93.7233 51.2325 96.4137 51.2758 100.433C51.369 108.177 47.6106 112.997 39.7643 112.997C31.918 112.997 28.0864 108.55 28.1696 101.204" fill="black"/>
<path d="M57.4408 110.487C60.1273 109.799 60.4269 109.505 60.813 105.142C61.1859 101 61.5521 96.8576 61.875 92.9956C62.0314 91.2432 62.1679 89.5308 62.3011 87.9119C62.4775 85.4785 62.0514 85.0112 59.6146 84.2802C58.5527 83.9364 58.5127 82.2674 60.1239 82.3609C61.6652 82.4443 62.9868 82.4877 64.3484 82.4443C65.5867 82.4043 66.0961 82.8315 66.429 83.7294C69.0722 91.0763 72.1015 98.3931 74.788 105.009C75.1741 105.957 76.0696 105.957 76.4524 105.009C78.0869 101.083 79.7947 96.9611 81.4991 92.7453C82.7375 89.7077 83.9759 86.6101 85.1943 83.5091C85.4872 82.738 85.9533 82.4009 86.942 82.4443C88.43 82.4877 89.7116 82.4443 91.4593 82.3609C92.741 82.3208 92.9074 83.9798 91.6657 84.3236C89.2422 85.0112 88.896 85.7322 89.0625 87.7049C89.4054 92.8287 89.9147 98.9438 90.4773 105.102C90.8535 109.455 91.1131 109.759 93.7963 110.446C95.1178 110.78 94.6917 112.409 93.6298 112.366C90.5172 112.239 87.4879 112.282 84.3787 112.366C83.0138 112.406 82.7974 110.653 84.119 110.353C86.8055 109.759 86.8987 109.455 86.5558 105.102C86.2529 101.334 85.91 97.5786 85.5271 93.7266C85.4007 92.4849 84.1223 92.4415 83.6962 93.4229C81.9385 97.5252 80.1975 101.564 78.4498 105.677C77.5743 107.733 76.7021 109.819 75.8166 111.939C75.2973 113.18 73.8092 113.18 73.3399 111.939C70.9131 105.613 68.4796 99.4579 65.7532 92.7887C65.367 91.8907 64.2652 91.9742 64.1287 93.009C63.6593 97.4952 63.3164 101.294 63.0235 105.146C62.6806 109.508 62.7205 109.802 65.407 110.406C66.7286 110.7 66.5222 112.493 65.1573 112.409C62.6373 112.242 60.1206 112.326 57.6106 112.409C56.5387 112.449 56.1126 110.834 57.4341 110.49" fill="black"/>
<path d="M97.555 110.487C100.241 109.799 100.541 109.505 100.927 105.142C101.3 101 101.666 96.8576 101.989 92.9956C102.146 91.2432 102.282 89.5308 102.415 87.9119C102.592 85.4785 102.166 85.0112 99.7288 84.2802C98.6668 83.9364 98.6269 82.2674 100.238 82.3609C101.779 82.4443 103.101 82.4877 104.463 82.4443C105.701 82.4043 106.21 82.8315 106.543 83.7294C109.186 91.0763 112.216 98.3931 114.902 105.009C115.288 105.957 116.184 105.957 116.567 105.009C118.201 101.083 119.909 96.9611 121.613 92.7453C122.852 89.7077 124.09 86.6101 125.308 83.5091C125.601 82.738 126.067 82.4009 127.056 82.4443C128.544 82.4877 129.826 82.4443 131.574 82.3609C132.855 82.3208 133.022 83.9798 131.78 84.3236C129.353 85.0112 129.01 85.7322 129.177 87.7049C129.52 92.8287 130.029 98.9438 130.591 105.102C130.968 109.455 131.227 109.759 133.91 110.446C135.232 110.78 134.806 112.409 133.744 112.366C130.631 112.239 127.602 112.282 124.493 112.366C123.128 112.406 122.912 110.653 124.233 110.353C126.92 109.759 127.013 109.455 126.67 105.102C126.367 101.334 126.024 97.5786 125.638 93.7266C125.511 92.4849 124.233 92.4415 123.807 93.4229C122.049 97.5252 120.308 101.564 118.561 105.677C117.685 107.733 116.813 109.819 115.927 111.939C115.408 113.18 113.92 113.18 113.451 111.939C111.027 105.613 108.59 99.4579 105.864 92.7887C105.478 91.8907 104.376 91.9742 104.24 93.009C103.77 97.4952 103.427 101.294 103.134 105.146C102.791 109.508 102.831 109.802 105.518 110.406C106.839 110.7 106.63 112.493 105.268 112.409C102.748 112.242 100.231 112.326 97.7214 112.409C96.6495 112.449 96.2234 110.834 97.545 110.49" fill="black"/>
<path d="M138.135 110.527C140.821 109.712 140.914 109.629 140.998 105.059C141.081 99.7984 141.081 94.708 140.998 87.9953C140.958 85.4785 140.655 85.1347 138.135 84.3203C136.896 83.893 137.073 82.3575 138.438 82.4009C141.507 82.4844 144.58 82.4844 147.649 82.4009C149.014 82.3609 149.18 83.893 147.942 84.3203C145.435 85.1347 145.132 85.4785 145.089 87.9953C145.006 94.7046 145.006 99.7984 145.089 105.059C145.172 109.629 145.255 109.712 147.942 110.527C149.263 110.914 148.754 112.489 147.692 112.446C144.58 112.362 141.51 112.362 138.398 112.446C137.326 112.486 136.816 110.91 138.138 110.527" fill="black"/>
<path d="M160.609 110.527C163.804 109.672 163.898 109.505 163.937 105.142C163.977 100.009 163.977 94.9683 163.937 89.8312C163.898 84.8309 163.595 84.2067 159.64 84.2668C156.88 84.3069 155.425 85.3016 153.831 90.2151C153.405 91.5202 151.574 91.2498 151.79 89.671C152.04 87.9085 152.299 85.8524 152.426 83.8896C152.509 82.8682 152.979 82.3542 154.423 82.3976C164.833 82.6045 167.09 82.6045 177.403 82.3976C178.808 82.3575 179.361 82.7848 179.454 84.0165C179.58 85.9058 179.84 88.0754 180.056 89.7578C180.253 91.2498 178.495 91.4268 178.089 90.3019C176.268 85.2282 174.946 84.3102 172.376 84.2802C168.412 84.2268 168.025 84.624 167.985 89.8312C167.946 94.965 167.946 100.005 167.985 105.142C168.025 109.412 168.152 109.672 171.348 110.527C172.669 110.87 172.243 112.489 171.181 112.446C167.643 112.319 164.364 112.319 160.868 112.446C159.587 112.486 159.37 110.87 160.609 110.527Z" fill="black"/>
</g>
<defs>
<clipPath id="clip0_594_3653">
<rect width="205" height="113" fill="white"/>
</clipPath>
</defs>
</svg>
