<?xml version="1.0" encoding="utf-8"?>
<!-- Generator: Adobe Illustrator 25.0.1, SVG Export Plug-In . SVG Version: 6.00 Build 0)  -->
<svg version="1.1" id="Livello_1" xmlns="http://www.w3.org/2000/svg" xmlns:xlink="http://www.w3.org/1999/xlink" x="0px" y="0px"
	 viewBox="0 0 1619.4 113.4" style="enable-background:new 0 0 1619.4 113.4;" xml:space="preserve">
<g>
	<path d="M11.6,99.7c8.7-2.3,9.3-2.8,13.2-12.3c9.6-23.3,18.8-46.5,28.4-71.2c1.4-3.7,5.5-3.4,6.8-0.2c9.8,24.1,19.1,46.8,29.4,71.2
		c4.1,9.6,4.8,10.2,12.4,12.5c2.8,0.8,2.8,5.9-2,5.7c-10.4-0.4-19.4-0.4-28.9,0c-3.3,0.1-4.2-4.7-0.7-5.8c8.5-2.4,8.8-5.2,6.2-12
		c-1.2-3-2.6-6.6-3.8-9.7c-1-2.5-2.6-3.8-5.4-3.9c-9.4-0.1-15.8-0.1-25.3,0c-3.7,0-5.5,1.6-6.4,4c-1.2,3.1-2.5,6-3.6,9.1
		c-3.2,8.3-0.9,10.4,8.5,12.3c4.2,0.9,3.4,6.1-0.9,6c-9.1-0.2-18-0.4-27.1,0C9,105.5,7.7,100.7,11.6,99.7z M43.7,68.8
		c7.8,0.1,13.8,0.1,20.8,0c2.8,0,3.8-1.7,2.5-4.6c-1.3-3.2-7.2-17-10.8-25.7c-1-2.4-3.8-2.4-4.8,0c-2.3,5.9-4.2,10.5-10.4,26
		C39.6,67.6,41.3,68.8,43.7,68.8z"/>
	<path d="M112.7,99.7c8.1-2.2,8.5-3.3,8.6-16.1c0.1-15,0.1-27.8,0-51.4c-0.1-7.3-0.9-8.6-8.6-11c-3.6-1.2-3.3-5.9,0.8-5.8
		c9.8,0.3,19.6,0.4,29.5,0c23-0.9,35.2,11,35.2,23.9c0,9.5-5.6,18.3-16.4,23c-2.3,1-2.4,2.9-0.9,5.1c10,14.7,13.7,19.2,16.8,23.5
		c4.3,6.2,6.2,7.1,11.9,8.2c4.3,0.9,3.1,5.9-0.4,5.9h-10.1c-4.9,0-7.2-0.8-10.3-5.3c-7-10.5-13.8-21.1-20.9-31
		c-1.7-2.3-4.5-3.2-8.1-3.2h-1.3c-3.5,0-4.9,1.8-5,5c-0.1,3.6-0.2,7.8-0.1,12.6c0.4,13.6,0.6,13.9,10.3,16.4
		c3.7,0.9,2.7,5.9-0.7,5.8c-11.8-0.4-19.3-0.4-29.6,0C110.3,105.5,108.7,100.7,112.7,99.7z M138.1,60.6
		c20.4,1.3,26.1-10.9,26.1-20.1c0-12.6-10.3-20.5-24.7-20c-5,0.3-6,1.9-6,6.4c-0.1,9.3-0.1,19.7,0,29.2
		C133.5,58.9,135.2,60.4,138.1,60.6z"/>
	<path d="M201.5,99.7c8.7-2.3,9.3-2.8,13.2-12.3c9.6-23.3,18.8-46.5,28.4-71.2c1.4-3.7,5.5-3.4,6.8-0.2
		c9.8,24.1,19.1,46.8,29.4,71.2c4.1,9.6,4.8,10.2,12.3,12.5c2.8,0.8,2.8,5.9-2,5.7c-10.4-0.4-19.4-0.4-28.9,0
		c-3.3,0.1-4.2-4.7-0.7-5.8c8.5-2.4,8.8-5.2,6.2-12c-1.2-3-2.6-6.6-3.8-9.7c-1-2.5-2.6-3.8-5.4-3.9c-9.4-0.1-15.8-0.1-25.3,0
		c-3.7,0-5.5,1.6-6.4,4c-1.2,3.1-2.5,6-3.6,9.1c-3.2,8.3-0.9,10.4,8.5,12.3c4.2,0.9,3.4,6.1-0.9,6c-9.1-0.2-18-0.4-27.1,0
		C198.8,105.5,197.5,100.7,201.5,99.7z M233.5,68.8c7.8,0.1,13.8,0.1,20.8,0c2.8,0,3.8-1.7,2.5-4.6c-1.3-3.2-7.2-17-10.8-25.7
		c-1-2.4-3.8-2.4-4.8,0c-2.3,5.9-4.2,10.5-10.4,26C229.4,67.6,231.1,68.8,233.5,68.8z"/>
	<path d="M303.2,105.4c-3.2,0-4.5-4.6-0.7-5.8c8.1-2.3,8.6-3.2,8.7-16.3c0.1-15.5,0.1-29.7,0-46.1c-0.1-12.9-0.1-13.2-8.7-16.1
		c-3.7-1.3-3.2-5.9,0.8-5.8c10.5,0.4,17.8,0.4,28.2,0c3.5-0.1,4.5,4.5,0.2,5.9c-8.2,2.7-8.3,3.1-8.3,16v46.1c0,15,1.5,16.5,17,16.5
		c16.9,0,19.9-1.7,25.4-17.2c1.2-3.5,6.3-2.9,5.8,1c-0.8,5.6-1.4,11.3-1.9,16.9c-0.4,3.8-1.6,5-5.3,5
		C344.3,105.4,323.3,105.2,303.2,105.4z"/>
	<path d="M416.4,60.6c0-26.8,18.4-47,48.3-47c8.6,0,17.4,1.8,25.2,4.3c3.3,1,5,2.7,5.3,5.9c0.4,5.1,1.2,10.3,1.9,15.2
		c0.6,4-4.9,5.3-6.2,1.4C487,28,477.5,19.5,462.8,19.5c-17.7,0-31.4,12.2-31.8,39.1c-0.2,24.3,11,42.7,32.8,42.9
		c14,0.1,23.9-6.4,27.9-21.6c1-3.9,6.7-2.6,6.2,1c-0.8,5.5-1.3,10.4-1.8,15.6c-0.4,3.6-1.8,5-5.4,6.2c-7.9,2.6-16.7,4.5-26,4.5
		C434.6,107.1,416.4,87.7,416.4,60.6z"/>
	<path d="M518.9,71.7c0.1-12.8,0-21.6-0.1-39.6c-0.1-7.7-1.2-8.6-8.6-11c-3.8-1.3-3.1-5.9,0.9-5.8c9.3,0.3,18.7,0.4,28,0
		c3.6-0.1,4.1,4.6,0.5,5.8c-7.7,2.4-8.4,3.7-8.6,11c-0.1,16.7-0.1,24.4,0,40.4c0.2,17.8,10.9,28,26,28c13.6,0,24.4-8.3,24.6-27.2
		c0.2-13.8,0-23.2-0.1-41.2c-0.1-7.4-0.8-8.4-8.6-11c-3.5-1-3.3-5.9,0.8-5.8c7.9,0.3,14.7,0.3,22.5,0c4-0.1,4.4,4.6,0.8,5.8
		c-7.4,2.3-8.4,3.5-8.6,11c-0.2,17.2-0.2,25.2-0.1,37.3c0.3,23.2-11,37.6-34.6,37.6C531,107.1,518.7,93.7,518.9,71.7z"/>
	<path d="M609.8,105.4c-3.2,0-4.5-4.6-0.7-5.8c8.1-2.3,8.6-3.2,8.7-16.3c0.1-15.5,0.1-29.7,0-46.1c-0.1-12.9-0.1-13.2-8.7-16.1
		c-3.7-1.3-3.2-5.9,0.8-5.8c10.5,0.4,17.8,0.4,28.2,0c3.5-0.1,4.5,4.5,0.2,5.9c-8.2,2.7-8.3,3.1-8.3,16v46.1c0,15,1.5,16.5,17,16.5
		c16.9,0,19.9-1.7,25.4-17.2c1.2-3.5,6.3-2.9,5.8,1c-0.8,5.6-1.4,11.3-1.9,16.9c-0.4,3.8-1.6,5-5.3,5
		C650.9,105.4,629.9,105.2,609.8,105.4z"/>
	<path d="M699.1,99.7c9.6-2.6,9.9-3.1,10-16.1c0.1-15.4,0.1-30.5,0-45.9c-0.1-15-1-16.9-12.9-16.7c-8.3,0.1-12.7,3.1-17.4,17.8
		c-1.3,3.9-6.8,3.1-6.1-1.6c0.8-5.3,1.5-11.4,1.9-17.3c0.2-3.1,1.7-4.6,6-4.5c31.3,0.6,38,0.6,69,0c4.2-0.1,5.9,1.2,6.2,4.8
		c0.4,5.7,1.2,12.2,1.8,17.2c0.6,4.5-4.7,5-5.9,1.6c-5.5-15.2-9.4-17.9-17.2-18c-11.9-0.2-13.1,1-13.2,16.6
		c-0.1,15.4-0.1,30.5,0,45.9c0.1,12.8,0.5,13.6,10.1,16.1c4,1,2.7,5.9-0.5,5.8c-10.6-0.4-20.5-0.4-31,0
		C696.1,105.5,695.4,100.7,699.1,99.7z"/>
	<path d="M776.6,71.7c0.1-12.8,0-21.6-0.1-39.6c-0.1-7.7-1.2-8.6-8.6-11c-3.8-1.3-3.1-5.9,0.9-5.8c9.3,0.3,18.7,0.4,28,0
		c3.6-0.1,4.1,4.6,0.5,5.8c-7.7,2.4-8.4,3.7-8.6,11c-0.1,16.7-0.1,24.4,0,40.4c0.2,17.8,10.9,28,26,28c13.6,0,24.4-8.3,24.6-27.2
		c0.2-13.8,0-23.2-0.1-41.2c-0.1-7.4-0.8-8.4-8.6-11c-3.5-1-3.3-5.9,0.8-5.8c7.9,0.3,14.7,0.3,22.5,0c4-0.1,4.4,4.6,0.8,5.8
		c-7.4,2.3-8.4,3.5-8.6,11c-0.2,17.2-0.2,25.2-0.1,37.3c0.3,23.2-11,37.6-34.6,37.6C788.7,107.1,776.4,93.7,776.6,71.7z"/>
	<path d="M866.8,99.7c8.1-2.2,8.5-3.3,8.6-16.1c0.1-15,0.1-27.8,0-51.4c-0.1-7.3-0.9-8.6-8.6-11c-3.6-1.2-3.3-5.9,0.8-5.8
		c9.8,0.3,19.6,0.4,29.5,0c23-0.9,35.2,11,35.2,23.9c0,9.5-5.6,18.3-16.4,23c-2.3,1-2.4,2.9-0.9,5.1c10,14.7,13.7,19.2,16.8,23.5
		c4.3,6.2,6.2,7.1,11.9,8.2c4.3,0.9,3.1,5.9-0.4,5.9h-10.1c-4.9,0-7.2-0.8-10.3-5.3c-7-10.5-13.8-21.1-20.9-31
		c-1.7-2.3-4.5-3.2-8.1-3.2h-1.3c-3.5,0-4.9,1.8-5,5c-0.1,3.6-0.2,7.8-0.1,12.6c0.4,13.6,0.6,13.9,10.3,16.4
		c3.7,0.9,2.7,5.9-0.7,5.8c-11.8-0.4-19.3-0.4-29.6,0C864.4,105.5,862.8,100.7,866.8,99.7z M892.2,60.6
		c20.4,1.3,26.1-10.9,26.1-20.1c0-12.6-10.3-20.5-24.7-20c-5,0.3-6,1.9-6,6.4c-0.1,9.3-0.1,19.7,0,29.2
		C887.6,58.9,889.3,60.4,892.2,60.6z"/>
	<path d="M1006.2,105.4c-5.8-0.1-11.5-0.2-16.8-0.2c-15.5-0.1-28.1,0-33.8,0.2c-3.2,0.1-4.8-4.6-0.8-5.8c8.1-2.4,8.3-2.7,8.6-16.4
		c0.2-15.8,0.2-31,0-51.1c-0.1-7.5-1-8.6-8.6-11c-3.7-1.3-3.2-5.9,0.9-5.8c12.6,0.2,23.7,0.3,34.7,0.3c6.2,0,12.4-0.1,18.8-0.2
		c2.7,0,5.4-0.1,8.1-0.2c4.1-0.1,5.6,1.1,5.9,5.4c0.4,5,1,10.8,1.9,17c0.5,4.4-4.8,4.8-6,1.2c-5.9-16.9-9.2-17.9-18.9-18.1
		c-6-0.1-11.8-0.1-19.9,0c-3.4,0-4.7,1.5-4.7,4.8c-0.1,12.2-0.1,19.2,0,26.9c0,2.9,1.5,4.6,5.1,4.6h6.5c9.7,0,12-1.3,15.4-10
		c1.4-3.7,6.4-3,6,1.3c-0.9,9.8-1.2,12.9,0,22.7c0.5,4.1-4.6,4.9-6,1.2c-3.3-8.7-5.6-9.8-15.4-9.8h-6.5c-3.6,0-5.1,1.9-5.1,5.4
		c-0.1,4.3-0.1,8.7,0,15.5c0.2,14.3,2.3,16.6,19.6,16.9c1,0,2.1,0,3.3,0c13.8,0,17.2-1.6,22.8-17.4c1.3-3.6,6.3-2.9,5.8,1.2
		c-0.8,5.6-1.4,11.1-1.9,16.8c-0.2,3.4-1.5,5.1-5.3,5C1015.2,105.6,1010.7,105.5,1006.2,105.4z"/>
	<path d="M1080.8,102.2c-4.3-2.4-4.8-3.2-4.5-8.2c0.1-3.2,0.2-7.9,0.1-13.4c-0.1-4.3,5.7-4.8,6.3-0.9c2.4,15,9.9,21.8,21.2,21.8
		c10.7,0,17.4-5.9,17.4-14.1c0-8.8-7.2-15.3-20.2-21.8c-16-7.9-23.7-16-23.7-28.2c0-14.5,11-23.8,30.1-23.8c7.4,0,13.8,1.4,17.7,3
		c4,1.7,5,3.3,4.8,6.8c-0.1,4.2-0.2,9.7-0.1,15c0.1,4.2-5.4,4.7-6.3,0.9c-3-14.3-7.9-19.7-17.8-19.7c-9.5,0-16.1,4.7-16.1,13.6
		c0,9.6,6.7,16,19.5,22.4c18.9,9.5,24.2,17,24.2,27.1c0,14.6-11.1,24.4-30.4,24.4C1093.4,107.1,1084.9,104.5,1080.8,102.2z"/>
	<path d="M1154.5,71.7c0.1-12.8,0-21.6-0.1-39.6c-0.1-7.7-1.2-8.6-8.6-11c-3.8-1.3-3.1-5.9,0.9-5.8c9.3,0.3,18.7,0.4,28,0
		c3.6-0.1,4.1,4.6,0.5,5.8c-7.7,2.4-8.4,3.7-8.6,11c-0.1,16.7-0.1,24.4,0,40.4c0.2,17.8,10.9,28,26,28c13.6,0,24.4-8.3,24.6-27.2
		c0.2-13.8,0-23.2-0.1-41.2c-0.1-7.4-0.8-8.4-8.6-11c-3.5-1-3.3-5.9,0.8-5.8c7.9,0.3,14.7,0.3,22.5,0c4-0.1,4.4,4.6,0.8,5.8
		c-7.4,2.3-8.4,3.5-8.6,11c-0.2,17.2-0.2,25.2-0.1,37.3c0.3,23.2-11,37.6-34.6,37.6C1166.5,107.1,1154.3,93.7,1154.5,71.7z"/>
	<path d="M1242.4,99.5c8.1-2.1,9-2.9,10.1-16c1.1-12.4,2.2-24.8,3.2-36.4c0.5-5.3,0.9-10.4,1.3-15.2c0.5-7.3-0.8-8.7-8.1-10.9
		c-3.2-1-3.3-6,1.5-5.8c4.6,0.2,8.6,0.4,12.7,0.2c3.7-0.1,5.3,1.2,6.3,3.8c7.9,22,17,43.9,25.1,63.8c1.2,2.8,3.8,2.8,5,0
		c4.9-11.8,10-24.1,15.2-36.7c3.7-9.1,7.4-18.4,11.1-27.7c0.9-2.3,2.3-3.3,5.3-3.2c4.5,0.1,8.3,0,13.6-0.2c3.8-0.1,4.3,4.8,0.6,5.9
		c-7.3,2.1-8.3,4.2-7.8,10.1c1,15.4,2.6,33.7,4.3,52.1c1.1,13,1.9,13.9,10,16c4,1,2.7,5.9-0.5,5.8c-9.3-0.4-18.4-0.2-27.8,0
		c-4.1,0.1-4.8-5.1-0.8-6c8.1-1.8,8.3-2.7,7.3-15.7c-0.9-11.3-1.9-22.5-3.1-34.1c-0.4-3.7-4.2-3.8-5.5-0.9
		c-5.3,12.3-10.5,24.4-15.8,36.7c-2.6,6.2-5.3,12.4-7.9,18.8c-1.6,3.7-6,3.7-7.4,0c-7.3-18.9-14.6-37.4-22.8-57.4
		c-1.2-2.7-4.5-2.4-4.9,0.7c-1.4,13.4-2.4,24.8-3.3,36.4c-1,13.1-0.9,13.9,7.2,15.8c4,0.9,3.3,6.3-0.8,6c-7.6-0.5-15.1-0.2-22.7,0
		C1239.7,105.4,1238.5,100.6,1242.4,99.5z"/>
	<path d="M1362.9,99.5c8.1-2.1,9-2.9,10.1-16c1.1-12.4,2.2-24.8,3.2-36.4c0.5-5.3,0.9-10.4,1.3-15.2c0.5-7.3-0.8-8.7-8.1-10.9
		c-3.2-1-3.3-6,1.5-5.8c4.6,0.2,8.6,0.4,12.7,0.2c3.7-0.1,5.3,1.2,6.3,3.8c7.9,22,17,43.9,25.1,63.8c1.2,2.8,3.8,2.8,5,0
		c4.9-11.8,10-24.1,15.2-36.7c3.7-9.1,7.4-18.4,11.1-27.7c0.9-2.3,2.3-3.3,5.3-3.2c4.5,0.1,8.3,0,13.6-0.2c3.8-0.1,4.3,4.8,0.6,5.9
		c-7.3,2.1-8.3,4.2-7.8,10.1c1,15.4,2.6,33.7,4.3,52.1c1.1,13,1.9,13.9,10,16c4,1,2.7,5.9-0.5,5.8c-9.3-0.4-18.4-0.2-27.8,0
		c-4.1,0.1-4.8-5.1-0.8-6c8.1-1.8,8.3-2.7,7.3-15.7c-0.9-11.3-1.9-22.5-3.1-34.1c-0.4-3.7-4.2-3.8-5.5-0.9
		c-5.3,12.3-10.5,24.4-15.8,36.7c-2.6,6.2-5.3,12.4-7.9,18.8c-1.6,3.7-6,3.7-7.4,0c-7.3-18.9-14.6-37.4-22.8-57.4
		c-1.2-2.7-4.5-2.4-4.9,0.7c-1.4,13.4-2.4,24.8-3.3,36.4c-1,13.1-0.9,13.9,7.2,15.8c4,0.9,3.3,6.3-0.8,6c-7.6-0.5-15.1-0.2-22.7,0
		C1360.2,105.4,1359,100.6,1362.9,99.5z"/>
	<path d="M1484.8,99.7c8.1-2.4,8.3-2.7,8.6-16.4c0.2-15.8,0.2-31,0-51.1c-0.1-7.5-1-8.6-8.6-11c-3.7-1.3-3.2-5.9,0.9-5.8
		c9.2,0.3,18.4,0.3,27.7,0c4.1-0.1,4.6,4.5,0.9,5.8c-7.5,2.4-8.4,3.5-8.6,11c-0.2,20.1-0.2,35.4,0,51.1c0.2,13.7,0.5,13.9,8.6,16.4
		c4,1.2,2.4,5.9-0.8,5.8c-9.3-0.2-18.6-0.2-27.9,0C1482.4,105.5,1480.9,100.8,1484.8,99.7z"/>
	<path d="M1552.3,99.7c9.6-2.6,9.9-3.1,10-16.1c0.1-15.4,0.1-30.5,0-45.9c-0.1-15-1-16.9-12.9-16.7c-8.3,0.1-12.7,3.1-17.4,17.8
		c-1.3,3.9-6.8,3.1-6.1-1.6c0.8-5.3,1.5-11.4,1.9-17.3c0.3-3.1,1.7-4.6,6-4.5c31.3,0.6,38.1,0.6,69,0c4.2-0.1,5.9,1.2,6.2,4.8
		c0.4,5.7,1.2,12.2,1.8,17.2c0.6,4.5-4.7,5-5.9,1.6c-5.5-15.2-9.4-17.9-17.2-18c-11.9-0.2-13.1,1-13.2,16.6
		c-0.1,15.4-0.1,30.5,0,45.9c0.1,12.8,0.5,13.6,10.1,16.1c4,1,2.7,5.9-0.5,5.8c-10.6-0.4-20.5-0.4-31,0
		C1549.3,105.5,1548.6,100.7,1552.3,99.7z"/>
</g>
</svg>
