<?xml version="1.0" encoding="utf-8"?>
<!-- Generator: Adobe Illustrator 27.0.0, SVG Export Plug-In . SVG Version: 6.00 Build 0)  -->
<svg version="1.1" id="Layer_2" xmlns="http://www.w3.org/2000/svg" xmlns:xlink="http://www.w3.org/1999/xlink" x="0px" y="0px"
	 viewBox="0 0 1075.19 605.88" style="enable-background:new 0 0 1075.19 605.88;" xml:space="preserve">
<style type="text/css">
	.st0{fill:#0A0A0A;}
</style>
<g>
	<g>
		<g>
			<g>
				<g>
					<path class="st0" d="M209.73,605.88c0,0-209.73-46.61-209.73-264.2C0,149.86,0,0,0,0h46.61c0,0,0,149.86,0,341.68
						C46.61,559.28,209.73,605.88,209.73,605.88z"/>
				</g>
			</g>
		</g>
		<path class="st0" d="M209.74,456.6c9.68-5.51,17.8-10.27,26.76-17.55c29.83-24.21,43.14-54.24,43.14-97.36V0.01h46.61
			c0,0,0,331.13,0,341.68C326.25,368.7,311.18,456.6,209.74,456.6z"/>
	</g>
	<g>
		<g>
			<g>
				<g>
					<path class="st0" d="M507.8,6.7h17.05v0.38c-2.01,1.34-4.98,3.07-7.66,4.5v36.3c0,12.64-6.23,21.26-21.17,21.26
						c-14.85,0-23.27-8.24-23.27-21.65V10.15c-2.3-0.86-4.88-2.01-6.9-3.07V6.7h24.52v0.38c-1.82,1.05-4.5,2.2-6.7,3.07v38.12
						c-0.19,10.82,5.08,18.39,15.42,18.39c10.44,0,16.38-6.9,16.38-18.77v-36.3c-2.68-1.44-5.65-3.16-7.66-4.5V6.7H507.8z"/>
					<path class="st0" d="M561.72,54.12c0.57,4.6,1.05,9.77,1.34,14.08h-37.45v-1.15l24.62-40.51l-13.03,0.1l-8.62,11.97h-0.48
						c-0.57-4.41-1.05-9.39-1.25-13.7h34.77v1.15l-24.9,40.51l16-0.1l8.52-12.36L561.72,54.12L561.72,54.12z"/>
					<path class="st0" d="M612,45.3c0,16.67-10.06,23.85-22.51,23.85c-4.21,0-8.14-1.15-12.55-4.31l-5.46,4.02H571V2.48h-6.32V0.95
						h16.47v29.12c3.45-3.74,8.33-6.13,13.31-6.13C604.44,23.94,612,31.22,612,45.3z M600.8,47.99c0-16.19-4.21-20.59-10.63-20.59
						c-3.16,0-5.94,1.34-8.72,4.5v31.8c2.01,2.59,4.69,3.93,7.38,3.93C596.78,67.62,600.8,61.11,600.8,47.99z"/>
					<path class="st0" d="M656.45,59.86c-3.26,5.56-8.91,9.29-17.05,9.29c-12.64,0-20.88-8.91-20.88-22.22
						c0-15.13,10.54-22.99,20.59-22.99c10.15,0,17.14,7.95,17.14,17.72v1.72h-26.91c0.38,14.85,6.9,19.83,15.71,19.83
						c4.31,0,7.76-1.34,11.11-3.64L656.45,59.86z M629.34,41.66h16.47c0-11.68-2.59-16.38-7.57-16.38
						C632.88,25.29,629.44,30.55,629.34,41.66z"/>
					<path class="st0" d="M704.82,65.03c2.11,0.96,3.83,1.82,5.46,2.78v0.38h-21.65v-0.38c1.53-0.96,3.16-1.82,4.88-2.68
						l-11.69-19.54l-4.79,2.68v16.76c2.3,0.86,3.93,1.72,5.75,2.78v0.38h-22.12v-0.38c1.92-1.05,3.83-1.92,6.03-2.78V2.49h-6.03
						V0.96h16.38v45.5l5.27-2.78l16.09-17.24h-6.99v-1.53h16.57v1.53h-7.47l-11.4,12.16L704.82,65.03z"/>
					<path class="st0" d="M733.74,67.81v0.38h-22.32v-0.38c2.01-1.05,3.83-1.92,6.03-2.78V32.18l-6.03-2.97v-0.48
						c4.79-1.82,10.82-3.45,16.47-4.5v40.8C730.1,65.9,731.83,66.76,733.74,67.81z M716.12,8.43c0-3.83,2.68-6.61,6.61-6.61
						s6.61,2.78,6.61,6.61c0,3.74-2.68,6.51-6.61,6.51S716.12,12.16,716.12,8.43z"/>
					<path class="st0" d="M771.09,56.22c0,9.48-8.72,12.93-18.58,12.93c-5.75,0-9.96-0.86-14.75-3.26l0.29-3.26h0.38
						c4.5,3.45,8.43,4.98,13.98,4.98c6.23,0,9.39-2.78,9.39-7.38c0-12.36-22.89-9-22.89-23.66c0-8.81,8.14-12.64,17.72-12.64
						c5.08,0,8.52,0.86,13.5,3.16l-0.29,3.16h-0.38c-4.41-3.35-7.85-4.79-12.83-4.79c-5.36-0.1-8.43,2.3-8.43,6.61
						C748.2,43.87,771.09,40.9,771.09,56.22z"/>
					<path class="st0" d="M805,63.69c-1.92,2.97-5.65,5.46-11.3,5.46c-7.66,0-12.45-4.12-12.45-12.45V26.53h-6.51v-0.57l7.28-2.3
						c2.59-4.02,5.65-8.52,9.1-13.31h0.48v14.56h13.03v1.63H791.6v31.13c0,5.27,2.68,7.85,6.99,7.85c2.11,0,4.41-0.96,5.84-2.39
						L805,63.69z"/>
					<path class="st0" d="M843.5,66.66h6.13v1.53h-16.57v-4.98c-3.06,3.45-7.38,5.94-13.12,5.94c-7.09,0-11.78-3.93-11.78-10.34
						c0-7.95,7.38-13.03,24.9-14.37v-7.28c0-8.33-2.78-11.88-6.9-11.88c-1.53,0-2.68,0.38-4.02,1.25l-9.48,13.79h-0.57
						c-0.57-4.6-0.96-8.62-1.25-13.22c5.08-2.11,10.63-3.16,15.52-3.16c12.36,0,17.14,6.51,17.14,15.32L843.5,66.66L843.5,66.66z
						 M833.06,60.82V45.97c-10.44,1.15-14.27,5.94-14.27,12.07c0,5.08,2.49,7.47,5.84,7.47C827.41,65.51,830.29,63.98,833.06,60.82z
						"/>
					<path class="st0" d="M896.18,65.03c2.2,0.86,4.02,1.72,5.94,2.78v0.38H879.8v-0.38c1.92-1.05,3.74-1.92,5.94-2.78v-27.3
						c0-6.51-2.59-10.54-8.43-10.54c-3.35,0-6.13,1.34-9,4.41v33.43c2.11,0.86,3.83,1.72,5.75,2.78v0.38h-22.32v-0.38
						c2.01-1.05,3.83-1.92,6.13-2.78V31.99l-6.13-2.97v-0.38c4.88-1.92,10.63-3.54,16.28-4.6l-0.77,6.7
						c3.83-4.41,9.29-6.9,14.94-6.9c9.29,0,13.98,6.13,13.98,14.65v26.54H896.18z"/>
					<path class="st0" d="M517.57,166.24c2.49,0.96,4.5,1.92,6.7,3.16v0.38h-25v-0.38c2.2-1.15,4.31-2.11,6.8-3.16l-5.84-15.71
						h-22.22l-5.46,14.27c2.87,1.63,4.98,2.97,7.38,4.6v0.38h-17.05v-0.38c2.11-1.44,4.69-2.97,7.85-4.6l22.03-56.99h3.06
						L517.57,166.24z M478.68,148.8h20.98l-10.34-27.87L478.68,148.8z"/>
					<path class="st0" d="M559.42,126.39c-0.19,4.98-0.67,10.15-1.34,14.56h-0.48l-7.95-11.59c-0.19-0.1-0.67-0.19-1.15-0.19
						c-1.82,0-4.6,1.72-6.8,4.31v33.14c2.68,0.86,4.98,1.72,7.47,2.78v0.38h-24.04v-0.38c2.01-1.05,3.93-1.92,6.13-2.78v-33.04
						l-6.03-2.87v-0.38c4.88-1.92,10.63-3.64,16.28-4.6l-0.67,6.51c2.97-3.45,7.09-6.8,13.22-6.8
						C555.78,125.43,557.51,125.72,559.42,126.39z"/>
					<path class="st0" d="M591.89,165.28c-1.92,2.97-5.65,5.46-11.3,5.46c-7.66,0-12.45-4.12-12.45-12.45v-30.17h-6.51v-0.57
						l7.28-2.3c2.59-4.02,5.65-8.52,9.1-13.31h0.48v14.56h13.03v1.63h-13.03v31.13c0,5.27,2.68,7.85,6.99,7.85
						c2.11,0,4.41-0.96,5.84-2.39L591.89,165.28z"/>
					<path class="st0" d="M656.26,166.52c-2.11,2.97-4.79,4.21-8.33,4.21c-4.6,0-7.95-2.2-8.72-6.42c-3.06,3.64-7.57,6.42-13.5,6.42
						c-7.09,0-11.78-3.93-11.78-10.34c0-7.95,7.38-13.03,24.9-14.37v-7.27c0-8.33-2.78-11.88-6.9-11.88c-1.53,0-2.68,0.38-4.02,1.25
						l-9.48,13.79h-0.57c-0.57-4.6-0.96-8.62-1.25-13.22c5.08-2.11,10.63-3.16,15.52-3.16c12.36,0,17.14,6.51,17.14,15.32v21.55
						c0,3.26,1.53,4.6,3.54,4.6c0.96,0,2.11-0.29,3.26-0.77L656.26,166.52z M638.82,162.4v-14.85
						c-10.44,1.15-14.27,5.94-14.27,12.07c0,5.08,2.49,7.47,5.84,7.47C633.17,167.1,636.05,165.57,638.82,162.4z"/>
					<path class="st0" d="M702.23,166.62c2.2,0.86,4.02,1.72,5.94,2.78v0.38h-22.32v-0.38c1.92-1.05,3.74-1.92,5.94-2.78v-27.3
						c0-6.51-2.59-10.54-8.43-10.54c-3.35,0-6.13,1.34-9,4.41v33.43c2.11,0.86,3.83,1.72,5.75,2.78v0.38h-22.32v-0.38
						c2.01-1.05,3.83-1.92,6.13-2.78v-33.04l-6.13-2.97v-0.38c4.88-1.92,10.63-3.54,16.28-4.6l-0.77,6.7
						c3.83-4.41,9.29-6.9,14.94-6.9c9.29,0,13.98,6.13,13.98,14.65v26.54H702.23z"/>
					<path class="st0" d="M759.6,168.25v1.53h-16.76v-4.88c-3.64,3.74-8.05,5.84-13.22,5.84c-9.58,0-17.34-7.38-17.34-21.46
						c0-16.38,10.15-23.75,22.22-23.75c3.06,0,5.56,0.48,8.33,1.63v-17.05l-6.13-2.59v-0.48c4.79-1.82,10.92-3.45,16.57-4.5v65.71
						H759.6z M742.84,162.79V130.9c-2.39-2.68-4.88-3.83-8.05-3.83c-7.18,0-11.4,6.23-11.4,20.59c0,14.46,4.31,19.73,10.54,19.73
						C737.38,167.39,740.06,165.95,742.84,162.79z"/>
					<path class="st0" d="M832.97,149.76c0.48,6.61,0.67,12.16,0.67,16.19c-4.69,2.87-12.45,4.79-19.54,4.79
						c-18.01,0-29.88-12.93-29.88-31.7c0-19.06,12.07-31.7,30.17-31.7c6.42,0,13.22,1.25,18.58,3.45c0,4.6-0.29,10.92-0.67,17.53
						h-0.67l-10.54-17.24c-1.82-1.25-4.41-2.01-6.9-2.01c-11.69,0-17.34,9.96-17.34,29.79c0,20.11,5.75,30.17,17.05,30.17
						c2.78,0,5.94-0.86,7.66-2.11l10.73-17.14h0.68V149.76z"/>
					<path class="st0" d="M888.62,166.71c-2.2,2.78-5.08,4.02-8.62,4.02c-4.5,0-7.76-2.39-8.52-6.51c-3.54,4.21-8.33,6.51-13.7,6.51
						c-8.91,0-13.79-5.65-13.79-14.08v-22.99l-5.75-2.59v-0.57c4.88-1.82,10.54-3.45,16.19-4.5v31.22c0,5.55,1.92,10.06,7.85,10.06
						c2.87,0,5.84-1.34,8.81-4.69v-28.92l-5.75-2.59v-0.57c4.88-1.82,10.63-3.45,16.19-4.5v36.4c0,3.26,1.44,4.5,3.54,4.5
						c0.96,0,2.01-0.29,3.26-0.77L888.62,166.71z"/>
					<path class="st0" d="M913.14,169.4v0.38h-22.41v-0.38c2.01-1.05,3.83-1.92,6.03-2.78V110.4l-6.03-2.87v-0.48
						c4.79-1.82,10.73-3.45,16.47-4.5v64.08C909.4,167.48,911.22,168.34,913.14,169.4z"/>
					<path class="st0" d="M945.8,165.28c-1.92,2.97-5.65,5.46-11.3,5.46c-7.66,0-12.45-4.12-12.45-12.45v-30.17h-6.51v-0.57
						l7.28-2.3c2.59-4.02,5.65-8.52,9.1-13.31h0.48v14.56h13.03v1.63H932.4v31.13c0,5.27,2.68,7.85,6.99,7.85
						c2.11,0,4.41-0.96,5.84-2.39L945.8,165.28z"/>
					<path class="st0" d="M996.27,168.25v1.53H979.7v-5.08c-3.54,3.93-8.14,6.03-13.31,6.03c-8.91,0-13.79-5.84-13.79-14.27v-22.79
						l-5.75-2.59v-0.57c4.88-1.82,10.54-3.45,16.19-4.5v31.22c0,5.55,1.92,10.06,7.85,10.06c2.87,0,5.84-1.34,8.81-4.69v-28.92
						l-5.75-2.59v-0.57c4.88-1.82,10.63-3.45,16.19-4.5v42.24L996.27,168.25L996.27,168.25z"/>
					<path class="st0" d="M1033.53,126.39c-0.19,4.98-0.67,10.15-1.34,14.56h-0.48l-7.95-11.59c-0.19-0.1-0.67-0.19-1.15-0.19
						c-1.82,0-4.6,1.72-6.8,4.31v34.77h7.38v1.53h-23.94v-1.53h6.13v-34.67l-6.03-2.87v-0.38c4.88-1.92,10.63-3.64,16.19-4.6
						l-0.67,6.51c3.06-3.45,7.09-6.8,13.31-6.8C1029.89,125.43,1031.61,125.72,1033.53,126.39z"/>
					<path class="st0" d="M1075.19,161.45c-3.26,5.56-8.91,9.29-17.05,9.29c-12.64,0-20.88-8.91-20.88-22.22
						c0-15.13,10.54-22.99,20.59-22.99c10.15,0,17.14,7.95,17.14,17.72v1.72h-26.91c0.38,14.85,6.9,19.83,15.71,19.83
						c4.31,0,7.76-1.34,11.11-3.64L1075.19,161.45z M1048.09,143.25h16.47c0-11.68-2.59-16.38-7.57-16.38
						C1051.63,126.87,1048.18,132.14,1048.09,143.25z"/>
					<path class="st0" d="M526.57,240.33c0,22.03-16.57,31.03-31.32,31.03h-28.06v-0.38c1.92-1.05,4.41-2.2,6.7-3.07v-54.59
						c-2.3-0.86-4.88-2.01-6.9-3.07v-0.38h27.97C509.71,209.87,526.57,219.07,526.57,240.33z M514.4,240.81
						c0-21.93-10.54-29.21-20.59-29.21h-9v56.13c3.54,1.53,5.94,1.92,9.96,1.92C507.13,269.64,514.4,260.35,514.4,240.81z"/>
					<path class="st0" d="M570.72,263.03c-3.26,5.56-8.91,9.29-17.05,9.29c-12.64,0-20.88-8.91-20.88-22.22
						c0-15.13,10.54-22.99,20.59-22.99c10.15,0,17.14,7.95,17.14,17.72v1.72h-26.91c0.38,14.85,6.9,19.83,15.71,19.83
						c4.31,0,7.76-1.34,11.11-3.64L570.72,263.03z M543.62,244.83h16.47c0-11.68-2.59-16.38-7.57-16.38
						C547.16,228.45,543.71,233.72,543.62,244.83z"/>
					<path class="st0" d="M605.11,228.07h14.56v0.38c-1.82,1.53-4.5,3.54-6.7,4.88l-15.61,38.5h-2.78l-18.29-40.8
						c-1.63-0.86-3.06-1.63-4.31-2.59v-0.38H594v0.38c-2.11,1.15-3.93,2.01-6.32,2.97l12.36,29.12l11.01-27.2
						c-2.3-1.63-4.02-3.16-5.94-4.88V228.07z"/>
					<path class="st0" d="M657.31,263.03c-3.26,5.56-8.91,9.29-17.05,9.29c-12.64,0-20.88-8.91-20.88-22.22
						c0-15.13,10.54-22.99,20.59-22.99c10.15,0,17.14,7.95,17.14,17.72v1.72H630.2c0.38,14.85,6.9,19.83,15.71,19.83
						c4.31,0,7.76-1.34,11.11-3.64L657.31,263.03z M630.2,244.83h16.47c0-11.68-2.59-16.38-7.57-16.38
						C633.75,228.45,630.3,233.72,630.2,244.83z"/>
					<path class="st0" d="M684.03,270.98v0.38h-22.41v-0.38c2.01-1.05,3.83-1.92,6.03-2.78v-56.22l-6.03-2.87v-0.48
						c4.79-1.82,10.73-3.45,16.47-4.5v64.08C680.3,269.06,682.12,269.93,684.03,270.98z"/>
					<path class="st0" d="M688.34,249.72c0-13.22,9.19-22.6,21.93-22.6s21.93,9.39,21.93,22.6c0,13.31-9.19,22.6-21.93,22.6
						S688.34,263.03,688.34,249.72z M720.81,249.72c0-14.56-3.35-21.17-10.54-21.17s-10.54,6.61-10.54,21.17
						c0,14.65,3.35,21.17,10.54,21.17S720.81,264.28,720.81,249.72z"/>
					<path class="st0" d="M783.55,248.66c0,16.28-9.87,23.66-22.6,23.66c-2.68,0-5.27-0.38-8.05-1.34v18.2h7.76v1.53h-24.23v-1.53
						h6.13v-54.02l-6.13-2.87v-0.38c4.88-1.92,10.63-3.64,16.28-4.6l-0.77,6.51c3.64-4.21,8.14-6.7,14.18-6.7
						C775.98,227.11,783.55,234.58,783.55,248.66z M772.44,251.15c0-16.19-4.31-20.59-10.82-20.59c-3.16,0-5.94,1.34-8.72,4.41v31.8
						c2.11,2.87,4.79,4.02,7.47,4.02C768.32,270.79,772.44,264.28,772.44,251.15z"/>
					<path class="st0" d="M858.64,268.2c2.3,0.86,4.02,1.72,6.03,2.78v0.38h-22.32v-0.38c1.92-1.05,3.74-1.92,5.84-2.78v-27.58
						c0-6.03-2.39-10.25-7.76-10.25c-2.87,0-5.56,1.34-8.72,4.31v33.52c2.2,0.86,4.02,1.72,6.03,2.78v0.38h-22.32v-0.38
						c1.92-1.05,3.74-1.92,5.84-2.78v-28.83c0-5.75-2.3-9-7.85-9c-2.97,0-5.84,1.53-8.62,4.5v33.33c2.2,0.86,3.93,1.72,5.84,2.78
						v0.38h-22.32v-0.38c1.92-1.05,3.83-1.92,6.03-2.78v-38.6h-6.03v-1.53h16.47v4.69c3.54-3.35,8.43-5.75,13.7-5.75
						c5.94,0,10.06,2.68,12.07,6.9c4.5-4.69,9.29-6.9,15.32-6.9c7.76,0,12.74,5.94,12.74,14.27v26.92H858.64z"/>
					<path class="st0" d="M906.53,263.03c-3.26,5.56-8.91,9.29-17.05,9.29c-12.64,0-20.88-8.91-20.88-22.22
						c0-15.13,10.54-22.99,20.59-22.99c10.15,0,17.14,7.95,17.14,17.72v1.72h-26.91c0.38,14.85,6.9,19.83,15.71,19.83
						c4.31,0,7.76-1.34,11.11-3.64L906.53,263.03z M879.42,244.83h16.47c0-11.68-2.59-16.38-7.57-16.38
						C882.97,228.45,879.52,233.72,879.42,244.83z"/>
					<path class="st0" d="M955.57,269.83h5.84v1.53h-22.32v-1.53h6.03V240.9c0-6.51-2.59-10.54-8.43-10.54c-3.35,0-6.13,1.34-9,4.41
						v35.06h5.75v1.53h-22.22v-1.53h6.03V229.6h-6.03v-1.53h16.47v4.69c3.74-3.64,8.72-5.75,13.89-5.75
						c9.29,0,13.98,6.13,13.98,14.65v28.17H955.57z"/>
					<path class="st0" d="M993.59,266.86c-1.92,2.97-5.65,5.46-11.3,5.46c-7.66,0-12.45-4.12-12.45-12.45V229.7h-6.51v-0.57
						l7.28-2.3c2.59-4.02,5.65-8.52,9.1-13.31h0.48v14.56h13.03v1.63h-13.03v31.13c0,5.27,2.68,7.85,6.99,7.85
						c2.11,0,4.41-0.96,5.84-2.39L993.59,266.86z"/>
					<path class="st0" d="M512.39,331.38h-0.57l-11.11-18.2h-15.9v29.21h10.25c1.82-3.64,4.02-7.47,6.13-10.82h0.67v23.27h-0.67
						c-2.11-3.26-4.31-7.09-6.13-10.82h-10.25v25.48c2.59,0.86,5.56,2.01,7.95,3.07v0.38H467v-0.38c2.01-1.05,4.6-2.2,6.9-3.07
						v-54.59c-2.3-0.86-4.88-2.01-6.9-3.07v-0.38h46.07C513.06,317.3,512.87,325.15,512.39,331.38z"/>
					<path class="st0" d="M514.12,351.3c0-13.22,9.19-22.6,21.93-22.6s21.93,9.39,21.93,22.6c0,13.31-9.19,22.6-21.93,22.6
						S514.12,364.62,514.12,351.3z M546.59,351.3c0-14.56-3.35-21.17-10.54-21.17c-7.18,0-10.54,6.61-10.54,21.17
						c0,14.65,3.35,21.17,10.54,21.17C543.24,372.47,546.59,365.86,546.59,351.3z"/>
					<path class="st0" d="M612.29,369.88c-2.2,2.78-5.08,4.02-8.62,4.02c-4.5,0-7.76-2.39-8.52-6.51c-3.54,4.21-8.33,6.51-13.7,6.51
						c-8.91,0-13.79-5.65-13.79-14.08v-22.99l-5.75-2.59v-0.57c4.88-1.82,10.54-3.45,16.19-4.5v31.22c0,5.55,1.92,10.06,7.85,10.06
						c2.87,0,5.84-1.34,8.81-4.69v-28.92l-5.75-2.59v-0.57c4.88-1.82,10.63-3.45,16.19-4.5v36.4c0,3.26,1.44,4.5,3.54,4.5
						c0.96,0,2.01-0.29,3.26-0.77L612.29,369.88z"/>
					<path class="st0" d="M659.13,371.42h5.84v1.53h-22.32v-1.53h6.03v-28.93c0-6.51-2.59-10.54-8.43-10.54
						c-3.35,0-6.13,1.34-9,4.41v35.06H637v1.53h-22.32v-1.53h6.13v-34.67l-6.13-2.97v-0.38c4.88-1.92,10.63-3.54,16.28-4.6
						l-0.77,6.7c3.83-4.41,9.29-6.9,14.94-6.9c9.29,0,13.98,6.13,13.98,14.65v28.17H659.13z"/>
					<path class="st0" d="M716.6,369.4v0.48l-10.34,4.21c-3.54-1.15-5.65-3.54-6.42-6.32c-3.74,3.93-8.24,6.13-13.5,6.13
						c-9.58,0-17.34-7.38-17.34-21.46c0-16.38,10.15-23.75,22.22-23.75c3.16,0,5.65,0.48,8.43,1.63v-16.95l-6.23-2.68v-0.48
						c4.79-1.82,10.92-3.45,16.57-4.5v62.54L716.6,369.4z M699.64,365.86v-31.7c-2.49-2.68-4.88-3.93-8.14-3.93
						c-7.18,0-11.4,6.23-11.4,20.59c0,14.46,4.31,19.73,10.54,19.73C694.09,370.55,696.87,369.02,699.64,365.86z"/>
					<path class="st0" d="M755.67,371.42h6.13v1.53h-16.57v-4.98c-3.06,3.45-7.38,5.94-13.12,5.94c-7.09,0-11.78-3.93-11.78-10.34
						c0-7.95,7.38-13.03,24.9-14.37v-7.28c0-8.33-2.78-11.88-6.9-11.88c-1.53,0-2.68,0.38-4.02,1.25l-9.48,13.79h-0.57
						c-0.57-4.6-0.96-8.62-1.25-13.22c5.08-2.11,10.63-3.16,15.52-3.16c12.36,0,17.14,6.51,17.14,15.32L755.67,371.42L755.67,371.42
						z M745.23,365.57v-14.85c-10.44,1.15-14.27,5.94-14.27,12.07c0,5.08,2.49,7.47,5.84,7.47
						C739.58,370.27,742.46,368.73,745.23,365.57z"/>
					<path class="st0" d="M793.22,368.45c-1.92,2.97-5.65,5.46-11.3,5.46c-7.66,0-12.45-4.12-12.45-12.45v-30.17h-6.51v-0.57
						l7.28-2.3c2.59-4.02,5.65-8.52,9.1-13.31h0.48v14.56h13.03v1.63h-13.03v31.13c0,5.27,2.68,7.85,6.99,7.85
						c2.11,0,4.41-0.96,5.84-2.39L793.22,368.45z"/>
					<path class="st0" d="M817.55,372.57v0.38h-22.32v-0.38c1.92-1.05,3.83-1.92,6.03-2.78v-38.6h-5.84v-1.53h16.28v40.13
						C813.91,370.65,815.63,371.51,817.55,372.57z M799.93,313.18c0-3.83,2.68-6.61,6.51-6.61c3.93,0,6.61,2.78,6.61,6.61
						c0,3.74-2.68,6.51-6.61,6.51C802.61,319.7,799.93,316.92,799.93,313.18z"/>
					<path class="st0" d="M822.24,351.3c0-13.22,9.19-22.6,21.93-22.6s21.93,9.39,21.93,22.6c0,13.31-9.19,22.6-21.93,22.6
						S822.24,364.62,822.24,351.3z M854.71,351.3c0-14.56-3.35-21.17-10.54-21.17c-7.18,0-10.54,6.61-10.54,21.17
						c0,14.65,3.35,21.17,10.54,21.17S854.71,365.86,854.71,351.3z"/>
					<path class="st0" d="M915.24,369.79c2.2,0.86,4.02,1.72,5.94,2.78v0.38h-22.32v-0.38c1.92-1.05,3.74-1.92,5.94-2.78v-27.3
						c0-6.51-2.59-10.54-8.43-10.54c-3.35,0-6.13,1.34-9,4.41v33.43c2.11,0.86,3.83,1.72,5.75,2.78v0.38H870.8v-0.38
						c2.01-1.05,3.83-1.92,6.13-2.78v-33.04l-6.13-2.97v-0.38c4.88-1.92,10.63-3.54,16.28-4.6l-0.77,6.7
						c3.83-4.41,9.29-6.9,14.94-6.9c9.29,0,13.98,6.13,13.98,14.65v26.54H915.24z"/>
				</g>
			</g>
		</g>
	</g>
</g>
</svg>
