<?xml version="1.0" encoding="utf-8"?>
<!-- Generator: Adobe Illustrator 25.0.1, SVG Export Plug-In . SVG Version: 6.00 Build 0)  -->
<svg version="1.1" id="Livello_1" xmlns="http://www.w3.org/2000/svg" xmlns:xlink="http://www.w3.org/1999/xlink" x="0px" y="0px"
	 viewBox="0 0 940 380" style="enable-background:new 0 0 940 380;" xml:space="preserve">
<style type="text/css">
	.st0{fill:#E2C09A;}
</style>
<g>
	<path class="st0" d="M70.5,125.3v-4c4,0,9.3-0.3,9.3-5c0-1.9-0.5-4.3-2.3-8.4l-5.3-12.1H37.6l-6.1,14.3c-0.8,2.2-1.5,4.2-1.5,6.6
		c0,3.8,2.7,4.6,9,4.6v4H10.7v-4c7.6,0,9.4-2.2,15.9-17.5L55.2,36h5.5l32,73.3c3.9,8.9,6.6,12,13.9,12v4H70.5z M55.4,52.5H55
		L39.7,90.3h30.5L55.4,52.5z"/>
	<path class="st0" d="M148.6,36.6c17.3,0,33.3,4.5,33.3,22.4c0,21.1-17.7,27.7-35.4,27.7c-2.7,0-6.2-0.4-7.7-1.1v23.1
		c0,11.1,2.7,12.6,13.6,12.6v4h-38.1v-4c10.5,0,12-1.8,12-13.1v-58c0-8-2.8-9.4-11.5-9.4v-4h33.8V36.6z M138.8,80.6
		c1.5,0.3,4.6,0.5,7.3,0.5c14.6,0,22.4-4.6,22.4-20.2c0-12.1-7-19-21.6-19c-2.7,0-5.3,0.3-8.1,0.5L138.8,80.6L138.8,80.6z"/>
	<path class="st0" d="M235,125.3v-4c4,0,9.3-0.3,9.3-5c0-1.9-0.5-4.3-2.3-8.4l-5.3-12.1h-34.6l-6.1,14.3c-0.8,2.2-1.5,4.2-1.5,6.6
		c0,3.8,2.7,4.6,9,4.6v4h-28.3v-4c7.6,0,9.4-2.2,15.9-17.5L219.7,36h5.5l32,73.3c3.9,8.9,6.6,12,13.9,12v4H235z M219.8,52.5h-0.4
		l-15.3,37.8h30.5L219.8,52.5z"/>
	<path class="st0" d="M366.3,40.6c-10.1,0-13.1,1.6-13.1,10.8v58.2c0,9.9,1.6,11.6,13.1,11.6v4h-38.6v-4c10.7,0,13.1-1.5,13.1-11.6
		V42.5H318c-0.8,23.4-5,51.8-11.1,66.8c-4.7,11.6-10.3,17.5-19.3,17.5c-7,0-11.2-4.2-11.2-8.8c0-3.2,2.2-6.9,6.6-6.9
		c4.2,0,5.7,3.1,9.7,3.1c3.1,0,5.4-1.5,8.4-8.2c5.4-11.7,9.9-40,9.9-57c0-7.8-3.8-8.5-13.2-8.5v-4h68.6L366.3,40.6L366.3,40.6z"/>
	<path class="st0" d="M375.8,40.6v-4h39.1v4c-11.2,0-13.2,2.4-13.2,11.7v23.2c4.1-0.4,9.2-0.7,14.6-0.7c22.8,0,32.8,10.3,32.8,24
		c0,16.7-12.7,26.3-35.1,26.3h-36.9v-4c11.6,0,12.1-3.1,12.1-17V52.4C389.3,42.9,387.9,40.6,375.8,40.6z M410.3,80.4
		c-4.6,0-7,0.1-8.6,0.3v38.7c3.4,0.3,6.1,0.4,9.7,0.4c11.1,0,23.8-3,23.8-20C435.2,86.2,425,80.4,410.3,80.4z"/>
	<path class="st0" d="M535.6,108c-7.3,10.9-18.5,18.8-36.2,18.8c-27.8,0-42.4-19.4-42.4-45.8c0-29.4,18.4-46,44.3-46
		c14.2,0,19.2,4.9,22.5,4.9c2.2,0,3-2.2,4.6-4.9h4v30.9h-4.6c-3-17.7-12.6-25.1-26.5-25.1c-19.4,0-30.4,14.8-30.4,38.9
		c0,27,13.2,38.6,32.3,38.6c12.4,0,21.5-4.9,29-13.1L535.6,108z"/>
	<path class="st0" d="M629.2,125.3h-23.4c-9.6-18-14.3-26.3-20.8-37.3c-2.6-4.2-4-5.1-9.7-5.1h-6.5v24.7c0,12,1.1,13.6,12.8,13.6v4
		h-37.4v-4c11.5,0,12-2.6,12-13.6V54.4c0-11.1-0.3-13.8-12-13.8v-4h37v4c-12,0-12.4,3.2-12.4,13.8v23.5h12.3
		c8.1,0,11.2-6.2,14.4-18.8c2.8-10.5,6.9-23.9,20.2-23.9c5.5,0,10.3,2.4,10.3,8.2c0,3.5-2.2,6.9-6.6,6.9c-4.2,0-5.8-3.6-9.3-3.6
		c-3.2,0-5.9,2.7-8.5,12.4c-2.2,8.4-3.6,14.4-10.1,20v0.7c5.9,5,10.5,14.2,22.4,34c3.8,6.3,5.3,7.3,15.3,7.4V125.3z"/>
	<path class="st0" d="M706.8,59.1h-0.4l-44.1,53.3c0.1,6.6,2,8.8,13.2,8.8v4h-38.9v-4c12.3,0,13.2-1.8,13.2-13.6V54.4
		c0-10.5-0.4-13.8-13.2-13.8v-4h38.9v4c-12.8,0-13.2,3.2-13.2,13.8v48.9h0.4l44.1-53.2c-0.1-6.3-0.8-9.4-13.4-9.4v-4h38.9v4
		c-12.8,0-13.1,3.2-13.1,13.8v53.2c0,11.3,1.2,13.6,13.1,13.6v4h-38.9v-4c12.3,0,13.4-1.8,13.4-13.6V59.1z"/>
	<path class="st0" d="M810.7,59.1h-0.4l-44.1,53.3c0.1,6.6,2,8.8,13.2,8.8v4h-38.9v-4c12.3,0,13.2-1.8,13.2-13.6V54.4
		c0-10.5-0.4-13.8-13.2-13.8v-4h38.9v4c-12.8,0-13.2,3.2-13.2,13.8v48.9h0.4l44.1-53.2c-0.1-6.3-0.8-9.4-13.4-9.4v-4h38.9v4
		c-12.8,0-13.1,3.2-13.1,13.8v53.2c0,11.3,1.2,13.6,13.1,13.6v4h-38.9v-4c12.3,0,13.4-1.8,13.4-13.6V59.1z M800.1,20.4
		c0-3.4-3.2-3.8-3.2-7.7c0-3.8,2.7-5.4,5.9-5.4c4,0,8.1,3,8.1,9c0,10.4-11.9,14.3-22.4,14.3c-10.7,0-22.4-3.9-22.4-14.3
		c0-5.9,3.8-9,8.1-9c3.2,0,5.8,1.8,5.8,5.4c0,3.8-3.2,4.5-3.2,7.6c0,2.3,1.6,5.9,11.7,5.9S800.1,22.4,800.1,20.4z"/>
	<path class="st0" d="M101.3,248.3H78c-9.6-18-14.3-26.3-20.8-37.3c-2.6-4.2-4-5.1-9.7-5.1H41v24.7c0,12,1.1,13.6,12.8,13.6v4H16.4
		v-4c11.5,0,12-2.6,12-13.6v-53.2c0-11.1-0.3-13.8-12-13.8v-4h37v4c-12,0-12.4,3.2-12.4,13.8v23.5h12.3c8.1,0,11.2-6.2,14.4-18.8
		c2.8-10.5,6.9-23.9,20.2-23.9c5.5,0,10.3,2.4,10.3,8.2c0,3.5-2.2,6.9-6.6,6.9c-4.2,0-5.8-3.6-9.3-3.6c-3.2,0-5.9,2.7-8.5,12.4
		c-2.2,8.4-3.6,14.4-10.1,20v0.7c5.9,5,10.5,14.2,22.4,34c3.8,6.3,5.3,7.3,15.3,7.4L101.3,248.3L101.3,248.3z"/>
	<path class="st0" d="M192.7,163.6c-9,0-12.7,7.3-19,20.9l-17.5,38.2c-6.7,14.7-13.4,27.5-26.9,27.5c-7.8,0-12.3-3.9-12.3-8.9
		c0-3.6,2.7-6.9,6.5-6.9c5.1,0,7.6,3.9,11.7,3.9c3.1,0,6.1-0.9,8.8-5.1c1.8-3.1,2.2-3.8,3.5-6.5L119.7,174
		c-3.6-6.9-5.5-10.4-14.4-10.4v-4h35v4c-6.5,0-9,1.4-9,4.5s1.3,5.7,5.1,13.1l11.1,21.2l5.5,11.7h0.8l15.1-33.2
		c1.9-4.2,3.4-8.2,3.4-11.9c0-3.9-3.2-5.4-8.8-5.4v-4h29.3v4H192.7z"/>
	<path class="st0" d="M270.5,163.6c-10.1,0-13.1,1.6-13.1,10.8v58.2c0,9.9,1.6,11.6,13.1,11.6v4h-38.6v-4c10.7,0,13.1-1.5,13.1-11.6
		v-67.1h-22.8c-0.8,23.4-5,51.8-11.1,66.8c-4.7,11.6-10.3,17.5-19.3,17.5c-7,0-11.2-4.2-11.2-8.8c0-3.2,2.2-6.9,6.6-6.9
		c4.2,0,5.7,3.1,9.7,3.1c3.1,0,5.4-1.5,8.4-8.2c5.4-11.7,9.9-40,9.9-57c0-7.8-3.8-8.5-13.2-8.5v-4h68.6v4.1H270.5z"/>
	<path class="st0" d="M280.3,163.6v-4h39.1v4c-11.2,0-13.2,2.4-13.2,11.7v23.2c4.1-0.4,9.2-0.7,14.6-0.7c22.8,0,32.8,10.3,32.8,24
		c0,16.7-12.7,26.3-35.1,26.3h-36.9v-4c11.6,0,12.1-3.1,12.1-17v-51.7C293.8,165.9,292.5,163.6,280.3,163.6z M314.9,203.4
		c-4.6,0-7,0.1-8.6,0.3v38.7c3.4,0.3,6.1,0.4,9.7,0.4c11.1,0,23.8-3,23.8-20C339.7,209.2,329.6,203.4,314.9,203.4z"/>
	<path class="st0" d="M429.1,183.9c-3-14.7-4.6-18.2-19.6-18.2H401v64.9c0,12.3,1.8,13.6,13.4,13.6v4h-39.1v-4
		c11.3,0,13.2-1.4,13.2-13.6v-64.9h-8.6c-14.8,0-16.7,3.5-19.6,18.2h-4.2l1.5-24.3h74.7l1.1,24.3H429.1z"/>
	<path class="st0" d="M528.2,163.6c-9,0-12.7,7.3-19,20.9l-17.5,38.2c-6.7,14.7-13.4,27.5-26.9,27.5c-7.8,0-12.3-3.9-12.3-8.9
		c0-3.6,2.7-6.9,6.5-6.9c5.1,0,7.6,3.9,11.7,3.9c3.1,0,6.1-0.9,8.8-5.1c1.8-3.1,2.2-3.8,3.5-6.5L455.2,174
		c-3.6-6.9-5.5-10.4-14.4-10.4v-4h35v4c-6.5,0-9,1.4-9,4.5s1.3,5.7,5.1,13.1l11.1,21.2l5.5,11.7h0.8l15.1-33.2
		c1.9-4.2,3.4-8.2,3.4-11.9c0-3.9-3.2-5.4-8.8-5.4v-4h29.3L528.2,163.6L528.2,163.6z"/>
	<path class="st0" d="M571.1,159.6c17.3,0,33.3,4.5,33.3,22.4c0,21.1-17.7,27.7-35.4,27.7c-2.7,0-6.2-0.4-7.7-1.1v23.1
		c0,11.1,2.7,12.6,13.6,12.6v4H537v-4c10.5,0,12-1.8,12-13.1v-58c0-8-2.8-9.4-11.5-9.4v-4h33.6V159.6z M561.4,203.6
		c1.5,0.3,4.6,0.5,7.3,0.5c14.6,0,22.4-4.6,22.4-20.2c0-12.1-7-19-21.6-19c-2.7,0-5.3,0.3-8.1,0.5L561.4,203.6L561.4,203.6z"/>
	<path class="st0" d="M636.3,200.1h44.3v-22.7c0-10.5-0.7-13.8-13.1-13.8v-4h38.6v4c-12.8,0-13.2,3.1-13.2,13.8v53.2
		c0,11.7,0.9,13.6,13.2,13.6v4h-38.6v-4c12,0,13.1-1.9,13.1-13.6v-25.2h-44.3v25.2c0,11.9,1.1,13.6,13.2,13.6v4h-38.7v-4
		c12.1,0,13.1-1.6,13.1-13.6v-53.2c0-10.5-0.7-13.8-13.1-13.8v-4h38.7v4c-12.8,0-13.2,3.2-13.2,13.8V200.1z"/>
	<path class="st0" d="M713.4,163.6v-4h39.1v4c-11.2,0-13.2,2.4-13.2,11.7v23.2c3.8-0.4,8.6-0.7,13.6-0.7c21.6,0,31.2,10.3,31.2,24
		c0,16.7-12.3,26.3-33.9,26.3h-35.5v-4c11.6,0,12.1-3.1,12.1-17v-51.7C726.9,165.9,725.6,163.6,713.4,163.6z M747.4,203.4
		c-4.3,0-6.6,0.1-8.1,0.3v38.7c3.1,0.3,5.7,0.4,9.2,0.4c10.3,0,22.1-3,22.1-20C770.6,209.2,761.1,203.4,747.4,203.4z M798.3,177.4
		c0-10.5-0.5-13.8-13.4-13.8v-4h39v4c-13,0-13.2,3.2-13.2,13.8v53.2c0,11.3,1.2,13.6,13.2,13.6v4h-39v-4c12.3,0,13.4-1.8,13.4-13.6
		V177.4z"/>
	<path class="st0" d="M903.6,182.1h-0.4l-44.1,53.3c0.1,6.6,2,8.8,13.2,8.8v4h-38.9v-4c12.3,0,13.2-1.8,13.2-13.6v-53.2
		c0-10.5-0.4-13.8-13.2-13.8v-4h38.9v4c-12.8,0-13.2,3.2-13.2,13.8v48.9h0.4l44.1-53.2c-0.1-6.3-0.8-9.4-13.4-9.4v-4h38.9v4
		c-12.8,0-13.1,3.2-13.1,13.8v53.2c0,11.3,1.2,13.6,13.1,13.6v4h-38.9v-4c12.3,0,13.4-1.8,13.4-13.6V182.1z M892.9,143.4
		c0-3.4-3.2-3.8-3.2-7.7c0-3.8,2.7-5.4,5.9-5.4c4.1,0,8.1,3,8.1,9c0,10.4-11.9,14.3-22.4,14.3c-10.7,0-22.4-3.9-22.4-14.3
		c0-5.9,3.8-9,8.1-9c3.2,0,5.8,1.8,5.8,5.4c0,3.8-3.2,4.5-3.2,7.6c0,2.3,1.6,5.9,11.7,5.9S892.9,145.4,892.9,143.4z"/>
	<path class="st0" d="M95.8,354c-7.3,10.9-18.5,18.8-36.2,18.8c-27.8,0-42.4-19.4-42.4-45.8c0-29.4,18.4-46,44.3-46
		c14.2,0,19.2,4.9,22.5,4.9c2.2,0,3-2.2,4.6-4.9h4v30.9H88c-3-17.7-12.6-25.1-26.5-25.1c-19.4,0-30.4,14.8-30.4,38.9
		c0,27,13.2,38.6,32.3,38.6c12.4,0,21.5-4.9,29-13.1L95.8,354z"/>
	<path class="st0" d="M157.6,371.3v-4c4,0,9.3-0.3,9.3-5c0-1.9-0.5-4.3-2.3-8.4l-5.3-12.1h-34.6l-6.1,14.3c-0.8,2.2-1.5,4.2-1.5,6.6
		c0,3.8,2.7,4.6,9,4.6v4H97.8v-4c7.6,0,9.4-2.2,15.9-17.5l28.6-67.8h5.5l32,73.3c3.9,8.9,6.6,12,13.9,12v4L157.6,371.3L157.6,371.3z
		 M142.5,298.5h-0.4l-15.3,37.8h30.5L142.5,298.5z"/>
	<path class="st0" d="M276.7,371.3v-4c10.4,0,12-2.2,12-12V297h-0.5l-31.5,74.2h-3.2l-31.9-74.1h-0.5v54.4c0,13.9,2,15.7,12.3,15.7
		v4h-31.7v-4c10.9,0,12.8-1.8,12.8-15.7V299c0-10.1-1.9-12.4-12.6-12.4v-4h27.5l28.5,67.9h0.5l28.3-67.9h25.6v4
		c-9.6,0-11.7,2.3-11.7,12.3v56.3c0,9.9,2.2,12,11.9,12v4L276.7,371.3L276.7,371.3z"/>
	<path class="st0" d="M396.2,371.3v-4c10.4,0,12-2.2,12-12V297h-0.5l-31.5,74.2H373l-31.9-74.1h-0.5v54.4c0,13.9,2,15.7,12.3,15.7v4
		h-31.7v-4c10.9,0,12.8-1.8,12.8-15.7V299c0-10.1-1.9-12.4-12.6-12.4v-4h27.5l28.5,67.9h0.5l28.3-67.9h25.6v4
		c-9.6,0-11.7,2.3-11.7,12.3v56.3c0,9.9,2.2,12,11.9,12v4L396.2,371.3L396.2,371.3z"/>
	<path class="st0" d="M511.7,305.1h-0.4l-44.1,53.3c0.1,6.6,2,8.8,13.2,8.8v4h-38.9v-4c12.3,0,13.2-1.8,13.2-13.6v-53.2
		c0-10.5-0.4-13.8-13.2-13.8v-4h38.9v4c-12.8,0-13.2,3.2-13.2,13.8v48.9h0.4l44.1-53.2c-0.1-6.3-0.8-9.4-13.4-9.4v-4h38.9v4
		c-12.8,0-13.1,3.2-13.1,13.8v53.2c0,11.3,1.2,13.6,13.1,13.6v4h-38.9v-4c12.3,0,13.4-1.8,13.4-13.6V305.1z"/>
	<path class="st0" d="M618.5,306.9c-3-14.7-4.6-18.2-19.6-18.2h-8.5v64.9c0,12.3,1.8,13.6,13.4,13.6v4h-39.1v-4
		c11.3,0,13.2-1.4,13.2-13.6v-64.9h-8.6c-14.8,0-16.7,3.5-19.6,18.2h-4.2l1.5-24.3h74.7l1.1,24.3H618.5z"/>
</g>
</svg>
