<?xml version="1.0" encoding="utf-8"?>
<!-- Generator: Adobe Illustrator 28.2.0, SVG Export Plug-In . SVG Version: 6.00 Build 0)  -->
<svg version="1.1" id="Livello_1" xmlns="http://www.w3.org/2000/svg" xmlns:xlink="http://www.w3.org/1999/xlink" x="0px" y="0px"
	 viewBox="0 0 808.3 351" style="enable-background:new 0 0 808.3 351;" xml:space="preserve">
<style type="text/css">
	.st0{fill:#E2C09A;}
</style>
<g>
	<path class="st0" d="M2.4,93c8.7-2.3,9.3-2.8,13.2-12.3C25.2,57.4,34.4,34.2,44,9.5c1.4-3.7,5.5-3.4,6.8-0.2
		c9.8,24.1,19.1,46.8,29.4,71.2C84.3,90.1,85,90.7,92.6,93c2.8,0.8,2.8,5.9-2,5.7c-10.4-0.4-19.4-0.4-28.9,0
		c-3.3,0.1-4.2-4.7-0.7-5.8c8.5-2.4,8.8-5.2,6.2-12c-1.2-3-2.6-6.6-3.8-9.7c-1-2.5-2.6-3.8-5.4-3.9c-9.4-0.1-15.8-0.1-25.3,0
		c-3.7,0-5.5,1.6-6.4,4c-1.2,3.1-2.5,6-3.6,9.1c-3.2,8.3-0.9,10.4,8.5,12.3c4.2,0.9,3.4,6.1-0.9,6c-9.1-0.2-18-0.4-27.1,0
		C-0.2,98.9-1.5,94.1,2.4,93z M34.5,62.2c7.8,0.1,13.8,0.1,20.8,0c2.8,0,3.8-1.7,2.5-4.6c-1.3-3.2-7.2-17-10.8-25.7
		c-1-2.4-3.8-2.4-4.8,0c-2.3,5.9-4.2,10.5-10.4,26C30.4,60.9,32.1,62.1,34.5,62.2z"/>
	<path class="st0" d="M103.5,93c8.1-2.2,8.5-3.3,8.6-16.1c0.1-15,0.1-27.8,0-51.4c-0.1-7.3-0.9-8.6-8.6-11c-3.6-1.2-3.3-5.9,0.8-5.8
		c9.8,0.3,19.6,0.4,29.5,0c23-0.9,35.2,11,35.2,23.9c0,9.5-5.6,18.3-16.4,23c-2.3,1-2.4,2.9-0.9,5.1c10,14.7,13.7,19.2,16.8,23.5
		c4.3,6.2,6.2,7.1,11.9,8.2c4.3,0.9,3.1,5.9-0.4,5.9h-10.1c-4.9,0-7.2-0.8-10.3-5.3c-7-10.5-13.8-21.1-20.9-31
		c-1.7-2.3-4.5-3.2-8.1-3.2h-1.3c-3.5,0-4.9,1.8-5,5c-0.1,3.6-0.2,7.8-0.1,12.6c0.4,13.6,0.6,13.9,10.3,16.4
		c3.7,0.9,2.7,5.9-0.7,5.8c-11.8-0.4-19.3-0.4-29.6,0C101.1,98.9,99.5,94.1,103.5,93z M128.9,54c20.4,1.3,26.1-10.9,26.1-20.1
		c0-12.6-10.3-20.5-24.7-20c-5,0.3-6,1.9-6,6.4c-0.1,9.3-0.1,19.7,0,29.2C124.3,52.3,126,53.8,128.9,54z"/>
	<path class="st0" d="M192.3,93c8.7-2.3,9.3-2.8,13.2-12.3c9.6-23.3,18.8-46.5,28.4-71.2c1.4-3.7,5.5-3.4,6.8-0.2
		c9.8,24.1,19.1,46.8,29.4,71.2c4.1,9.6,4.8,10.2,12.3,12.5c2.8,0.8,2.8,5.9-2,5.7c-10.4-0.4-19.4-0.4-28.9,0
		c-3.3,0.1-4.2-4.7-0.7-5.8c8.5-2.4,8.8-5.2,6.2-12c-1.2-3-2.6-6.6-3.8-9.7c-1-2.5-2.6-3.8-5.4-3.9c-9.4-0.1-15.8-0.1-25.3,0
		c-3.7,0-5.5,1.6-6.4,4c-1.2,3.1-2.5,6-3.6,9.1c-3.2,8.3-0.9,10.4,8.5,12.3c4.2,0.9,3.4,6.1-0.9,6c-9.1-0.2-18-0.4-27.1,0
		C189.6,98.9,188.3,94.1,192.3,93z M224.3,62.2c7.8,0.1,13.8,0.1,20.8,0c2.8,0,3.8-1.7,2.5-4.6c-1.3-3.2-7.2-17-10.8-25.7
		c-1-2.4-3.8-2.4-4.8,0c-2.3,5.9-4.2,10.5-10.4,26C220.2,60.9,221.9,62.1,224.3,62.2z"/>
	<path class="st0" d="M294,98.8c-3.2,0-4.5-4.6-0.7-5.8c8.1-2.3,8.6-3.2,8.7-16.3c0.1-15.5,0.1-29.7,0-46.1
		c-0.1-12.9-0.1-13.2-8.7-16.1c-3.7-1.3-3.2-5.9,0.8-5.8c10.5,0.4,17.8,0.4,28.2,0c3.5-0.1,4.5,4.5,0.2,5.9c-8.2,2.7-8.3,3.1-8.3,16
		v46.1c0,15,1.5,16.5,17,16.5c16.9,0,19.9-1.7,25.4-17.2c1.2-3.5,6.3-2.9,5.8,1c-0.8,5.6-1.4,11.3-1.9,16.9c-0.4,3.8-1.6,5-5.3,5
		C335.1,98.8,314.1,98.5,294,98.8z"/>
	<path class="st0" d="M3.7,214.9c8.1-2.1,9-2.9,10.1-16c1.1-12.4,2.2-24.8,3.2-36.4c0.5-5.3,0.9-10.4,1.3-15.2
		c0.5-7.3-0.8-8.7-8.1-10.9c-3.2-1-3.3-6,1.5-5.8c4.6,0.2,8.6,0.4,12.7,0.2c3.7-0.1,5.3,1.2,6.3,3.8c7.9,22,17,43.9,25.1,63.7
		c1.2,2.8,3.8,2.8,5,0c4.9-11.8,10-24.1,15.2-36.7c3.7-9.1,7.4-18.4,11.1-27.7c0.9-2.3,2.3-3.3,5.3-3.2c4.5,0.1,8.3,0,13.6-0.2
		c3.8-0.1,4.3,4.8,0.6,5.9c-7.3,2.1-8.3,4.2-7.8,10.1c1,15.4,2.6,33.7,4.3,52.1c1.1,13,1.9,13.9,10,16c4,1,2.7,5.9-0.5,5.8
		c-9.3-0.4-18.4-0.2-27.8,0c-4.1,0.1-4.8-5.1-0.8-6c8.1-1.8,8.3-2.7,7.3-15.7c-0.9-11.3-1.9-22.5-3.1-34.1c-0.4-3.7-4.2-3.8-5.5-0.9
		c-5.3,12.3-10.5,24.4-15.8,36.7c-2.6,6.2-5.3,12.4-7.9,18.8c-1.6,3.7-6,3.7-7.4,0c-7.3-18.9-14.6-37.4-22.8-57.4
		c-1.2-2.7-4.5-2.4-4.9,0.7c-1.4,13.4-2.4,24.8-3.3,36.4c-1,13.1-0.9,13.9,7.2,15.8c4,0.9,3.3,6.3-0.8,6c-7.6-0.5-15.1-0.2-22.7,0
		C1,220.8-0.2,215.9,3.7,214.9z"/>
	<path class="st0" d="M124.4,215c8.7-2.3,9.3-2.8,13.2-12.3c9.6-23.3,18.8-46.5,28.4-71.2c1.4-3.7,5.5-3.4,6.8-0.2
		c9.8,24.1,19.1,46.8,29.4,71.2c4.1,9.6,4.8,10.2,12.3,12.5c2.8,0.8,2.8,5.9-2,5.7c-10.4-0.4-19.4-0.4-28.9,0
		c-3.3,0.1-4.2-4.7-0.7-5.8c8.5-2.4,8.8-5.2,6.2-12c-1.2-3-2.6-6.6-3.8-9.7c-1-2.5-2.6-3.8-5.4-3.9c-9.4-0.1-15.8-0.1-25.3,0
		c-3.7,0-5.5,1.6-6.4,4c-1.2,3.1-2.5,6-3.6,9.1c-3.2,8.3-0.9,10.4,8.5,12.3c4.2,0.9,3.4,6.1-0.9,6c-9.1-0.2-18-0.4-27.1,0
		C121.7,220.9,120.4,216.1,124.4,215z M156.4,184.2c7.8,0.1,13.8,0.1,20.8,0c2.8,0,3.8-1.7,2.5-4.6c-1.3-3.2-7.2-17-10.8-25.7
		c-1-2.4-3.8-2.4-4.8,0c-2.3,5.9-4.2,10.5-10.4,26C152.4,182.9,154,184.1,156.4,184.2z M182.1,102.2c5.8-6.3,15.7,3.8,6.7,9.3
		c-5.6,3.5-11.4,7.3-17.1,10.8c-3.8,2.4-7.5-1.5-3.9-5.1C172.7,112.3,177.3,107.5,182.1,102.2z"/>
	<path class="st0" d="M225.5,215c8.1-2.3,8.5-3.2,8.6-16.1c0.1-15,0.2-29.6,0.1-46.5c-0.1-12.8-0.2-12.9-8.7-15.9
		c-3.8-1.4-3.1-6,1-5.8c7.6,0.4,18.7,0.4,31.1,0c34.2-0.9,57.4,16,57.4,45.5c0,28.3-21.4,45.5-54.8,44.4
		c-14.6-0.4-25.6-0.2-33.9,0.1C222.9,220.9,221.6,216.2,225.5,215z M246.4,198.9c0.1,12.5,2.6,16.1,17.4,16.1
		c21.4,0,36.5-14.5,36.8-39.2c0.2-27.9-17.7-39.8-43.9-39.8c-10,0-10.4,0.5-10.4,6.4C246.1,165.1,246.2,180.7,246.4,198.9z"/>
	<path class="st0" d="M379,220.8c-5.8-0.1-11.5-0.2-16.8-0.2c-15.5-0.1-28.1,0-33.8,0.2c-3.2,0.1-4.8-4.6-0.8-5.8
		c8.1-2.4,8.3-2.7,8.6-16.4c0.2-15.8,0.2-31,0-51.1c-0.1-7.5-1-8.6-8.6-11c-3.7-1.3-3.2-5.9,0.9-5.8c12.6,0.2,23.7,0.3,34.7,0.3
		c6.2,0,12.4-0.1,18.8-0.2c2.7,0,5.4-0.1,8.1-0.2c4.1-0.1,5.6,1.1,5.9,5.4c0.4,5,1,10.8,1.9,17c0.5,4.4-4.8,4.8-6,1.2
		c-5.9-16.9-9.2-17.9-18.9-18.1c-6-0.1-11.8-0.1-19.9,0c-3.4,0-4.7,1.5-4.7,4.8c-0.1,12.2-0.1,19.2,0,26.9c0,2.9,1.5,4.6,5.1,4.6
		h6.5c9.7,0,12-1.3,15.4-10c1.4-3.7,6.4-3,6,1.3c-0.9,9.8-1.2,12.9,0,22.7c0.5,4.1-4.6,4.9-6,1.2c-3.3-8.7-5.6-9.8-15.4-9.8h-6.5
		c-3.6,0-5.1,1.9-5.1,5.4c-0.1,4.3-0.1,8.7,0,15.5c0.2,14.3,2.3,16.6,19.6,16.9c1,0,2.1,0,3.3,0c13.8,0,17.2-1.6,22.8-17.4
		c1.3-3.6,6.3-2.9,5.8,1.2c-0.8,5.6-1.4,11.1-1.9,16.8c-0.2,3.4-1.5,5.1-5.3,5C388.1,220.9,383.5,220.8,379,220.8z"/>
	<path class="st0" d="M414.2,214.9c8.1-2.1,8.5-2.9,8.6-16c0.2-15.6,0.2-31.2,0.1-45.1l-0.1-6.4c-0.1-7.4-1.6-9.1-8.6-11
		c-3.6-1-3.2-5.9,0.8-5.8c6.3,0.1,10.6,0.4,15.2,0.2c2.8-0.1,3.5,0.3,5,2.3c15.5,20,31.6,41,48.5,61.5c2.2,2.6,4.9,1.4,4.9-1.8
		c0.1-13.6,0.1-26.6,0-40.2c-0.1-13.1-0.7-13.9-8.7-15.8c-4-0.9-3.3-6.1,0.8-6c10.4,0.4,12.3,0.4,22.7,0c3.2-0.1,4.5,4.7,0.5,5.8
		c-8.1,2.1-8.4,2.9-8.6,16c-0.2,13.2-0.2,26.7-0.2,40.1c0,7.9,0.1,15.7,0.2,23.5c0.1,5.6-5.9,6.7-8.7,2.8
		c-16.3-21.8-34-44.4-52.1-66.1c-2.3-2.8-5-1.8-5,1.6c-0.1,15.1-0.1,29.2,0,44.3c0.1,13.1,0.6,13.9,8.7,15.8c4,0.9,3.3,6.1-0.8,6
		c-10.5-0.4-12.3-0.4-22.7,0C411.5,220.8,410.2,215.9,414.2,214.9z"/>
	<path class="st0" d="M516.6,215c8.1-2.4,8.3-2.7,8.6-16.4c0.2-15.8,0.2-31,0-51.1c-0.1-7.5-1-8.6-8.6-11c-3.7-1.3-3.2-5.9,0.9-5.8
		c9.2,0.3,18.4,0.3,27.7,0c4.1-0.1,4.6,4.5,0.9,5.8c-7.5,2.4-8.4,3.5-8.6,11c-0.2,20.1-0.2,35.4,0,51.1c0.2,13.7,0.5,13.9,8.6,16.4
		c4,1.2,2.4,5.9-0.8,5.8c-9.3-0.2-18.6-0.2-27.9,0C514.1,220.9,512.6,216.2,516.6,215z"/>
	<path class="st0" d="M581.8,214.9c9.3-2.2,9.8-3.1,9.8-16.1v-9.3c0-3.8-0.5-6.3-2.4-9.8c-5.9-10.8-12-21.3-18.4-31.5
		c-5.4-8.6-7.2-10-13.8-11.8c-2.7-0.8-2.9-5.9,1.9-5.6c9.2,0.4,17.8,0.4,29.1,0c3.3-0.1,4.1,4.8,0.7,5.8c-7.4,1.9-7.8,3.8-3.5,12
		c4.2,7.9,8.7,15.5,12.8,22c1.7,2.5,4.5,2.7,6.3-0.3c4.1-6.5,8.6-14.2,12.6-21.8c4.6-8.7,3.8-9.3-3.6-11.9c-3.6-1.3-2.8-5.8,0.7-5.8
		c7.5,0.1,14.9,0.1,22.4,0c4.2-0.1,4.6,4.6,0.8,5.8c-6.5,1.9-7.9,3.1-14.4,14.2c-5.5,9.3-11.1,18.8-16.5,28.3
		c-1.8,3.2-2.3,5.5-2.3,7.9v11.7c0,13,0.6,13.9,10,15.9c3.9,0.8,3.3,6-0.8,5.9c-10.6-0.2-20.1-0.4-30.7,0
		C579.1,220.6,577.8,215.8,581.8,214.9z"/>
	<path class="st0" d="M633.5,215c8.7-2.3,9.3-2.8,13.2-12.3c9.6-23.3,18.8-46.5,28.4-71.2c1.4-3.7,5.5-3.4,6.8-0.2
		c9.8,24.1,19.1,46.8,29.4,71.2c4.1,9.6,4.8,10.2,12.3,12.5c2.8,0.8,2.8,5.9-2,5.7c-10.4-0.4-19.4-0.4-28.9,0
		c-3.3,0.1-4.2-4.7-0.7-5.8c8.5-2.4,8.8-5.2,6.2-12c-1.2-3-2.6-6.6-3.8-9.7c-1-2.5-2.6-3.8-5.4-3.9c-9.4-0.1-15.8-0.1-25.3,0
		c-3.7,0-5.5,1.6-6.4,4c-1.2,3.1-2.5,6-3.6,9.1c-3.2,8.3-0.9,10.4,8.5,12.3c4.2,0.9,3.4,6.1-0.9,6c-9.1-0.2-18-0.4-27.1,0
		C630.8,220.9,629.5,216.1,633.5,215z M665.5,184.2c7.8,0.1,13.8,0.1,20.8,0c2.8,0,3.8-1.7,2.5-4.6c-1.3-3.2-7.2-17-10.8-25.7
		c-1-2.4-3.8-2.4-4.8,0c-2.3,5.9-4.2,10.5-10.4,26C661.5,182.9,663.1,184.1,665.5,184.2z"/>
	<path class="st0" d="M745.3,215c9.6-2.6,9.9-3.1,10-16.1c0.1-15.4,0.1-30.5,0-45.9c-0.1-15-1-16.9-12.9-16.7
		c-8.3,0.1-12.7,3.1-17.4,17.8c-1.3,3.9-6.8,3.1-6.1-1.6c0.8-5.3,1.5-11.4,1.9-17.3c0.2-3.1,1.7-4.6,6-4.5c31.3,0.6,38,0.6,69,0
		c4.2-0.1,5.9,1.2,6.2,4.8c0.4,5.7,1.2,12.2,1.8,17.2c0.6,4.5-4.7,5-5.9,1.6c-5.5-15.2-9.4-17.9-17.2-18c-11.9-0.2-13.1,1-13.2,16.6
		c-0.1,15.4-0.1,30.5,0,45.9c0.1,12.8,0.5,13.6,10.1,16.1c4,1,2.7,5.9-0.5,5.8c-10.6-0.4-20.5-0.4-31,0
		C742.2,220.9,741.5,216.1,745.3,215z"/>
	<path class="st0" d="M10.9,339.6c-4.3-2.4-4.8-3.2-4.5-8.2c0.1-3.2,0.3-7.9,0.1-13.4c-0.1-4.3,5.7-4.8,6.3-0.9
		c2.4,15,9.9,21.8,21.2,21.8c10.7,0,17.4-5.9,17.4-14.1c0-8.8-7.2-15.3-20.2-21.8c-16-7.9-23.7-16-23.7-28.2
		c0-14.5,11-23.8,30.1-23.8c7.4,0,13.8,1.4,17.7,3c4,1.7,5,3.3,4.8,6.8c-0.1,4.2-0.2,9.7-0.1,15c0.1,4.2-5.4,4.7-6.3,0.9
		c-3-14.3-7.9-19.7-17.8-19.7c-9.5,0-16.1,4.7-16.1,13.6c0,9.6,6.7,16,19.5,22.4c18.9,9.5,24.2,17,24.2,27.1
		c0,14.6-11.1,24.4-30.4,24.4C23.5,344.4,15,341.9,10.9,339.6z"/>
	<path class="st0" d="M74.3,337c8.7-2.3,9.3-2.8,13.2-12.3c9.6-23.3,18.8-46.5,28.4-71.2c1.4-3.7,5.5-3.4,6.8-0.2
		c9.8,24.1,19.1,46.8,29.4,71.2c4.1,9.6,4.8,10.2,12.3,12.5c2.8,0.8,2.8,5.9-2,5.7c-10.4-0.4-19.4-0.4-28.9,0
		c-3.3,0.1-4.2-4.7-0.7-5.8c8.5-2.4,8.8-5.2,6.2-12c-1.2-3-2.6-6.6-3.8-9.7c-1-2.5-2.6-3.8-5.4-3.9c-9.4-0.1-15.8-0.1-25.3,0
		c-3.7,0-5.5,1.6-6.4,4c-1.2,3.1-2.5,6-3.6,9.1c-3.2,8.3-0.9,10.4,8.5,12.3c4.2,0.9,3.4,6.1-0.9,6c-9.1-0.2-18-0.4-27.1,0
		C71.6,342.9,70.4,338.1,74.3,337z M106.3,306.2c7.8,0.1,13.8,0.1,20.8,0c2.8,0,3.8-1.7,2.5-4.6c-1.3-3.2-7.2-17-10.8-25.7
		c-1-2.4-3.8-2.4-4.8,0c-2.3,5.9-4.2,10.5-10.4,26C102.3,304.9,103.9,306.1,106.3,306.2z"/>
	<path class="st0" d="M175.4,336.9c8.1-2.1,9-2.9,10.1-16c1.1-12.4,2.2-24.8,3.2-36.4c0.5-5.3,0.9-10.4,1.3-15.2
		c0.5-7.3-0.8-8.7-8.1-10.9c-3.2-1-3.3-6,1.5-5.8c4.6,0.2,8.6,0.4,12.7,0.2c3.7-0.1,5.3,1.2,6.3,3.8c7.9,22,17,43.9,25.1,63.8
		c1.2,2.8,3.8,2.8,5,0c4.9-11.8,10-24.1,15.2-36.7c3.7-9.1,7.4-18.4,11.1-27.7c0.9-2.3,2.3-3.3,5.3-3.2c4.5,0.1,8.3,0,13.6-0.2
		c3.8-0.1,4.3,4.8,0.6,5.9c-7.3,2.1-8.3,4.2-7.8,10.1c1,15.4,2.6,33.7,4.3,52.1c1.1,13,1.9,13.9,10,16c4,1,2.7,5.9-0.5,5.8
		c-9.3-0.4-18.4-0.2-27.8,0c-4.1,0.1-4.8-5.1-0.8-6c8.1-1.8,8.3-2.7,7.3-15.7c-0.9-11.3-1.9-22.5-3.1-34.1c-0.4-3.7-4.2-3.8-5.5-0.9
		c-5.3,12.3-10.5,24.4-15.8,36.7c-2.6,6.2-5.3,12.4-7.9,18.8c-1.6,3.7-6,3.7-7.4,0c-7.3-18.9-14.6-37.4-22.8-57.4
		c-1.2-2.7-4.5-2.4-4.9,0.7c-1.4,13.4-2.4,24.8-3.3,36.4c-1,13.1-0.9,13.9,7.2,15.8c4,0.9,3.3,6.3-0.8,6c-7.6-0.5-15.1-0.2-22.7,0
		C172.7,342.8,171.4,337.9,175.4,336.9z"/>
	<path class="st0" d="M295.9,336.9c8.1-2.1,9-2.9,10.1-16c1.1-12.4,2.2-24.8,3.2-36.4c0.5-5.3,0.9-10.4,1.3-15.2
		c0.5-7.3-0.8-8.7-8.1-10.9c-3.2-1-3.3-6,1.5-5.8c4.6,0.2,8.6,0.4,12.7,0.2c3.7-0.1,5.3,1.2,6.3,3.8c7.9,22,17,43.9,25.1,63.8
		c1.2,2.8,3.8,2.8,5,0c4.9-11.8,10-24.1,15.2-36.7c3.7-9.1,7.4-18.4,11.1-27.7c0.9-2.3,2.3-3.3,5.3-3.2c4.5,0.1,8.3,0,13.6-0.2
		c3.8-0.1,4.3,4.8,0.6,5.9c-7.3,2.1-8.3,4.2-7.8,10.1c1,15.4,2.6,33.7,4.3,52.1c1.1,13,1.9,13.9,10,16c4,1,2.7,5.9-0.5,5.8
		c-9.3-0.4-18.4-0.2-27.8,0c-4.1,0.1-4.8-5.1-0.8-6c8.1-1.8,8.3-2.7,7.3-15.7c-0.9-11.3-1.9-22.5-3.1-34.1c-0.4-3.7-4.2-3.8-5.5-0.9
		c-5.3,12.3-10.5,24.4-15.8,36.7c-2.6,6.2-5.3,12.4-7.9,18.8c-1.6,3.7-6,3.7-7.4,0c-7.3-18.9-14.6-37.4-22.8-57.4
		c-1.2-2.7-4.5-2.4-4.9,0.7c-1.4,13.4-2.4,24.8-3.3,36.4c-1,13.1-0.9,13.9,7.2,15.8c4,0.9,3.3,6.3-0.8,6c-7.6-0.5-15.1-0.2-22.7,0
		C293.2,342.8,291.9,337.9,295.9,336.9z"/>
	<path class="st0" d="M417.8,337c8.1-2.4,8.3-2.7,8.6-16.4c0.2-15.8,0.2-31,0-51.1c-0.1-7.5-1-8.6-8.6-11c-3.7-1.3-3.2-5.9,0.9-5.8
		c9.2,0.3,18.4,0.3,27.7,0c4.1-0.1,4.6,4.5,0.9,5.8c-7.5,2.4-8.4,3.5-8.6,11c-0.2,20.1-0.2,35.4,0,51.1c0.2,13.7,0.5,13.9,8.6,16.4
		c4,1.2,2.4,5.9-0.8,5.8c-9.3-0.2-18.6-0.2-27.9,0C415.4,342.9,413.8,338.2,417.8,337z"/>
	<path class="st0" d="M485.3,337c9.6-2.6,9.9-3.1,10-16.1c0.1-15.4,0.1-30.5,0-45.9c-0.1-15-1-16.9-12.9-16.7
		c-8.3,0.1-12.7,3.1-17.4,17.8c-1.3,3.9-6.8,3.1-6.1-1.6c0.8-5.3,1.5-11.4,1.9-17.3c0.2-3.1,1.7-4.6,6-4.5c31.3,0.6,38,0.6,69,0
		c4.2-0.1,5.9,1.2,6.2,4.8c0.4,5.7,1.2,12.2,1.8,17.2c0.6,4.5-4.7,5-5.9,1.6c-5.5-15.2-9.4-17.9-17.2-18c-11.9-0.2-13.1,1-13.2,16.6
		c-0.1,15.4-0.1,30.5,0,45.9c0.1,12.8,0.5,13.6,10.1,16.1c4,1,2.7,5.9-0.5,5.8c-10.6-0.4-20.5-0.4-31,0
		C482.3,342.9,481.6,338.1,485.3,337z"/>
	<path class="st0" d="M555.4,337c8.1-2.4,8.3-2.7,8.6-16.4c0.2-15.8,0.2-31,0-51.1c-0.1-7.5-1-8.6-8.6-11c-3.7-1.3-3.2-5.9,0.9-5.8
		c9.2,0.3,18.4,0.3,27.7,0c4.1-0.1,4.6,4.5,0.9,5.8c-7.5,2.4-8.4,3.5-8.6,11c-0.2,20.1-0.2,35.4,0,51.1c0.2,13.7,0.5,13.9,8.6,16.4
		c4,1.2,2.4,5.9-0.8,5.8c-9.3-0.2-18.6-0.2-27.9,0C552.9,342.9,551.4,338.2,555.4,337z M582.7,224.2c5.8-6.3,15.7,3.8,6.7,9.3
		c-5.6,3.5-11.4,7.3-17.1,10.8c-3.8,2.4-7.5-1.5-3.9-5.1C573.3,234.3,577.9,229.5,582.7,224.2z"/>
</g>
</svg>
