<?xml version="1.0" encoding="utf-8"?>
<!-- Generator: Adobe Illustrator 27.0.0, SVG Export Plug-In . SVG Version: 6.00 Build 0)  -->
<svg version="1.1" id="Layer_2" xmlns="http://www.w3.org/2000/svg" xmlns:xlink="http://www.w3.org/1999/xlink" x="0px" y="0px"
	 viewBox="0 0 982.03 605.88" style="enable-background:new 0 0 982.03 605.88;" xml:space="preserve">
<style type="text/css">
	.st0{fill:#0A0A0A;}
</style>
<g>
	<g>
		<g>
			<g>
				<g>
					<path class="st0" d="M209.73,605.88c0,0-209.73-46.61-209.73-264.2C0,149.86,0,0,0,0h46.61c0,0,0,149.86,0,341.68
						C46.61,559.28,209.73,605.88,209.73,605.88z"/>
					<path class="st0" d="M209.74,456.6c9.62,0,17.8-10.27,26.76-17.55c29.83-24.21,43.14-54.24,43.14-97.36V0.01h46.61v341.68
						C326.25,341.69,326.27,456.6,209.74,456.6z"/>
				</g>
			</g>
		</g>
	</g>
	<g>
		<g>
			<g>
				<g>
					<path class="st0" d="M538.28,64.75c2.3,0.96,4.5,1.92,6.7,3.07v0.38h-24.33v-0.38c2.2-1.15,4.31-2.11,6.7-3.07l-4.02-50.48
						h-0.1l-20.69,52.97h-2.49l-20.11-53.83h-0.1l-4.02,49.81c2.78,1.34,5.94,3.06,8.43,4.6v0.38h-18.29v-0.38
						c2.3-1.44,5.36-3.16,7.95-4.6l4.41-52.58c-2.87-1.05-5.46-2.2-8.05-3.54V6.72h18.58l17.24,46.64l18.2-46.64h16.09V7.1
						c-2.2,1.15-4.5,2.2-6.9,3.16L538.28,64.75z"/>
					<path class="st0" d="M590.87,64.94c-2.11,2.97-4.79,4.21-8.33,4.21c-4.6,0-7.95-2.2-8.72-6.42c-3.06,3.64-7.57,6.42-13.5,6.42
						c-7.09,0-11.78-3.93-11.78-10.34c0-7.95,7.38-13.03,24.9-14.37v-7.28c0-8.33-2.78-11.88-6.9-11.88c-1.53,0-2.68,0.38-4.02,1.25
						l-9.48,13.79h-0.57c-0.57-4.6-0.96-8.62-1.25-13.22c5.08-2.11,10.63-3.16,15.52-3.16c12.36,0,17.14,6.51,17.14,15.32v21.55
						c0,3.26,1.53,4.6,3.54,4.6c0.96,0,2.11-0.29,3.26-0.77L590.87,64.94z M573.43,60.82V45.97c-10.44,1.15-14.27,5.94-14.27,12.07
						c0,5.08,2.49,7.47,5.84,7.47C567.78,65.51,570.66,63.98,573.43,60.82z"/>
					<path class="st0" d="M641.05,66.66v1.53h-16.76v-4.88c-3.64,3.74-8.05,5.84-13.22,5.84c-9.58,0-17.34-7.38-17.34-21.46
						c0-16.38,10.15-23.75,22.22-23.75c3.06,0,5.56,0.48,8.33,1.63V8.52l-6.13-2.59V5.45c4.79-1.82,10.92-3.45,16.57-4.5v65.71
						H641.05z M624.29,61.2V29.31c-2.39-2.68-4.88-3.83-8.05-3.83c-7.18,0-11.4,6.23-11.4,20.59c0,14.46,4.31,19.73,10.54,19.73
						C618.83,65.8,621.51,64.36,624.29,61.2z"/>
					<path class="st0" d="M680.61,66.66h6.13v1.53h-16.57v-4.98c-3.06,3.45-7.38,5.94-13.12,5.94c-7.09,0-11.78-3.93-11.78-10.34
						c0-7.95,7.38-13.03,24.9-14.37v-7.28c0-8.33-2.78-11.88-6.9-11.88c-1.53,0-2.68,0.38-4.02,1.25l-9.48,13.79h-0.57
						c-0.57-4.6-0.96-8.62-1.25-13.22c5.08-2.11,10.63-3.16,15.52-3.16c12.36,0,17.14,6.51,17.14,15.32V66.66z M670.17,60.82V45.97
						c-10.44,1.15-14.27,5.94-14.27,12.07c0,5.08,2.49,7.47,5.84,7.47C664.52,65.51,667.39,63.98,670.17,60.82z"/>
					<path class="st0" d="M733.19,65.03c2.2,0.86,4.02,1.72,6.03,2.78v0.38H716.9v-0.38c1.92-1.05,3.74-1.92,5.84-2.78v-27.3
						c0-6.51-2.49-10.54-8.43-10.54c-3.26,0-6.03,1.34-9,4.41v33.43c2.2,0.86,3.93,1.72,5.84,2.78v0.38h-22.32v-0.38
						c1.92-1.05,3.83-1.92,6.03-2.78v-38.6h-6.03V24.9h16.47v4.79c3.83-3.74,8.81-5.84,13.98-5.84c9.19,0,13.89,6.13,13.89,14.65
						v26.53H733.19z"/>
					<path class="st0" d="M764.51,67.81v0.38h-22.32v-0.38c1.92-1.05,3.83-1.92,6.03-2.78v-38.6h-5.84V24.9h16.28v40.13
						C760.88,65.9,762.6,66.76,764.51,67.81z M746.89,8.43c0-3.83,2.68-6.61,6.51-6.61c3.93,0,6.61,2.78,6.61,6.61
						c0,3.74-2.68,6.51-6.61,6.51C749.57,14.94,746.89,12.16,746.89,8.43z"/>
					<path class="st0" d="M814.23,24.9v1.53h-5.36L782.91,88.5l-2.68-1.05v-0.29c3.64-6.32,6.23-11.49,9.1-18.29l-18.96-42.43h-4.69
						v-1.53h23.18v1.53h-7.09l12.45,30.75l12.64-30.75h-6.51v-1.53h13.88V24.9z"/>
					<path class="st0" d="M850.24,66.66h6.13v1.53H839.8v-5.08c-3.45,3.93-8.05,6.03-13.12,6.03c-7.18,0-11.78-4.02-11.78-10.34
						c0-8.33,8.14-13.03,24.9-14.37V36.1c0-6.61-3.16-10.54-9.39-10.54c-4.41,0-8.33,1.44-12.74,5.08h-0.38l-0.19-3.06
						c4.79-2.49,9.48-3.64,14.46-3.64c12.93,0,18.68,5.17,18.68,15.32L850.24,66.66L850.24,66.66z M839.8,60.82V45.97
						c-9.58,1.05-14.27,5.17-14.27,12.07c0,4.79,2.3,7.47,5.94,7.47C834.24,65.51,837.02,63.98,839.8,60.82z"/>
					<path class="st0" d="M887.78,63.69c-1.92,2.97-5.65,5.46-11.3,5.46c-7.66,0-12.45-4.12-12.45-12.45V26.53h-6.51v-0.57l7.28-2.3
						c2.59-4.02,5.65-8.52,9.1-13.31h0.48v14.56h13.03v1.63h-13.03v31.13c0,5.27,2.68,7.85,6.99,7.85c2.11,0,4.41-0.96,5.84-2.39
						L887.78,63.69z"/>
					<path class="st0" d="M498.63,126.49h14.56v0.38c-1.82,1.53-4.5,3.54-6.7,4.88l-15.61,38.5h-2.78l-18.29-40.8
						c-1.63-0.86-3.06-1.63-4.31-2.59v-0.38h22.03v0.38c-2.11,1.15-3.93,2.01-6.32,2.97l12.36,29.12l11.01-27.2
						c-2.3-1.63-4.02-3.16-5.94-4.88v-0.38H498.63z"/>
					<path class="st0" d="M556.86,166.52c-2.11,2.97-4.79,4.21-8.33,4.21c-4.6,0-7.95-2.2-8.72-6.42c-3.06,3.64-7.57,6.42-13.5,6.42
						c-7.09,0-11.78-3.93-11.78-10.34c0-7.95,7.38-13.03,24.9-14.37v-7.27c0-8.33-2.78-11.88-6.9-11.88c-1.53,0-2.68,0.38-4.02,1.25
						l-9.48,13.79h-0.57c-0.57-4.6-0.96-8.62-1.25-13.22c5.08-2.11,10.63-3.16,15.52-3.16c12.36,0,17.14,6.51,17.14,15.32v21.55
						c0,3.26,1.53,4.6,3.54,4.6c0.96,0,2.11-0.29,3.26-0.77L556.86,166.52z M539.43,162.4v-14.85
						c-10.44,1.15-14.27,5.94-14.27,12.07c0,5.08,2.49,7.47,5.84,7.47C533.78,167.1,536.65,165.57,539.43,162.4z"/>
					<path class="st0" d="M580.04,167.48c0.29-3.83,0.77-8.43,1.25-12.16h0.48l8.33,12.74c1.72,0.86,3.26,1.34,5.17,1.34
						c5.08,0,8.24-2.87,8.24-7.57c0-12.36-22.89-9.1-22.89-23.66c0-8.91,8.24-12.64,17.62-12.64c5.17,0,9.96,1.25,13.6,3.16
						c-0.29,3.83-0.77,7.95-1.15,11.69h-0.48l-8.33-12.16c-1.82-1.05-2.87-1.34-4.41-1.34c-4.98,0-7.66,2.49-7.66,6.61
						c0,12.07,22.89,9,22.89,24.42c0,9.48-8.72,12.83-18.29,12.83C590,170.74,583.87,169.88,580.04,167.48z"/>
					<path class="st0" d="M654.46,168.25h6.13v1.53h-16.57v-4.98c-3.06,3.45-7.38,5.94-13.12,5.94c-7.09,0-11.78-3.93-11.78-10.34
						c0-7.95,7.38-13.03,24.9-14.37v-7.28c0-8.33-2.78-11.88-6.9-11.88c-1.53,0-2.68,0.38-4.02,1.25l-9.48,13.79h-0.57
						c-0.57-4.6-0.96-8.62-1.25-13.22c5.08-2.11,10.63-3.16,15.52-3.16c12.36,0,17.14,6.51,17.14,15.32V168.25z M644.02,162.4
						v-14.85c-10.44,1.15-14.27,5.94-14.27,12.07c0,5.08,2.49,7.47,5.84,7.47C638.37,167.1,641.25,165.57,644.02,162.4z"/>
					<path class="st0" d="M707.14,168.25h5.84v1.53h-22.32v-1.53h6.03v-28.93c0-6.51-2.59-10.54-8.43-10.54
						c-3.35,0-6.13,1.34-9,4.41v35.06h5.75v1.53h-22.32v-1.53h6.13v-34.67l-6.13-2.97v-0.38c4.88-1.92,10.63-3.54,16.28-4.6
						l-0.77,6.7c3.83-4.41,9.29-6.9,14.94-6.9c9.29,0,13.98,6.13,13.98,14.65v28.17H707.14z"/>
					<path class="st0" d="M714.04,128.88c7.57-5.65,8.81-11.69,5.94-18.58l-2.97-7.09c1.63-1.82,3.35-2.78,5.94-2.78
						c4.02,0,6.32,2.87,6.32,7.66c0,7.57-5.84,17.14-14.85,21.45L714.04,128.88z"/>
					<path class="st0" d="M774,166.52c-2.11,2.97-4.79,4.21-8.33,4.21c-4.6,0-7.95-2.2-8.72-6.42c-3.06,3.64-7.57,6.42-13.5,6.42
						c-7.09,0-11.78-3.93-11.78-10.34c0-7.95,7.38-13.03,24.9-14.37v-7.27c0-8.33-2.78-11.88-6.9-11.88c-1.53,0-2.68,0.38-4.02,1.25
						l-9.48,13.79h-0.57c-0.57-4.6-0.96-8.62-1.25-13.22c5.08-2.11,10.63-3.16,15.52-3.16c12.36,0,17.14,6.51,17.14,15.32v21.55
						c0,3.26,1.53,4.6,3.54,4.6c0.96,0,2.11-0.29,3.26-0.77L774,166.52z M756.56,162.4v-14.85c-10.44,1.15-14.27,5.94-14.27,12.07
						c0,5.08,2.49,7.47,5.84,7.47C750.91,167.1,753.79,165.57,756.56,162.4z"/>
					<path class="st0" d="M804.84,165.28c-1.92,2.97-5.65,5.46-11.3,5.46c-7.66,0-12.45-4.12-12.45-12.45v-30.17h-6.51v-0.57
						l7.28-2.3c2.59-4.02,5.65-8.52,9.1-13.31h0.48v14.56h13.03v1.63h-13.03v31.13c0,5.27,2.68,7.85,6.99,7.85
						c2.11,0,4.41-0.96,5.84-2.39L804.84,165.28z"/>
					<path class="st0" d="M851.1,166.62c2.2,0.86,4.02,1.72,5.94,2.78v0.38h-22.32v-0.38c1.92-1.05,3.74-1.92,5.94-2.78v-27.3
						c0-6.51-2.59-10.54-8.43-10.54c-3.35,0-6.13,1.34-9,4.41v33.43c2.11,0.86,3.83,1.72,5.75,2.78v0.38h-22.32v-0.38
						c2.01-1.05,3.83-1.92,6.13-2.78v-33.04l-6.13-2.97v-0.38c4.88-1.92,10.63-3.54,16.28-4.6l-0.77,6.7
						c3.83-4.41,9.29-6.9,14.94-6.9c9.29,0,13.98,6.13,13.98,14.65v26.54H851.1z"/>
					<path class="st0" d="M882.42,168.25v1.53H860.1v-1.53h5.94v-34.48l-6.03-2.97v-0.48c4.79-1.82,10.82-3.45,16.47-4.5v42.43
						L882.42,168.25L882.42,168.25z M864.7,110.01c0-3.83,2.68-6.61,6.61-6.61s6.61,2.78,6.61,6.61c0,3.74-2.68,6.51-6.61,6.51
						S864.7,113.75,864.7,110.01z"/>
					<path class="st0" d="M501.89,227.98c-0.19,4.98-0.67,10.15-1.34,14.56h-0.48l-7.95-11.59c-0.19-0.1-0.67-0.19-1.15-0.19
						c-1.82,0-4.6,1.72-6.8,4.31v33.14c2.68,0.86,4.98,1.72,7.47,2.78v0.38H467.6v-0.38c2.01-1.05,3.93-1.92,6.13-2.78v-33.04
						l-6.03-2.87v-0.38c4.88-1.92,10.63-3.64,16.28-4.6l-0.67,6.51c2.97-3.45,7.09-6.8,13.22-6.8
						C498.25,227.02,499.97,227.31,501.89,227.98z"/>
					<path class="st0" d="M527.46,270.98v0.38h-22.32v-0.38c2.01-1.05,3.83-1.92,6.03-2.78v-32.85l-6.03-2.97v-0.48
						c4.79-1.82,10.82-3.45,16.47-4.5v40.8C523.82,269.06,525.54,269.93,527.46,270.98z M509.83,211.6c0-3.83,2.68-6.61,6.61-6.61
						s6.61,2.78,6.61,6.61c0,3.74-2.68,6.51-6.61,6.51S509.83,215.33,509.83,211.6z"/>
					<path class="st0" d="M561.27,228.07h14.56v0.38c-1.82,1.53-4.5,3.54-6.7,4.88l-15.61,38.5h-2.78l-18.29-40.8
						c-1.63-0.86-3.06-1.63-4.31-2.59v-0.38h22.03v0.38c-2.11,1.15-3.93,2.01-6.32,2.97l12.36,29.12l11.01-27.2
						c-2.3-1.63-4.02-3.16-5.94-4.88v-0.38H561.27z"/>
					<path class="st0" d="M575.44,249.72c0-13.22,9.19-22.6,21.93-22.6s21.93,9.39,21.93,22.6c0,13.31-9.19,22.6-21.93,22.6
						S575.44,263.03,575.44,249.72z M607.91,249.72c0-14.56-3.35-21.17-10.54-21.17s-10.54,6.61-10.54,21.17
						c0,14.65,3.35,21.17,10.54,21.17S607.91,264.28,607.91,249.72z"/>
					<path class="st0" d="M623.53,232.38v-0.48c4.79-1.82,10.82-3.45,16.47-4.5v44.44c0,13.31-8.33,18.1-18.68,19.06l-0.19-0.86
						c5.84-1.05,8.43-4.12,8.43-13.31v-41.38L623.53,232.38z M628.12,211.6c0-3.83,2.68-6.61,6.61-6.61s6.61,2.78,6.61,6.61
						c0,3.74-2.68,6.51-6.61,6.51C630.8,218.11,628.12,215.33,628.12,211.6z"/>
					<path class="st0" d="M671.8,270.98v0.38h-22.41v-0.38c2.01-1.05,3.83-1.92,6.03-2.78v-56.22l-6.03-2.87v-0.48
						c4.79-1.82,10.73-3.45,16.47-4.5v64.08C668.06,269.06,669.88,269.93,671.8,270.98z"/>
					<path class="st0" d="M718.73,268.11c-2.11,2.97-4.79,4.21-8.33,4.21c-4.6,0-7.95-2.2-8.72-6.42c-3.06,3.64-7.57,6.42-13.5,6.42
						c-7.09,0-11.78-3.93-11.78-10.34c0-7.95,7.38-13.03,24.9-14.37v-7.28c0-8.33-2.78-11.88-6.9-11.88c-1.53,0-2.68,0.38-4.02,1.25
						l-9.48,13.79h-0.57c-0.57-4.6-0.96-8.62-1.25-13.22c5.08-2.11,10.63-3.16,15.52-3.16c12.36,0,17.14,6.51,17.14,15.32v21.55
						c0,3.26,1.53,4.6,3.54,4.6c0.96,0,2.11-0.29,3.26-0.77L718.73,268.11z M701.3,263.99v-14.85
						c-10.44,1.15-14.27,5.94-14.27,12.07c0,5.08,2.49,7.47,5.84,7.47C695.65,268.68,698.52,267.15,701.3,263.99z"/>
					<path class="st0" d="M764.7,269.83h5.84v1.53h-22.32v-1.53h6.03V240.9c0-6.51-2.59-10.54-8.43-10.54c-3.35,0-6.13,1.34-9,4.41
						v35.06h5.75v1.53h-22.32v-1.53h6.13v-34.67l-6.13-2.97v-0.38c4.88-1.92,10.63-3.54,16.28-4.6l-0.77,6.7
						c3.83-4.41,9.29-6.9,14.94-6.9c9.29,0,13.98,6.13,13.98,14.65v28.17H764.7z"/>
					<path class="st0" d="M802.63,266.86c-1.92,2.97-5.65,5.46-11.3,5.46c-7.66,0-12.45-4.12-12.45-12.45V229.7h-6.51v-0.57
						l7.28-2.3c2.59-4.02,5.65-8.52,9.1-13.31h0.48v14.56h13.03v1.63h-13.03v31.13c0,5.27,2.68,7.85,6.99,7.85
						c2.11,0,4.41-0.96,5.84-2.39L802.63,266.86z"/>
					<path class="st0" d="M827.06,269.83v1.53h-22.32v-1.53h5.94v-34.48l-6.03-2.97v-0.48c4.79-1.82,10.82-3.45,16.47-4.5v42.43
						H827.06z M809.34,211.6c0-3.83,2.68-6.61,6.61-6.61s6.61,2.78,6.61,6.61c0,3.74-2.68,6.51-6.61,6.51
						S809.34,215.33,809.34,211.6z"/>
					<path class="st0" d="M864.7,227.98c-0.19,4.98-0.67,10.15-1.34,14.56h-0.48l-7.95-11.59c-0.29-0.1-0.67-0.19-1.15-0.19
						c-1.82,0-4.69,1.72-6.8,4.21v33.24c2.68,0.86,4.88,1.72,7.38,2.78v0.38h-23.94v-0.38c1.92-1.05,3.93-1.92,6.13-2.78v-38.6
						h-6.13v-1.53h16v5.27c2.97-3.26,6.99-6.32,12.93-6.32C861.06,227.02,862.78,227.31,864.7,227.98z"/>
					<path class="st0" d="M890.27,270.98v0.38h-22.32v-0.38c1.92-1.05,3.83-1.92,6.03-2.78v-38.6h-5.84v-1.53h16.28v40.13
						C886.63,269.06,888.35,269.93,890.27,270.98z M872.65,211.6c0-3.83,2.68-6.61,6.51-6.61c3.93,0,6.61,2.78,6.61,6.61
						c0,3.74-2.68,6.51-6.61,6.51C875.33,218.11,872.65,215.33,872.65,211.6z"/>
					<path class="st0" d="M927.62,259.39c0,9.48-8.72,12.93-18.58,12.93c-5.75,0-9.96-0.86-14.75-3.26l0.29-3.26h0.38
						c4.5,3.45,8.43,4.98,13.98,4.98c6.23,0,9.39-2.78,9.39-7.38c0-12.36-22.89-9-22.89-23.66c0-8.81,8.14-12.64,17.72-12.64
						c5.08,0,8.52,0.86,13.5,3.16l-0.29,3.16h-0.38c-4.41-3.35-7.85-4.79-12.83-4.79c-5.36-0.1-8.43,2.3-8.43,6.61
						C904.73,247.04,927.62,244.07,927.62,259.39z"/>
					<path class="st0" d="M976.09,268.2c2.2,0.86,4.02,1.72,5.94,2.78v0.38h-22.22v-0.38c1.92-1.05,3.64-1.92,5.84-2.78v-27.3
						c0-6.51-2.59-10.54-8.52-10.54c-3.26,0-6.13,1.44-8.91,4.41v33.43c2.11,0.86,3.83,1.72,5.75,2.78v0.38h-22.22v-0.38
						c1.92-1.05,3.83-1.92,6.03-2.78v-56.32l-6.13-2.78v-0.48c4.79-1.82,10.63-3.45,16.28-4.5v28.93c3.74-3.83,8.91-6.03,14.18-6.03
						c9.29,0,13.98,6.13,13.98,14.65V268.2z"/>
					<path class="st0" d="M467.12,333.97v-0.48c4.79-1.82,10.82-3.45,16.47-4.5v44.44c0,13.31-8.33,18.1-18.68,19.06l-0.19-0.86
						c5.84-1.05,8.43-4.12,8.43-13.31v-41.38L467.12,333.97z M471.72,313.18c0-3.83,2.68-6.61,6.61-6.61s6.61,2.78,6.61,6.61
						c0,3.74-2.68,6.51-6.61,6.51C474.4,319.7,471.72,316.92,471.72,313.18z"/>
					<path class="st0" d="M535.12,369.69c-2.11,2.97-4.79,4.21-8.33,4.21c-4.6,0-7.95-2.2-8.72-6.42c-3.06,3.64-7.57,6.42-13.5,6.42
						c-7.09,0-11.78-3.93-11.78-10.34c0-7.95,7.38-13.03,24.9-14.37v-7.28c0-8.33-2.78-11.88-6.9-11.88c-1.53,0-2.68,0.38-4.02,1.25
						l-9.48,13.79h-0.57c-0.57-4.6-0.96-8.62-1.25-13.22c5.08-2.11,10.63-3.16,15.52-3.16c12.36,0,17.14,6.51,17.14,15.32v21.55
						c0,3.26,1.53,4.6,3.54,4.6c0.96,0,2.11-0.29,3.26-0.77L535.12,369.69z M517.69,365.57v-14.85
						c-10.44,1.15-14.27,5.94-14.27,12.07c0,5.08,2.49,7.47,5.84,7.47C512.04,370.27,514.91,368.73,517.69,365.57z"/>
					<path class="st0" d="M607.05,369.79c2.2,0.86,4.02,1.72,5.94,2.78v0.38h-22.22v-0.38c1.92-1.05,3.64-1.92,5.84-2.78v-27.58
						c0-6.03-2.49-10.25-7.76-10.25c-2.87,0-5.56,1.34-8.72,4.31v33.52c2.2,0.86,4.02,1.72,5.94,2.78v0.38h-22.32v-0.38
						c1.92-1.05,3.74-1.92,5.94-2.78v-28.83c0-5.75-2.3-9-7.85-9c-3.06,0-5.94,1.53-8.62,4.41v33.43c2.11,0.86,3.83,1.72,5.75,2.78
						v0.38h-22.32v-0.38c2.01-1.05,3.83-1.92,6.13-2.78v-33.04l-6.13-2.97v-0.38c4.88-1.92,10.63-3.54,16.28-4.6l-0.77,6.7
						c3.54-4.02,8.81-6.9,14.75-6.9c5.84,0,10.06,2.68,11.97,6.9c4.6-4.69,9.39-6.9,15.32-6.9c7.85,0,12.83,5.94,12.83,14.27v26.91
						H607.05z"/>
					<path class="st0" d="M659.54,329.66v1.53h-11.69c4.5,2.49,7.38,6.8,7.38,12.55c0,9.39-7.66,14.85-18.1,14.85
						c-4.02,0-7.66-0.86-10.63-2.39c-2.59,0.96-3.74,2.49-3.74,4.5c0,2.68,2.39,4.5,7.18,4.5h14.94c9.1,0,14.46,4.98,14.46,12.26
						c0,10.25-10.34,15.8-22.51,15.8c-12.55,0-20.78-3.64-20.78-10.82c0-4.79,4.6-7.66,9.87-8.81c-4.79-0.67-8.33-4.12-8.33-9.1
						c0-4.41,2.97-7.47,7.38-9.19c-3.74-2.59-5.94-6.42-5.94-11.49c0-9.67,7.95-15.13,18.2-15.13c2.49,0,4.79,0.29,6.99,0.96h15.32
						V329.66z M627.84,373.72c-1.72,1.15-2.49,3.74-2.49,6.9c0,6.61,4.21,11.21,11.78,11.21c9.1,0,14.18-3.93,14.18-9.87
						c0-4.88-3.64-8.24-9.48-8.24L627.84,373.72L627.84,373.72z M644.6,343.64c0-9.87-2.68-13.6-7.38-13.6
						c-4.6,0-7.28,3.74-7.28,13.6c0,9.67,2.68,13.6,7.28,13.6C641.91,357.24,644.6,353.31,644.6,343.64z"/>
					<path class="st0" d="M664.42,325.06c0-7.57,5.84-17.14,14.85-21.46l0.38,0.67c-7.57,5.65-8.81,11.69-5.94,18.58l2.87,7.09
						c-1.53,1.82-3.26,2.78-5.94,2.78C666.72,332.72,664.42,329.85,664.42,325.06z"/>
					<path class="st0" d="M725.34,369.69c-2.11,2.97-4.79,4.21-8.33,4.21c-4.6,0-7.95-2.2-8.72-6.42c-3.06,3.64-7.57,6.42-13.5,6.42
						c-7.09,0-11.78-3.93-11.78-10.34c0-7.95,7.38-13.03,24.9-14.37v-7.28c0-8.33-2.78-11.88-6.9-11.88c-1.53,0-2.68,0.38-4.02,1.25
						l-9.48,13.79h-0.57c-0.57-4.6-0.96-8.62-1.25-13.22c5.08-2.11,10.63-3.16,15.52-3.16c12.36,0,17.14,6.51,17.14,15.32v21.55
						c0,3.26,1.53,4.6,3.54,4.6c0.96,0,2.11-0.29,3.26-0.77L725.34,369.69z M707.91,365.57v-14.85
						c-10.44,1.15-14.27,5.94-14.27,12.07c0,5.08,2.49,7.47,5.84,7.47C702.26,370.27,705.13,368.73,707.91,365.57z"/>
					<path class="st0" d="M761.16,329.56c-0.19,4.98-0.67,10.15-1.34,14.56h-0.48l-7.95-11.59c-0.19-0.1-0.67-0.19-1.15-0.19
						c-1.82,0-4.6,1.72-6.8,4.31v33.14c2.68,0.86,4.98,1.72,7.47,2.78v0.38h-24.04v-0.38c2.01-1.05,3.93-1.92,6.13-2.78v-33.04
						l-6.03-2.87v-0.38c4.88-1.92,10.63-3.64,16.28-4.6l-0.67,6.51c2.97-3.45,7.09-6.8,13.22-6.8
						C757.52,328.6,759.24,328.89,761.16,329.56z"/>
					<path class="st0" d="M834.62,371.42h6.03v1.53h-22.22v-1.53h5.75v-29.21c0-6.03-2.39-10.25-7.76-10.25
						c-2.87,0-5.56,1.34-8.72,4.31v35.15h5.75v1.53h-21.93v-1.53h5.75v-30.46c0-5.75-2.3-9-7.85-9c-2.97,0-5.84,1.53-8.62,4.5v34.96
						h5.75v1.53h-22.22v-1.53h6.03v-34.67l-6.03-2.87v-0.38c4.88-1.92,10.63-3.64,16.19-4.6l-0.77,6.61
						c3.54-4.02,8.91-6.9,14.75-6.9s10.06,2.68,12.07,6.9c4.5-4.69,9.29-6.9,15.23-6.9c7.85,0,12.83,5.94,12.83,14.27L834.62,371.42
						L834.62,371.42z"/>
					<path class="st0" d="M880.02,371.42h6.13v1.53h-16.57v-4.98c-3.06,3.45-7.38,5.94-13.12,5.94c-7.09,0-11.78-3.93-11.78-10.34
						c0-7.95,7.38-13.03,24.9-14.37v-7.28c0-8.33-2.78-11.88-6.9-11.88c-1.53,0-2.68,0.38-4.02,1.25l-9.48,13.79h-0.57
						c-0.57-4.6-0.96-8.62-1.25-13.22c5.08-2.11,10.63-3.16,15.52-3.16c12.36,0,17.14,6.51,17.14,15.32L880.02,371.42L880.02,371.42
						z M869.58,365.57v-14.85c-10.44,1.15-14.27,5.94-14.27,12.07c0,5.08,2.49,7.47,5.84,7.47
						C863.93,370.27,866.8,368.73,869.58,365.57z"/>
					<path class="st0" d="M922.45,360.98c0,9.48-8.72,12.93-18.29,12.93c-4.41,0-10.54-0.86-14.37-3.26
						c0.29-3.83,0.77-8.43,1.25-12.16h0.48l8.33,12.74c1.72,0.86,3.26,1.34,5.17,1.34c5.08,0,8.24-2.87,8.24-7.57
						c0-12.36-22.89-9.1-22.89-23.66c0-8.81,8.24-12.64,17.62-12.64c5.17,0,8.52,0.86,13.6,3.16l-0.29,3.16h-0.48
						c-4.41-3.35-7.76-4.79-13.03-4.79c-5.36,0-8.24,2.39-8.24,6.51C899.56,348.81,922.45,345.56,922.45,360.98z"/>
					<path class="st0" d="M949.56,372.57v0.38h-22.32v-0.38c1.92-1.05,3.83-1.92,6.03-2.78v-38.6h-5.84v-1.53h16.28v40.13
						C945.92,370.65,947.64,371.51,949.56,372.57z M931.93,313.18c0-3.83,2.68-6.61,6.51-6.61c3.93,0,6.61,2.78,6.61,6.61
						c0,3.74-2.68,6.51-6.61,6.51C934.62,319.7,931.93,316.92,931.93,313.18z"/>
				</g>
			</g>
		</g>
	</g>
</g>
</svg>
