<?xml version="1.0" encoding="utf-8"?>
<!-- Generator: Adobe Illustrator 27.0.0, SVG Export Plug-In . SVG Version: 6.00 Build 0)  -->
<svg version="1.1" id="Layer_2" xmlns="http://www.w3.org/2000/svg" xmlns:xlink="http://www.w3.org/1999/xlink" x="0px" y="0px"
	 viewBox="0 0 1102.14 605.88" style="enable-background:new 0 0 1102.14 605.88;" xml:space="preserve">
<style type="text/css">
	.st0{fill:#0A0A0A;}
</style>
<g>
	<g>
		<g>
			<g>
				<g>
					<path class="st0" d="M506.39,58.33v6.42c2.68,0.96,4.6,1.82,6.7,3.07v0.38h-24.33v-0.38c2.2-1.15,4.31-2.11,6.7-3.07v-6.42
						c-15.52-0.48-27.2-7.85-27.2-20.88s11.68-20.4,27.2-20.88v-6.42c-2.39-0.96-4.5-1.92-6.7-3.07V6.7h24.33v0.38
						c-2.11,1.25-4.02,2.11-6.7,3.07v6.42c15.52,0.48,27.2,7.85,27.2,20.88S521.9,57.85,506.39,58.33z M495.47,56.61V18.3
						c-12.07,0.67-15.8,8.43-15.8,19.16S483.4,55.93,495.47,56.61z M506.39,18.29V56.6c12.16-0.67,15.9-8.43,15.9-19.16
						S518.55,18.96,506.39,18.29z"/>
					<path class="st0" d="M539.82,46.55c0-13.22,9.19-22.6,21.93-22.6s21.93,9.39,21.93,22.6c0,13.31-9.19,22.6-21.93,22.6
						C549.01,69.15,539.82,59.86,539.82,46.55z M572.28,46.55c0-14.56-3.35-21.17-10.54-21.17c-7.18,0-10.54,6.61-10.54,21.17
						c0,14.65,3.35,21.17,10.54,21.17C568.93,67.72,572.28,61.11,572.28,46.55z"/>
					<path class="st0" d="M638.75,25.29c-1.92,1.05-3.83,1.92-6.03,2.78v36.97c2.2,0.86,4.12,1.72,6.03,2.78v0.38h-22.32v-0.38
						c1.92-1.05,3.64-1.92,5.84-2.78V47.03h-17.34v18.01c2.11,0.86,3.83,1.72,5.75,2.78v0.38h-22.32v-0.38
						c2.01-1.05,3.83-1.92,6.13-2.78V28.07c-2.3-0.86-4.12-1.72-6.13-2.78v-0.38h22.32v0.38c-1.92,1.05-3.64,1.92-5.75,2.78v17.34
						h17.34V28.07c-2.2-0.86-3.93-1.72-5.84-2.78v-0.38h22.32V25.29z"/>
					<path class="st0" d="M683.96,66.57h8.62c-0.19,6.9-0.58,11.49-1.25,16.95h-0.48l-7.95-15.33h-29.88l-7.95,15.33h-0.48
						c-0.58-5.46-0.96-10.06-1.15-16.95h8.33c4.5-12.83,7.28-25.67,7.57-38.5c-2.87-0.86-4.6-1.82-6.61-2.78v-0.38H690v0.38
						c-2.01,1.05-3.83,1.92-6.03,2.78v38.5H683.96z M673.52,66.57V26.53h-12.55c-0.1,13.31-2.87,26.72-7.57,40.04H673.52z"/>
					<path class="st0" d="M763.55,45.3c0,16.67-10.06,23.85-22.51,23.85c-2.78,0-5.36-0.38-8.14-1.34v16.57
						c2.68,0.86,4.98,1.72,7.76,2.78v0.38h-24.23v-0.38c2.01-1.05,3.93-1.92,6.13-2.78V31.99l-6.13-2.87v-0.38
						c4.88-1.92,10.63-3.64,16.28-4.6l-0.77,6.51c3.64-4.12,8.14-6.71,14.17-6.71C755.99,23.94,763.55,31.51,763.55,45.3z
						 M752.44,47.99c0-16.19-4.31-20.59-10.82-20.59c-3.16,0-5.94,1.34-8.72,4.41v31.8c2.11,2.87,4.79,4.02,7.47,4.02
						C748.32,67.62,752.44,61.11,752.44,47.99z"/>
					<path class="st0" d="M812.02,64.94c-2.11,2.97-4.79,4.21-8.33,4.21c-4.6,0-7.95-2.2-8.72-6.42c-3.06,3.64-7.57,6.42-13.5,6.42
						c-7.09,0-11.78-3.93-11.78-10.34c0-7.95,7.38-13.03,24.9-14.37v-7.28c0-8.33-2.78-11.88-6.9-11.88c-1.53,0-2.68,0.38-4.02,1.25
						l-9.48,13.79h-0.57c-0.58-4.6-0.96-8.62-1.25-13.22c5.08-2.11,10.63-3.16,15.52-3.16c12.36,0,17.14,6.51,17.14,15.33v21.55
						c0,3.26,1.53,4.6,3.54,4.6c0.96,0,2.11-0.29,3.26-0.77L812.02,64.94z M794.59,60.82V45.97c-10.44,1.15-14.27,5.94-14.27,12.07
						c0,5.08,2.49,7.47,5.84,7.47C788.93,65.51,791.81,63.98,794.59,60.82z"/>
					<path class="st0" d="M848.7,56.99c0,6.9-6.61,12.16-19.06,12.16c-5.65,0-10.73-1.44-14.37-2.97c0.1-4.41,0.29-7.76,0.58-12.74
						h0.38l9.19,13.12c1.25,0.57,2.59,1.05,4.41,1.05c4.6,0,8.33-2.97,8.33-9.67c0-7.47-4.69-12.45-12.93-11.97v-1.15
						c8.14-1.05,11.49-5.17,11.49-11.49c0-5.27-2.49-7.95-6.23-7.95c-1.34,0-2.68,0.19-4.12,0.77l-9,13.31H817
						c-0.38-3.74-0.57-9.1-0.57-12.83c3.83-1.63,8.62-2.68,14.08-2.68c10.92,0,16.76,4.31,16.76,10.15c0,5.94-5.75,9.2-14.08,10.82
						C843.24,45.88,848.7,50.76,848.7,56.99z"/>
					<path class="st0" d="M895.53,56.51c0,7.38-6.51,11.68-19.16,11.68H853v-0.38c1.92-1.05,3.74-1.92,5.94-2.78V28.06
						c-2.2-0.86-4.02-1.72-5.94-2.78V24.9h25c9.58,0,14.85,3.64,14.85,9.58c0,5.27-3.54,8.33-12.93,10.44
						C889.88,45.11,895.53,49.81,895.53,56.51z M869.29,26.53v18.39h8.24c3.64-2.3,5.27-5.08,5.27-9.77c0-6.13-3.45-8.62-8.24-8.62
						H869.29z M884.9,57.28c0-6.99-3.54-10.82-10.15-10.82h-5.46v18.87c1.72,0.96,3.54,1.25,6.13,1.25
						C881.26,66.57,884.9,63.79,884.9,57.28z"/>
					<path class="st0" d="M950.13,25.29c-1.92,1.05-3.83,1.92-6.03,2.78v36.97c2.2,0.86,4.12,1.72,6.03,2.78v0.38h-22.32v-0.38
						c1.92-1.05,3.64-1.92,5.84-2.78V36.21l-17.34,23.37v5.46c2.11,0.86,3.83,1.72,5.75,2.78v0.38h-22.32v-0.38
						c2.01-1.05,3.83-1.92,6.13-2.78V28.07c-2.3-0.86-4.12-1.72-6.13-2.78v-0.38h22.32v0.38c-1.92,1.05-3.64,1.92-5.75,2.78V56.8
						l17.34-23.37v-5.36c-2.2-0.86-3.93-1.72-5.84-2.78v-0.38h22.32V25.29z"/>
					<path class="st0" d="M997.16,24.9c0,4.31-0.19,11.01-0.48,15.23h-0.48l-10.06-13.7h-4.88v38.7c1.92,0.77,4.12,1.63,6.03,2.68
						v0.38H964.4v-0.38c1.63-0.96,4.5-2.11,5.94-2.68v-38.7h-4.6l-10.25,13.7h-0.48c-0.29-4.5-0.48-11.01-0.48-15.23H997.16z"/>
					<path class="st0" d="M1051.94,25.29c-1.92,1.05-3.83,1.92-6.03,2.78v36.97c2.2,0.86,4.12,1.72,6.03,2.78v0.38h-22.32v-0.38
						c1.92-1.05,3.64-1.92,5.84-2.78V36.21l-17.34,23.37v5.46c2.11,0.86,3.83,1.72,5.75,2.78v0.38h-22.32v-0.38
						c2.01-1.05,3.83-1.92,6.13-2.78V28.07c-2.3-0.86-4.12-1.72-6.13-2.78v-0.38h22.32v0.38c-1.92,1.05-3.64,1.92-5.75,2.78V56.8
						l17.34-23.37v-5.36c-2.2-0.86-3.93-1.72-5.84-2.78v-0.38h22.32V25.29z"/>
					<path class="st0" d="M1102.13,25.29c-1.44,0.67-3.35,1.63-5.27,2.39v37.64c1.92,0.86,3.64,1.53,5.27,2.49v0.38h-21.07v-0.38
						c1.72-0.96,3.64-1.72,5.46-2.49V48.18h-5.84l-9.29,17.34c1.63,0.77,2.2,0.96,4.41,2.3v0.38h-21.07v-0.38
						c1.15-0.58,2.78-1.53,5.08-2.49l9.96-16.76c2.39-0.48,4.69-0.77,7.18-1.05v-0.19c-8.43-1.05-15.61-4.88-15.61-11.49
						c0-7.28,5.75-10.92,17.53-10.92h23.27v0.37H1102.13z M1086.52,46.55V26.53h-5.46c-5.65,0-9.19,3.54-9.19,9.48
						c0,4.98,1.82,8.24,6.8,10.54L1086.52,46.55L1086.52,46.55z"/>
					<path class="st0" d="M509.84,166.62c2.2,1.05,4.12,2.2,5.08,2.78v0.38h-20.88v-0.38c1.44-0.86,3.06-1.82,4.79-2.68
						l-11.11-18.01l-4.6,2.39v15.52c2.11,0.96,3.45,1.53,5.94,2.78v0.38h-22.41v-0.38c1.72-0.96,3.93-1.92,6.03-2.78v-36.97
						c-1.92-0.86-4.31-1.72-6.03-2.78v-0.38h22.41v0.38c-2.2,1.15-3.64,1.72-5.94,2.78v19.63l4.69-2.3l13.31-15.33
						c-2.59-2.11-2.97-2.49-5.46-4.79v-0.38h16.38v0.38c-2.49,1.53-4.98,3.16-8.81,4.79l-8.62,10.06L509.84,166.62z"/>
					<path class="st0" d="M545.47,126.49h14.08v0.38c-1.82,1.63-4.12,3.35-6.42,4.88l-24.42,58.33l-10.44-5.84v-0.29
						c6.23-4.12,11.49-8.14,17.05-13.31l-18.58-41.19c-1.34-0.77-2.68-1.63-3.83-2.59v-0.38h21.36v0.38
						c-1.92,1.05-3.83,2.01-5.94,2.97l11.69,28.92l11.21-27.01c-2.11-1.63-3.93-3.06-5.75-4.88v-0.37H545.47z"/>
					<path class="st0" d="M610.31,126.87c-1.92,1.05-3.83,1.92-6.03,2.78v36.97c2.2,0.86,4.12,1.72,6.03,2.78v0.38H587.8v-0.38
						c1.92-1.05,3.83-1.92,6.03-2.78v-38.5h-13.98c0,33.24-3.35,42.62-11.21,42.62c-2.01,0-3.64-0.29-5.75-1.15
						c0.19-5.17,0.58-9.19,1.15-13.98h0.48l6.23,12.93c4.6-1.82,7.18-8.72,7.18-38.89c-2.2-0.86-4.41-1.72-6.32-2.78v-0.38h38.69
						v0.38H610.31z"/>
					<path class="st0" d="M640.29,146.51c10.44,0,16.38,4.69,16.38,11.59c0,7.37-6.51,11.68-19.16,11.68h-23.37v-0.38
						c1.92-1.05,3.74-1.92,5.94-2.78v-36.97c-2.2-0.86-4.02-1.72-5.94-2.78v-0.38h22.12v0.38c-1.92,1.05-3.74,1.92-5.84,2.78v16.86
						H640.29z M646.03,158.86c0-6.99-3.54-10.82-10.15-10.82h-5.46v18.87c1.72,0.96,3.54,1.25,6.13,1.25
						C642.39,168.15,646.03,165.37,646.03,158.86z"/>
					<path class="st0" d="M704.36,126.49c0,4.31-0.19,11.01-0.48,15.23h-0.48l-10.06-13.7h-4.88v38.7c1.92,0.77,4.12,1.63,6.03,2.68
						v0.38H671.6v-0.38c1.63-0.96,4.5-2.11,5.94-2.68v-38.7h-4.6l-10.25,13.7h-0.48c-0.29-4.5-0.48-11.01-0.48-15.23H704.36z"/>
					<path class="st0" d="M739.13,126.49h14.08v0.38c-1.82,1.63-4.12,3.35-6.42,4.88l-24.42,58.33l-10.44-5.84v-0.29
						c6.23-4.12,11.49-8.14,17.05-13.31l-18.58-41.19c-1.34-0.77-2.68-1.63-3.83-2.59v-0.38h21.36v0.38
						c-1.92,1.05-3.83,2.01-5.94,2.97l11.69,28.92l11.21-27.01c-2.11-1.63-3.93-3.06-5.75-4.88v-0.37H739.13z"/>
					<path class="st0" d="M801,146.89c0,16.67-10.06,23.85-22.51,23.85c-2.78,0-5.36-0.38-8.14-1.34v16.57
						c2.68,0.86,4.98,1.72,7.76,2.78v0.38h-24.23v-0.38c2.01-1.05,3.93-1.92,6.13-2.78v-52.39l-6.13-2.87v-0.38
						c4.88-1.92,10.63-3.64,16.28-4.6l-0.77,6.51c3.64-4.12,8.14-6.71,14.17-6.71C793.44,125.53,801,133.1,801,146.89z
						 M789.89,149.57c0-16.19-4.31-20.59-10.82-20.59c-3.16,0-5.94,1.34-8.72,4.41v31.8c2.11,2.87,4.79,4.02,7.47,4.02
						C785.77,169.21,789.89,162.69,789.89,149.57z"/>
					<path class="st0" d="M832.13,146.51c10.44,0,16.38,4.69,16.38,11.59c0,7.37-6.51,11.68-19.16,11.68h-23.37v-0.38
						c1.92-1.05,3.74-1.92,5.94-2.78v-36.97c-2.2-0.86-4.02-1.72-5.94-2.78v-0.38h22.12v0.38c-1.92,1.05-3.74,1.92-5.84,2.78v16.86
						H832.13z M837.88,158.86c0-6.99-3.54-10.82-10.15-10.82h-5.46v18.87c1.72,0.96,3.54,1.25,6.13,1.25
						C834.24,168.15,837.88,165.37,837.88,158.86z M873.41,126.87c-1.92,1.05-3.74,1.92-5.94,2.78v36.97
						c2.2,0.86,4.02,1.72,5.94,2.78v0.38h-22.12v-0.38c1.92-1.05,3.74-1.92,5.94-2.78v-36.97c-2.2-0.86-4.02-1.72-5.94-2.78v-0.38
						h22.12V126.87z"/>
					<path class="st0" d="M947.45,126.87c-1.92,1.05-3.83,1.92-6.03,2.78v36.97c2.2,0.86,4.12,1.72,6.03,2.78v0.38h-22.32v-0.38
						c1.92-1.05,3.64-1.92,5.84-2.78v-28.83l-17.34,23.37v5.46c2.11,0.86,3.83,1.72,5.75,2.78v0.38h-22.32v-0.38
						c2.01-1.05,3.83-1.92,6.13-2.78v-36.97c-2.3-0.86-4.12-1.72-6.13-2.78v-0.38h22.32v0.38c-1.92,1.05-3.64,1.92-5.75,2.78v28.73
						l17.34-23.37v-5.36c-2.2-0.86-3.93-1.72-5.84-2.78v-0.38h22.32V126.87z"/>
					<path class="st0" d="M517.12,228.45c-1.92,1.05-3.83,1.92-6.03,2.78v36.97c2.2,0.86,4.12,1.72,6.03,2.78v0.38H494.8v-0.38
						c1.92-1.05,3.64-1.92,5.84-2.78v-28.83l-17.34,23.37v5.46c2.11,0.86,3.83,1.72,5.75,2.78v0.38h-22.32v-0.38
						c2.01-1.05,3.83-1.92,6.13-2.78v-36.97c-2.3-0.86-4.12-1.72-6.13-2.78v-0.38h22.32v0.38c-1.92,1.05-3.64,1.92-5.75,2.78v28.73
						l17.34-23.37v-5.36c-2.2-0.86-3.93-1.72-5.84-2.78v-0.38h22.32V228.45z"/>
					<path class="st0" d="M558.11,262.93l0.29,0.29c-3.35,5.84-9.29,9.1-16.38,9.1c-11.88,0-20.21-9-20.21-22.12
						c0-13.41,9.1-23.08,21.84-23.08c5.36,0,10.34,1.05,14.94,3.16c-0.19,4.69-0.58,8.72-1.25,13.41h-0.48l-9.39-13.89
						c-1.25-0.86-2.59-1.34-4.41-1.34c-6.13,0-10.54,7.38-10.54,18.2c0,12.26,5.84,19.73,15.33,19.73
						C551.4,266.38,555.14,265.04,558.11,262.93z"/>
					<path class="st0" d="M606.19,268.2c2.2,1.05,4.12,2.2,5.08,2.78v0.38h-20.88v-0.38c1.44-0.86,3.06-1.82,4.79-2.68l-11.11-18.01
						l-4.6,2.39v15.52c2.11,0.96,3.45,1.53,5.94,2.78v0.38H563v-0.38c1.72-0.96,3.93-1.92,6.03-2.78v-36.97
						c-1.92-0.86-4.31-1.72-6.03-2.78v-0.38h22.41v0.38c-2.2,1.15-3.64,1.72-5.94,2.78v19.63l4.69-2.3l13.31-15.32
						c-2.59-2.11-2.97-2.49-5.46-4.79v-0.38h16.38v0.38c-2.49,1.53-4.98,3.16-8.81,4.79l-8.62,10.06L606.19,268.2z"/>
					<path class="st0" d="M641.82,228.07h14.08v0.38c-1.82,1.63-4.12,3.35-6.42,4.88l-24.42,58.33l-10.44-5.84v-0.29
						c6.23-4.12,11.49-8.14,17.05-13.31l-18.58-41.19c-1.34-0.77-2.68-1.63-3.83-2.59v-0.38h21.36v0.38
						c-1.92,1.05-3.83,2.01-5.94,2.97l11.69,28.93l11.21-27.01c-2.11-1.63-3.93-3.07-5.75-4.88v-0.38H641.82z"/>
					<path class="st0" d="M694.5,262.93l0.29,0.29c-3.35,5.84-9.29,9.1-16.38,9.1c-11.88,0-20.21-9-20.21-22.12
						c0-13.41,9.1-23.08,21.84-23.08c5.36,0,10.34,1.05,14.94,3.16c-0.19,4.69-0.58,8.72-1.25,13.41h-0.48l-9.39-13.89
						c-1.25-0.86-2.59-1.34-4.41-1.34c-6.13,0-10.54,7.38-10.54,18.2c0,12.26,5.84,19.73,15.33,19.73
						C687.79,266.38,691.53,265.04,694.5,262.93z"/>
					<path class="st0" d="M736.93,262.93l0.29,0.29c-3.35,5.84-9.29,9.1-16.38,9.1c-11.88,0-20.21-9-20.21-22.12
						c0-13.41,9.1-23.08,21.84-23.08c5.36,0,10.34,1.05,14.94,3.16c-0.19,4.69-0.58,8.72-1.25,13.41h-0.48l-9.39-13.89
						c-1.25-0.86-2.59-1.34-4.41-1.34c-6.13,0-10.54,7.38-10.54,18.2c0,12.26,5.84,19.73,15.33,19.73
						C730.22,266.38,733.96,265.04,736.93,262.93z"/>
					<path class="st0" d="M785.39,228.07c0,4.31-0.19,11.01-0.48,15.23h-0.48l-10.06-13.7h-4.88v38.7c1.92,0.77,4.12,1.63,6.03,2.68
						v0.38h-22.89v-0.38c1.63-0.96,4.5-2.11,5.94-2.68v-38.7h-4.6l-10.25,13.7h-0.48c-0.29-4.5-0.48-11.01-0.48-15.23H785.39z"/>
					<path class="st0" d="M832.51,259.68c0,7.38-6.51,11.69-19.16,11.69h-23.37v-0.38c1.92-1.05,3.74-1.92,5.94-2.78v-36.97
						c-2.2-0.86-4.02-1.72-5.94-2.78v-0.38h25c9.58,0,14.85,3.64,14.85,9.58c0,5.27-3.54,8.33-12.93,10.44
						C826.86,248.28,832.51,252.97,832.51,259.68z M806.27,229.7v18.39h8.24c3.64-2.3,5.27-5.08,5.27-9.77
						c0-6.13-3.45-8.62-8.24-8.62L806.27,229.7L806.27,229.7z M821.88,260.44c0-6.99-3.54-10.82-10.15-10.82h-5.46v18.87
						c1.72,0.96,3.54,1.25,6.13,1.25C818.24,269.74,821.88,266.96,821.88,260.44z"/>
					<path class="st0" d="M880.4,268.11c-2.11,2.97-4.79,4.21-8.33,4.21c-4.6,0-7.95-2.2-8.72-6.42c-3.06,3.64-7.57,6.42-13.5,6.42
						c-7.09,0-11.78-3.93-11.78-10.34c0-7.95,7.38-13.03,24.9-14.37v-7.28c0-8.33-2.78-11.88-6.9-11.88c-1.53,0-2.68,0.38-4.02,1.25
						l-9.48,13.79H842c-0.58-4.6-0.96-8.62-1.25-13.22c5.08-2.11,10.63-3.16,15.52-3.16c12.36,0,17.14,6.51,17.14,15.32v21.55
						c0,3.26,1.53,4.6,3.54,4.6c0.96,0,2.11-0.29,3.26-0.77L880.4,268.11z M862.97,263.99v-14.85
						c-10.44,1.15-14.27,5.94-14.27,12.07c0,5.08,2.49,7.47,5.84,7.47C857.32,268.68,860.2,267.15,862.97,263.99z"/>
					<path class="st0" d="M509.17,311.46h16.86v0.38c-2.11,1.63-4.02,2.78-7.18,4.5l-21.74,44.92c-4.41,8.81-8.91,12.64-15.23,12.64
						c-2.87,0-4.5-0.29-6.7-1.15c0.29-5.17,0.67-9.2,1.25-14.18h0.48l6.7,13.22c4.88-0.38,8.52-4.12,11.88-10.92h-1.05l-22.51-45.88
						c-2.3-1.05-3.45-1.72-5.75-3.16v-0.38h24.62v0.38c-2.49,1.15-4.6,2.11-7.28,3.16l17.43,34.38l15.9-33.04
						c-2.78-1.53-6.32-3.45-7.66-4.5v-0.37H509.17z"/>
					<path class="st0" d="M560.22,361.74c0,6.9-6.61,12.16-19.06,12.16c-5.65,0-10.73-1.44-14.37-2.97
						c0.1-4.41,0.29-7.76,0.58-12.74h0.38l9.19,13.12c1.25,0.57,2.59,1.05,4.41,1.05c4.6,0,8.33-2.97,8.33-9.67
						c0-7.47-4.69-12.45-12.93-11.97v-1.15c8.14-1.05,11.49-5.17,11.49-11.49c0-5.27-2.49-7.95-6.23-7.95
						c-1.34,0-2.68,0.19-4.12,0.77l-9,13.31h-0.38c-0.38-3.74-0.57-9.1-0.57-12.83c3.83-1.63,8.62-2.68,14.08-2.68
						c10.92,0,16.76,4.31,16.76,10.15c0,5.94-5.75,9.2-14.08,10.82C554.76,350.63,560.22,355.52,560.22,361.74z"/>
					<path class="st0" d="M608.3,351.3c0,13.31-9.1,22.6-21.55,22.6c-12.55,0-21.26-8.81-21.26-25.67
						c0-22.51,7.66-36.88,23.08-38.79l12.45-1.53l4.12-5.27h0.57c0.48,3.83,0.77,9.19,0.77,13.03l-19.35,2.39
						c-12.36,1.53-18.2,6.13-19.54,22.6c3.35-6.23,10.44-11.97,19.25-11.97C599.29,328.7,608.3,338.09,608.3,351.3z M596.9,351.3
						c0-14.46-3.16-21.17-10.06-21.17c-6.8,0-9.96,6.51-9.96,21.17s3.16,21.17,9.87,21.17C593.74,372.47,596.9,365.77,596.9,351.3z"
						/>
					<path class="st0" d="M651.97,364.62c-3.26,5.56-8.91,9.29-17.05,9.29c-12.64,0-20.88-8.91-20.88-22.22
						c0-15.13,10.54-22.99,20.59-22.99c10.15,0,17.14,7.95,17.14,17.72v1.72h-26.91c0.38,14.85,6.9,19.83,15.71,19.83
						c4.31,0,7.76-1.34,11.11-3.64L651.97,364.62z M624.87,346.42h16.47c0-11.68-2.59-16.38-7.57-16.38
						C628.41,330.04,624.96,335.31,624.87,346.42z"/>
					<path class="st0" d="M699.67,369.79c2.2,1.05,4.12,2.2,5.08,2.78v0.38h-20.88v-0.38c1.44-0.86,3.06-1.82,4.79-2.68
						l-11.11-18.01l-4.6,2.39v15.52c2.11,0.96,3.45,1.53,5.94,2.78v0.38h-22.41v-0.38c1.72-0.96,3.93-1.92,6.03-2.78v-36.97
						c-1.92-0.86-4.31-1.72-6.03-2.78v-0.38h22.41v0.38c-2.2,1.15-3.64,1.72-5.94,2.78v19.63l4.69-2.3l13.31-15.32
						c-2.59-2.11-2.97-2.49-5.46-4.79v-0.38h16.38v0.38c-2.49,1.53-4.98,3.16-8.81,4.79l-8.62,10.06L699.67,369.79z"/>
					<path class="st0" d="M755.32,330.04c-1.92,1.05-3.83,1.92-6.03,2.78v36.97c2.2,0.86,4.12,1.72,6.03,2.78v0.38H733v-0.38
						c1.92-1.05,3.64-1.92,5.84-2.78v-28.83l-17.34,23.37v5.46c2.11,0.86,3.83,1.72,5.75,2.78v0.38h-22.32v-0.38
						c2.01-1.05,3.83-1.92,6.13-2.78v-36.97c-2.3-0.86-4.12-1.72-6.13-2.78v-0.38h22.32v0.38c-1.92,1.05-3.64,1.92-5.75,2.78v28.73
						l17.34-23.37v-5.36c-2.2-0.86-3.93-1.72-5.84-2.78v-0.38h22.32V330.04z"/>
					<path class="st0" d="M796.31,364.52l0.29,0.29c-3.35,5.84-9.29,9.1-16.38,9.1c-11.88,0-20.21-9-20.21-22.12
						c0-13.41,9.1-23.08,21.84-23.08c5.36,0,10.34,1.05,14.94,3.16c-0.19,4.69-0.58,8.72-1.25,13.41h-0.48l-9.39-13.89
						c-1.25-0.86-2.59-1.34-4.41-1.34c-6.13,0-10.54,7.38-10.54,18.2c0,12.26,5.84,19.73,15.33,19.73
						C789.61,367.97,793.34,366.63,796.31,364.52z"/>
					<path class="st0" d="M844.78,329.66c0,4.31-0.19,11.01-0.48,15.23h-0.48l-10.06-13.7h-4.88v38.69
						c1.92,0.77,4.12,1.63,6.03,2.68v0.38h-22.89v-0.38c1.63-0.96,4.5-2.11,5.94-2.68v-38.69h-4.6l-10.25,13.7h-0.48
						c-0.29-4.5-0.48-11.01-0.48-15.23H844.78z"/>
					<path class="st0" d="M892.86,369.69c-2.11,2.97-4.79,4.21-8.33,4.21c-4.6,0-7.95-2.2-8.72-6.42c-3.06,3.64-7.57,6.42-13.5,6.42
						c-7.09,0-11.78-3.93-11.78-10.34c0-7.95,7.38-13.03,24.9-14.37v-7.28c0-8.33-2.78-11.88-6.9-11.88c-1.53,0-2.68,0.38-4.02,1.25
						l-9.48,13.79h-0.57c-0.58-4.6-0.96-8.62-1.25-13.22c5.08-2.11,10.63-3.16,15.52-3.16c12.36,0,17.14,6.51,17.14,15.32v21.55
						c0,3.26,1.53,4.6,3.54,4.6c0.96,0,2.11-0.29,3.26-0.77L892.86,369.69z M875.42,365.57v-14.85
						c-10.44,1.15-14.27,5.94-14.27,12.07c0,5.08,2.49,7.47,5.84,7.47C869.77,370.27,872.65,368.73,875.42,365.57z"/>
					<path class="st0" d="M944.77,330.04c-1.92,1.05-3.83,1.92-6.03,2.78v36.97c2.2,0.86,4.12,1.72,6.03,2.78v0.38h-22.32v-0.38
						c1.92-1.05,3.64-1.92,5.84-2.78v-18.01h-17.34v18.01c2.11,0.86,3.83,1.72,5.75,2.78v0.38h-22.32v-0.38
						c2.01-1.05,3.83-1.92,6.13-2.78v-36.97c-2.3-0.86-4.12-1.72-6.13-2.78v-0.38h22.32v0.38c-1.92,1.05-3.64,1.92-5.75,2.78v17.34
						h17.34v-17.34c-2.2-0.86-3.93-1.72-5.84-2.78v-0.38h22.32V330.04z"/>
					<path class="st0" d="M991.99,369.69c-2.11,2.97-4.79,4.21-8.33,4.21c-4.6,0-7.95-2.2-8.72-6.42c-3.06,3.64-7.57,6.42-13.5,6.42
						c-7.09,0-11.78-3.93-11.78-10.34c0-7.95,7.38-13.03,24.9-14.37v-7.28c0-8.33-2.78-11.88-6.9-11.88c-1.53,0-2.68,0.38-4.02,1.25
						l-9.48,13.79h-0.57c-0.58-4.6-0.96-8.62-1.25-13.22c5.08-2.11,10.63-3.16,15.52-3.16c12.36,0,17.14,6.51,17.14,15.32v21.55
						c0,3.26,1.53,4.6,3.54,4.6c0.96,0,2.11-0.29,3.26-0.77L991.99,369.69z M974.55,365.57v-14.85
						c-10.44,1.15-14.27,5.94-14.27,12.07c0,5.08,2.49,7.47,5.84,7.47C968.9,370.27,971.78,368.73,974.55,365.57z"/>
				</g>
			</g>
		</g>
	</g>
	<g>
		<g>
			<g>
				<path class="st0" d="M209.73,605.88c0,0-209.73-46.61-209.73-264.2C0,149.86,0,0,0,0h46.61c0,0,0,149.86,0,341.68
					C46.61,559.28,209.73,605.88,209.73,605.88z"/>
				<path class="st0" d="M209.74,456.6c9.62,0,17.8-10.27,26.76-17.55c29.83-24.21,43.14-54.24,43.14-97.36V0.01h46.61v341.68
					C326.25,341.69,326.27,456.6,209.74,456.6z"/>
			</g>
		</g>
	</g>
</g>
</svg>
