<?xml version="1.0" encoding="utf-8"?>
<!-- Generator: Adobe Illustrator 25.0.1, SVG Export Plug-In . SVG Version: 6.00 Build 0)  -->
<svg version="1.1" id="Livello_1" xmlns="http://www.w3.org/2000/svg" xmlns:xlink="http://www.w3.org/1999/xlink" x="0px" y="0px"
	 viewBox="0 0 822 353" style="enable-background:new 0 0 822 353;" xml:space="preserve">
<g>
	<path d="M9.3,54.3c0-26.9,19.1-47,46.7-47c26.5,0,45,19.5,45,45.7c0,27.5-18.9,47.7-46.5,47.7C27.8,100.7,9.3,81,9.3,54.3z
		 M57.1,95.1c17.8-0.5,29-15.6,29.2-38.7c0.4-25.7-13.1-43.8-33-43.3c-17.9,0.5-29.1,15.6-29.3,38C23.6,77.4,37.1,95.6,57.1,95.1z"
		/>
	<path d="M113.7,93.3c8.1-2.2,8.5-3.3,8.6-16.1c0.1-15,0.1-27.8,0-51.4c-0.1-7.3-0.9-8.6-8.6-11c-3.6-1.2-3.3-5.9,0.8-5.8
		c9.8,0.3,19.6,0.4,29.5,0c23-0.9,35.2,11,35.2,23.9c0,9.5-5.6,18.3-16.4,23c-2.3,1-2.4,2.9-0.9,5.1c10,14.7,13.7,19.2,16.8,23.5
		c4.3,6.2,6.2,7.1,11.9,8.2c4.3,0.9,3.1,5.9-0.4,5.9h-10.1c-4.9,0-7.2-0.8-10.3-5.3c-7-10.5-13.8-21.1-20.9-31
		c-1.7-2.3-4.5-3.2-8.1-3.2h-1.3c-3.5,0-4.9,1.8-5,5c-0.1,3.6-0.2,7.8-0.1,12.6c0.4,13.6,0.6,13.9,10.3,16.4
		c3.7,0.9,2.7,5.9-0.7,5.8c-11.8-0.4-19.3-0.4-29.6,0C111.3,99.2,109.8,94.4,113.7,93.3z M139.1,54.3c20.4,1.3,26.1-10.9,26.1-20.1
		c0-12.6-10.3-20.5-24.7-20c-5,0.3-6,1.9-6,6.4c-0.1,9.3-0.1,19.7,0,29.2C134.5,52.6,136.3,54.1,139.1,54.3z"/>
	<path d="M197.6,54.3c0-26.9,19.1-47,46.7-47c26.5,0,45,19.5,45,45.7c0,27.5-18.9,47.7-46.5,47.7C216,100.7,197.6,81,197.6,54.3z
		 M245.3,95.1c17.8-0.5,29-15.6,29.2-38.7c0.4-25.7-13.1-43.8-33-43.3c-17.9,0.5-29.1,15.6-29.3,38
		C211.8,77.4,225.4,95.6,245.3,95.1z"/>
	<path d="M302.6,99.1c-3.2,0-4.5-4.6-0.7-5.8c8.1-2.3,8.6-3.2,8.7-16.3c0.1-15.5,0.1-29.7,0-46.1c-0.1-12.9-0.1-13.2-8.7-16.1
		c-3.7-1.3-3.2-5.9,0.8-5.8c10.5,0.4,17.8,0.4,28.2,0c3.5-0.1,4.5,4.5,0.2,5.9c-8.2,2.7-8.3,3.1-8.3,16V77c0,15,1.5,16.5,17,16.5
		c16.9,0,19.9-1.7,25.4-17.2c1.2-3.5,6.3-2.9,5.8,1c-0.8,5.6-1.4,11.3-1.9,16.9c-0.4,3.8-1.6,5-5.3,5
		C343.7,99.1,322.7,98.8,302.6,99.1z"/>
	<path d="M7.9,216.2c8.1-2.1,9-2.9,10.1-16c1.1-12.4,2.2-24.8,3.2-36.4c0.5-5.3,0.9-10.4,1.3-15.2c0.5-7.3-0.8-8.7-8.1-10.9
		c-3.2-1-3.3-6,1.5-5.8c4.6,0.2,8.6,0.4,12.7,0.2c3.7-0.1,5.3,1.2,6.3,3.8c7.9,22,17,43.9,25.1,63.8c1.2,2.8,3.8,2.8,5,0
		c4.9-11.8,10-24.1,15.2-36.7c3.7-9.1,7.4-18.4,11.1-27.7c0.9-2.3,2.3-3.3,5.3-3.2c4.5,0.1,8.3,0,13.6-0.2c3.8-0.1,4.3,4.8,0.6,5.9
		c-7.3,2.1-8.3,4.2-7.8,10.1c1,15.4,2.6,33.7,4.3,52.1c1.1,13,1.9,13.9,10,16c4,1,2.7,5.9-0.5,5.8c-9.3-0.4-18.4-0.2-27.8,0
		c-4.1,0.1-4.8-5.1-0.8-6c8.1-1.8,8.3-2.7,7.3-15.7c-0.9-11.3-1.9-22.5-3.1-34.1c-0.4-3.7-4.2-3.8-5.5-0.9
		c-5.3,12.3-10.5,24.4-15.8,36.7c-2.6,6.2-5.3,12.4-7.9,18.8c-1.6,3.7-6,3.7-7.4,0c-7.3-18.9-14.6-37.4-22.8-57.4
		c-1.2-2.7-4.5-2.4-4.9,0.7c-1.4,13.4-2.4,24.8-3.3,36.4c-1,13.1-0.9,13.9,7.2,15.8c4,0.9,3.3,6.3-0.8,6c-7.6-0.5-15.1-0.2-22.7,0
		C5.2,222.1,4,217.2,7.9,216.2z"/>
	<path d="M128.6,216.3c8.7-2.3,9.3-2.8,13.2-12.3c9.6-23.3,18.8-46.5,28.4-71.2c1.4-3.7,5.5-3.4,6.8-0.2
		c9.8,24.1,19.1,46.8,29.4,71.2c4.1,9.6,4.8,10.2,12.3,12.5c2.8,0.8,2.8,5.9-2,5.7c-10.4-0.4-19.4-0.4-28.9,0
		c-3.3,0.1-4.2-4.7-0.7-5.8c8.5-2.4,8.8-5.2,6.2-12c-1.2-3-2.6-6.6-3.8-9.7c-1-2.5-2.6-3.8-5.4-3.9c-9.4-0.1-15.8-0.1-25.3,0
		c-3.7,0-5.5,1.6-6.4,4c-1.2,3.1-2.5,6-3.6,9.1c-3.2,8.3-0.9,10.4,8.5,12.3c4.2,0.9,3.4,6.1-0.9,6c-9.1-0.2-18-0.4-27.1,0
		C125.9,222.2,124.6,217.4,128.6,216.3z M160.6,185.5c7.8,0.1,13.8,0.1,20.8,0c2.8,0,3.8-1.7,2.5-4.6c-1.3-3.2-7.2-17-10.8-25.7
		c-1-2.4-3.8-2.4-4.8,0c-2.3,5.9-4.2,10.5-10.4,26C156.6,184.3,158.2,185.4,160.6,185.5z"/>
	<path d="M229.7,216.3c8.1-2.3,8.5-3.2,8.6-16.1c0.1-15,0.2-29.6,0.1-46.5c-0.1-12.8-0.2-12.9-8.7-15.9c-3.8-1.4-3.1-6,1-5.8
		c7.6,0.4,18.7,0.4,31.1,0c34.2-0.9,57.4,16,57.4,45.5c0,28.3-21.4,45.5-54.8,44.4c-14.6-0.4-25.6-0.2-33.9,0.1
		C227.1,222.2,225.8,217.5,229.7,216.3z M250.6,200.2c0.1,12.5,2.6,16.1,17.4,16.1c21.4,0,36.5-14.5,36.8-39.2
		c0.2-27.9-17.7-39.8-43.9-39.8c-10,0-10.4,0.5-10.4,6.4C250.3,166.4,250.4,182,250.6,200.2z"/>
	<path d="M324.1,216.3c8.7-2.3,9.3-2.8,13.2-12.3c9.6-23.3,18.8-46.5,28.4-71.2c1.4-3.7,5.5-3.4,6.8-0.2
		c9.8,24.1,19.1,46.8,29.4,71.2c4.1,9.6,4.8,10.2,12.3,12.5c2.8,0.8,2.8,5.9-2,5.7c-10.4-0.4-19.4-0.4-28.9,0
		c-3.3,0.1-4.2-4.7-0.7-5.8c8.5-2.4,8.8-5.2,6.2-12c-1.2-3-2.6-6.6-3.8-9.7c-1-2.5-2.6-3.8-5.4-3.9c-9.4-0.1-15.8-0.1-25.3,0
		c-3.7,0-5.5,1.6-6.4,4c-1.2,3.1-2.5,6-3.6,9.1c-3.2,8.3-0.9,10.4,8.5,12.3c4.2,0.9,3.4,6.1-0.9,6c-9.1-0.2-18-0.4-27.1,0
		C321.4,222.2,320.1,217.4,324.1,216.3z M356.1,185.5c7.8,0.1,13.8,0.1,20.8,0c2.8,0,3.8-1.7,2.5-4.6c-1.3-3.2-7.2-17-10.8-25.7
		c-1-2.4-3.8-2.4-4.8,0c-2.3,5.9-4.2,10.5-10.4,26C352,184.3,353.7,185.4,356.1,185.5z"/>
	<path d="M425,216.2c8.1-2.1,8.5-2.9,8.6-16c0.2-15.6,0.3-31.2,0.1-45.1l-0.1-6.4c-0.1-7.4-1.6-9.1-8.6-11c-3.6-1-3.2-5.9,0.8-5.8
		c6.3,0.1,10.6,0.4,15.2,0.2c2.8-0.1,3.5,0.3,5,2.3c15.5,20,31.6,41,48.5,61.5c2.2,2.6,4.9,1.4,4.9-1.8c0.1-13.6,0.1-26.6,0-40.2
		c-0.1-13.1-0.7-13.9-8.7-15.8c-4-0.9-3.3-6.1,0.8-6c10.4,0.4,12.3,0.4,22.7,0c3.2-0.1,4.5,4.7,0.5,5.8c-8.1,2.1-8.4,2.9-8.6,16
		c-0.2,13.2-0.2,26.7-0.2,40.1c0,7.9,0.1,15.7,0.2,23.5c0.1,5.6-5.9,6.7-8.7,2.8c-16.3-21.8-34-44.4-52.1-66.1c-2.3-2.8-5-1.8-5,1.6
		c-0.1,15.1-0.1,29.2,0,44.3c0.1,13.1,0.6,13.9,8.7,15.8c4,0.9,3.3,6.1-0.8,6c-10.5-0.4-12.3-0.4-22.7,0
		C422.3,222.1,421,217.2,425,216.2z"/>
	<path d="M527.4,216.3c8.1-2.4,8.3-2.7,8.6-16.4c0.2-15.8,0.2-31,0-51.1c-0.1-7.5-1-8.6-8.6-11c-3.7-1.3-3.2-5.9,0.9-5.8
		c9.2,0.3,18.4,0.3,27.7,0c4.1-0.1,4.6,4.5,0.9,5.8c-7.5,2.4-8.4,3.5-8.6,11c-0.2,20.1-0.2,35.4,0,51.1c0.2,13.7,0.5,13.9,8.6,16.4
		c4,1.2,2.4,5.9-0.8,5.8c-9.3-0.2-18.6-0.2-27.9,0C524.9,222.2,523.4,217.5,527.4,216.3z"/>
	<path d="M592.6,216.2c9.3-2.2,9.8-3.1,9.8-16.1v-9.3c0-3.8-0.5-6.3-2.4-9.8c-5.9-10.8-12-21.3-18.4-31.5c-5.4-8.6-7.2-10-13.8-11.8
		c-2.7-0.8-2.9-5.9,1.9-5.6c9.2,0.4,17.8,0.4,29.1,0c3.3-0.1,4.1,4.8,0.7,5.8c-7.4,1.9-7.8,3.8-3.5,12c4.2,7.9,8.7,15.5,12.8,22
		c1.7,2.5,4.5,2.7,6.3-0.3c4.1-6.5,8.6-14.2,12.6-21.8c4.6-8.7,3.8-9.3-3.6-11.9c-3.6-1.3-2.8-5.8,0.7-5.8c7.5,0.1,14.9,0.1,22.4,0
		c4.2-0.1,4.6,4.6,0.8,5.8c-6.5,1.9-7.9,3.1-14.4,14.2c-5.5,9.3-11.1,18.8-16.5,28.3c-1.8,3.2-2.3,5.5-2.3,7.9V200
		c0,13,0.6,13.9,10,15.9c3.9,0.8,3.3,6-0.8,5.9c-10.6-0.2-20.1-0.4-30.7,0C589.9,222,588.6,217.1,592.6,216.2z"/>
	<path d="M644.3,216.3c8.7-2.3,9.3-2.8,13.2-12.3c9.6-23.3,18.8-46.5,28.4-71.2c1.4-3.7,5.5-3.4,6.8-0.2
		c9.8,24.1,19.1,46.8,29.4,71.2c4.1,9.6,4.8,10.2,12.3,12.5c2.8,0.8,2.8,5.9-2,5.7c-10.4-0.4-19.4-0.4-28.9,0
		c-3.3,0.1-4.2-4.7-0.7-5.8c8.5-2.4,8.8-5.2,6.2-12c-1.2-3-2.6-6.6-3.8-9.7c-1-2.5-2.6-3.8-5.4-3.9c-9.4-0.1-15.8-0.1-25.3,0
		c-3.7,0-5.5,1.6-6.4,4c-1.2,3.1-2.5,6-3.6,9.1c-3.2,8.3-0.9,10.4,8.5,12.3c4.2,0.9,3.4,6.1-0.9,6c-9.1-0.2-18-0.4-27.1,0
		C641.6,222.2,640.3,217.4,644.3,216.3z M676.3,185.5c7.8,0.1,13.8,0.1,20.8,0c2.8,0,3.8-1.7,2.5-4.6c-1.3-3.2-7.2-17-10.8-25.7
		c-1-2.4-3.8-2.4-4.8,0c-2.3,5.9-4.2,10.5-10.4,26C672.3,184.3,673.9,185.4,676.3,185.5z"/>
	<path d="M756.1,216.3c9.6-2.6,9.9-3.1,10-16.1c0.1-15.4,0.1-30.5,0-45.9c-0.1-15-1-16.9-12.9-16.7c-8.3,0.1-12.7,3.1-17.4,17.8
		c-1.3,3.9-6.8,3.1-6.1-1.6c0.8-5.3,1.5-11.4,1.9-17.3c0.2-3.1,1.7-4.6,6-4.5c31.3,0.6,38,0.6,69,0c4.2-0.1,5.9,1.2,6.2,4.8
		c0.4,5.7,1.2,12.2,1.8,17.2c0.6,4.5-4.7,5-5.9,1.6c-5.5-15.2-9.4-17.9-17.2-18c-11.9-0.2-13.1,1-13.2,16.6
		c-0.1,15.4-0.1,30.5,0,45.9c0.1,12.8,0.5,13.6,10.1,16.1c4,1,2.7,5.9-0.5,5.8c-10.6-0.4-20.5-0.4-31,0
		C753,222.2,752.3,217.4,756.1,216.3z"/>
	<path d="M15.1,341.9c-4.3-2.4-4.8-3.2-4.5-8.2c0.1-3.2,0.2-7.9,0.1-13.4c-0.1-4.3,5.7-4.8,6.3-0.9c2.4,15,9.9,21.8,21.2,21.8
		c10.7,0,17.4-5.9,17.4-14.1c0-8.8-7.2-15.3-20.2-21.8c-16-7.9-23.7-16-23.7-28.2c0-14.5,11-23.8,30.1-23.8c7.4,0,13.8,1.4,17.7,3
		c4,1.7,5,3.3,4.8,6.8c-0.1,4.2-0.2,9.7-0.1,15c0.1,4.2-5.4,4.7-6.3,0.9c-3-14.3-7.9-19.7-17.8-19.7c-9.5,0-16.1,4.7-16.1,13.6
		c0,9.6,6.7,16,19.5,22.4c18.9,9.5,24.2,17,24.2,27.1c0,14.6-11.1,24.4-30.4,24.4C27.7,346.7,19.2,344.2,15.1,341.9z"/>
	<path d="M76,339.3c8.7-2.3,9.3-2.8,13.2-12.3c9.6-23.3,18.8-46.5,28.4-71.2c1.4-3.7,5.5-3.4,6.8-0.2c9.8,24.1,19.1,46.8,29.4,71.2
		c4.1,9.6,4.8,10.2,12.3,12.5c2.8,0.8,2.8,5.9-2,5.7c-10.4-0.4-19.4-0.4-28.9,0c-3.3,0.1-4.2-4.7-0.7-5.8c8.5-2.4,8.8-5.2,6.2-12
		c-1.2-3-2.6-6.6-3.8-9.7c-1-2.5-2.6-3.8-5.4-3.9c-9.4-0.1-15.8-0.1-25.3,0c-3.7,0-5.5,1.6-6.4,4c-1.2,3.1-2.5,6-3.6,9.1
		c-3.2,8.3-0.9,10.4,8.5,12.3c4.2,0.9,3.4,6.1-0.9,6c-9.1-0.2-18-0.4-27.1,0C73.3,345.2,72,340.4,76,339.3z M108,308.5
		c7.8,0.1,13.8,0.1,20.8,0c2.8,0,3.8-1.7,2.5-4.6c-1.3-3.2-7.2-17-10.8-25.7c-1-2.4-3.8-2.4-4.8,0c-2.3,5.9-4.2,10.5-10.4,26
		C103.9,307.3,105.6,308.4,108,308.5z"/>
	<path d="M177.1,339.2c8.1-2.1,9-2.9,10.1-16c1.1-12.4,2.2-24.8,3.2-36.4c0.5-5.3,0.9-10.4,1.3-15.2c0.5-7.3-0.8-8.7-8.1-10.9
		c-3.2-1-3.3-6,1.5-5.8c4.6,0.2,8.6,0.4,12.7,0.2c3.7-0.1,5.3,1.2,6.3,3.8c7.9,22,17,43.9,25.1,63.8c1.2,2.8,3.8,2.8,5,0
		c4.9-11.8,10-24.1,15.2-36.7c3.7-9.1,7.4-18.4,11.1-27.7c0.9-2.3,2.3-3.3,5.3-3.2c4.5,0.1,8.3,0,13.6-0.2c3.8-0.1,4.3,4.8,0.6,5.9
		c-7.3,2.1-8.3,4.2-7.8,10.1c1,15.4,2.6,33.7,4.3,52.1c1.1,13,1.9,13.9,10,16c4,1,2.7,5.9-0.5,5.8c-9.3-0.4-18.4-0.2-27.8,0
		c-4.1,0.1-4.8-5.1-0.8-6c8.1-1.8,8.3-2.7,7.3-15.7c-0.9-11.3-1.9-22.5-3.1-34.1c-0.4-3.7-4.2-3.8-5.5-0.9
		c-5.3,12.3-10.5,24.4-15.8,36.7c-2.6,6.2-5.3,12.4-7.9,18.8c-1.6,3.7-6,3.7-7.4,0c-7.3-18.9-14.6-37.4-22.8-57.4
		c-1.2-2.7-4.5-2.4-4.9,0.7c-1.4,13.4-2.4,24.8-3.3,36.4c-1,13.1-0.9,13.9,7.2,15.8c4,0.9,3.3,6.3-0.8,6c-7.6-0.5-15.1-0.2-22.7,0
		C174.4,345.1,173.1,340.2,177.1,339.2z"/>
	<path d="M297.5,339.2c8.1-2.1,9-2.9,10.1-16c1.1-12.4,2.2-24.8,3.2-36.4c0.5-5.3,0.9-10.4,1.3-15.2c0.5-7.3-0.8-8.7-8.1-10.9
		c-3.2-1-3.3-6,1.5-5.8c4.6,0.2,8.6,0.4,12.7,0.2c3.7-0.1,5.3,1.2,6.3,3.8c7.9,22,17,43.9,25.1,63.8c1.2,2.8,3.8,2.8,5,0
		c4.9-11.8,10-24.1,15.2-36.7c3.7-9.1,7.4-18.4,11.1-27.7c0.9-2.3,2.3-3.3,5.3-3.2c4.5,0.1,8.3,0,13.6-0.2c3.8-0.1,4.3,4.8,0.6,5.9
		c-7.3,2.1-8.3,4.2-7.8,10.1c1,15.4,2.6,33.7,4.3,52.1c1.1,13,1.9,13.9,10,16c4,1,2.7,5.9-0.5,5.8c-9.3-0.4-18.4-0.2-27.8,0
		c-4.1,0.1-4.8-5.1-0.8-6c8.1-1.8,8.3-2.7,7.3-15.7c-0.9-11.3-1.9-22.5-3.1-34.1c-0.4-3.7-4.2-3.8-5.5-0.9
		c-5.3,12.3-10.5,24.4-15.8,36.7c-2.6,6.2-5.3,12.4-7.9,18.8c-1.6,3.7-6,3.7-7.4,0c-7.3-18.9-14.6-37.4-22.8-57.4
		c-1.2-2.7-4.5-2.4-4.9,0.7c-1.4,13.4-2.4,24.8-3.3,36.4c-1,13.1-0.9,13.9,7.2,15.8c4,0.9,3.3,6.3-0.8,6c-7.6-0.5-15.1-0.2-22.7,0
		C294.9,345.1,293.6,340.2,297.5,339.2z"/>
	<path d="M419.5,339.3c8.1-2.4,8.3-2.7,8.6-16.4c0.2-15.8,0.2-31,0-51.1c-0.1-7.5-1-8.6-8.6-11c-3.7-1.3-3.2-5.9,0.9-5.8
		c9.2,0.3,18.4,0.3,27.7,0c4.1-0.1,4.6,4.5,0.9,5.8c-7.5,2.4-8.4,3.5-8.6,11c-0.2,20.1-0.2,35.4,0,51.1c0.2,13.7,0.5,13.9,8.6,16.4
		c4,1.2,2.4,5.9-0.8,5.8c-9.3-0.2-18.6-0.2-27.9,0C417,345.2,415.5,340.5,419.5,339.3z"/>
	<path d="M487,339.3c9.6-2.6,9.9-3.1,10-16.1c0.1-15.4,0.1-30.5,0-45.9c-0.1-15-1-16.9-12.9-16.7c-8.3,0.1-12.7,3.1-17.4,17.8
		c-1.3,3.9-6.8,3.1-6.1-1.6c0.8-5.3,1.5-11.4,1.9-17.3c0.3-3.1,1.7-4.6,6-4.5c31.3,0.6,38,0.6,69,0c4.2-0.1,5.9,1.2,6.2,4.8
		c0.4,5.7,1.2,12.2,1.8,17.2c0.6,4.5-4.7,5-5.9,1.6c-5.5-15.2-9.4-17.9-17.2-18c-11.9-0.2-13.1,1-13.2,16.6
		c-0.1,15.4-0.1,30.5,0,45.9c0.1,12.8,0.5,13.6,10.1,16.1c4,1,2.7,5.9-0.5,5.8c-10.6-0.4-20.5-0.4-31,0
		C483.9,345.2,483.2,340.4,487,339.3z"/>
	<path d="M557,339.3c8.1-2.4,8.3-2.7,8.6-16.4c0.2-15.8,0.2-31,0-51.1c-0.1-7.5-1-8.6-8.6-11c-3.7-1.3-3.2-5.9,0.9-5.8
		c9.2,0.3,18.4,0.3,27.7,0c4.1-0.1,4.6,4.5,0.9,5.8c-7.5,2.4-8.4,3.5-8.6,11c-0.2,20.1-0.2,35.4,0,51.1c0.2,13.7,0.5,13.9,8.6,16.4
		c4,1.2,2.4,5.9-0.8,5.8c-9.3-0.2-18.6-0.2-27.9,0C554.6,345.2,553,340.5,557,339.3z"/>
</g>
</svg>
