<?xml version="1.0" encoding="utf-8"?>
<!-- Generator: Adobe Illustrator 25.0.1, SVG Export Plug-In . SVG Version: 6.00 Build 0)  -->
<svg version="1.1" id="Livello_1" xmlns="http://www.w3.org/2000/svg" xmlns:xlink="http://www.w3.org/1999/xlink" x="0px" y="0px"
	 viewBox="0 0 930 377" style="enable-background:new 0 0 930 377;" xml:space="preserve">
<g>
	<path d="M64.5,124.3v-4c4,0,9.3-0.3,9.3-5c0-1.9-0.5-4.3-2.3-8.4l-5.3-12.1H31.6l-6.1,14.3c-0.8,2.2-1.5,4.2-1.5,6.6
		c0,3.8,2.7,4.6,9,4.6v4H4.7v-4c7.6,0,9.4-2.2,15.9-17.5L49.2,35h5.5l32,73.3c3.9,8.9,6.6,12,13.9,12v4H64.5z M49.4,51.5H49
		L33.7,89.3h30.5L49.4,51.5z"/>
	<path d="M142.6,35.6c17.3,0,33.3,4.5,33.3,22.4c0,21.1-17.7,27.7-35.4,27.7c-2.7,0-6.2-0.4-7.7-1.1v23.1c0,11.1,2.7,12.6,13.6,12.6
		v4h-38.1v-4c10.5,0,12-1.8,12-13.1v-58c0-8-2.8-9.4-11.5-9.4v-4h33.8V35.6z M132.8,79.6c1.5,0.3,4.6,0.5,7.3,0.5
		c14.6,0,22.4-4.6,22.4-20.2c0-12.1-7-19-21.6-19c-2.7,0-5.3,0.3-8.1,0.5L132.8,79.6L132.8,79.6z"/>
	<path d="M229,124.3v-4c4,0,9.3-0.3,9.3-5c0-1.9-0.5-4.3-2.3-8.4l-5.3-12.1h-34.6l-6.1,14.3c-0.8,2.2-1.5,4.2-1.5,6.6
		c0,3.8,2.7,4.6,9,4.6v4h-28.3v-4c7.6,0,9.4-2.2,15.9-17.5L213.7,35h5.5l32,73.3c3.9,8.9,6.6,12,13.9,12v4H229z M213.8,51.5h-0.4
		l-15.3,37.8h30.5L213.8,51.5z"/>
	<path d="M360.3,39.6c-10.1,0-13.1,1.6-13.1,10.8v58.2c0,9.9,1.6,11.6,13.1,11.6v4h-38.6v-4c10.7,0,13.1-1.5,13.1-11.6V41.5H312
		c-0.8,23.4-5,51.8-11.1,66.8c-4.7,11.6-10.3,17.5-19.3,17.5c-7,0-11.2-4.2-11.2-8.8c0-3.2,2.2-6.9,6.6-6.9c4.2,0,5.7,3.1,9.7,3.1
		c3.1,0,5.4-1.5,8.4-8.2c5.4-11.7,9.9-40,9.9-57c0-7.8-3.8-8.5-13.2-8.5v-4h68.6L360.3,39.6L360.3,39.6z"/>
	<path d="M369.8,39.6v-4h39.1v4c-11.2,0-13.2,2.4-13.2,11.7v23.2c4.1-0.4,9.2-0.7,14.6-0.7c22.8,0,32.8,10.3,32.8,24
		c0,16.7-12.7,26.3-35.1,26.3h-36.9v-4c11.6,0,12.1-3.1,12.1-17V51.4C383.3,41.9,381.9,39.6,369.8,39.6z M404.3,79.4
		c-4.6,0-7,0.1-8.6,0.3v38.7c3.4,0.3,6.1,0.4,9.7,0.4c11.1,0,23.8-3,23.8-20C429.2,85.2,419,79.4,404.3,79.4z"/>
	<path d="M529.6,107c-7.3,10.9-18.5,18.8-36.2,18.8c-27.8,0-42.4-19.4-42.4-45.8c0-29.4,18.4-46,44.3-46c14.2,0,19.2,4.9,22.5,4.9
		c2.2,0,3-2.2,4.6-4.9h4v30.9h-4.6c-3-17.7-12.6-25.1-26.5-25.1c-19.4,0-30.4,14.8-30.4,38.9c0,27,13.2,38.6,32.3,38.6
		c12.4,0,21.5-4.9,29-13.1L529.6,107z"/>
	<path d="M623.2,124.3h-23.4c-9.6-18-14.3-26.3-20.8-37.3c-2.6-4.2-4-5.1-9.7-5.1h-6.5v24.7c0,12,1.1,13.6,12.8,13.6v4h-37.4v-4
		c11.5,0,12-2.6,12-13.6V53.4c0-11.1-0.3-13.8-12-13.8v-4h37v4c-12,0-12.4,3.2-12.4,13.8v23.5h12.3c8.1,0,11.2-6.2,14.4-18.8
		c2.8-10.5,6.9-23.9,20.2-23.9c5.5,0,10.3,2.4,10.3,8.2c0,3.5-2.2,6.9-6.6,6.9c-4.2,0-5.8-3.6-9.3-3.6c-3.2,0-5.9,2.7-8.5,12.4
		c-2.2,8.4-3.6,14.4-10.1,20v0.7c5.9,5,10.5,14.2,22.4,34c3.8,6.3,5.3,7.3,15.3,7.4V124.3z"/>
	<path d="M700.8,58.1h-0.4l-44.1,53.3c0.1,6.6,2,8.8,13.2,8.8v4h-38.9v-4c12.3,0,13.2-1.8,13.2-13.6V53.4c0-10.5-0.4-13.8-13.2-13.8
		v-4h38.9v4c-12.8,0-13.2,3.2-13.2,13.8v48.9h0.4l44.1-53.2c-0.1-6.3-0.8-9.4-13.4-9.4v-4h38.9v4c-12.8,0-13.1,3.2-13.1,13.8v53.2
		c0,11.3,1.2,13.6,13.1,13.6v4h-38.9v-4c12.3,0,13.4-1.8,13.4-13.6V58.1z"/>
	<path d="M804.7,58.1h-0.4l-44.1,53.3c0.1,6.6,2,8.8,13.2,8.8v4h-38.9v-4c12.3,0,13.2-1.8,13.2-13.6V53.4c0-10.5-0.4-13.8-13.2-13.8
		v-4h38.9v4c-12.8,0-13.2,3.2-13.2,13.8v48.9h0.4l44.1-53.2c-0.1-6.3-0.8-9.4-13.4-9.4v-4h38.9v4c-12.8,0-13.1,3.2-13.1,13.8v53.2
		c0,11.3,1.2,13.6,13.1,13.6v4h-38.9v-4c12.3,0,13.4-1.8,13.4-13.6V58.1z M794.1,19.4c0-3.4-3.2-3.8-3.2-7.7c0-3.8,2.7-5.4,5.9-5.4
		c4,0,8.1,3,8.1,9c0,10.4-11.9,14.3-22.4,14.3c-10.7,0-22.4-3.9-22.4-14.3c0-5.9,3.8-9,8.1-9c3.2,0,5.8,1.8,5.8,5.4
		c0,3.8-3.2,4.5-3.2,7.6c0,2.3,1.6,5.9,11.7,5.9S794.1,21.4,794.1,19.4z"/>
	<path d="M95.3,247.3H72c-9.6-18-14.3-26.3-20.8-37.3c-2.6-4.2-4-5.1-9.7-5.1H35v24.7c0,12,1.1,13.6,12.8,13.6v4H10.4v-4
		c11.5,0,12-2.6,12-13.6v-53.2c0-11.1-0.3-13.8-12-13.8v-4h37v4c-12,0-12.4,3.2-12.4,13.8v23.5h12.3c8.1,0,11.2-6.2,14.4-18.8
		c2.8-10.5,6.9-23.9,20.2-23.9c5.5,0,10.3,2.4,10.3,8.2c0,3.5-2.2,6.9-6.6,6.9c-4.2,0-5.8-3.6-9.3-3.6c-3.2,0-5.9,2.7-8.5,12.4
		c-2.2,8.4-3.6,14.4-10.1,20v0.7c5.9,5,10.5,14.2,22.4,34c3.8,6.3,5.3,7.3,15.3,7.4L95.3,247.3L95.3,247.3z"/>
	<path d="M186.7,162.6c-9,0-12.7,7.3-19,20.9l-17.5,38.2c-6.7,14.7-13.4,27.5-26.9,27.5c-7.8,0-12.3-3.9-12.3-8.9
		c0-3.6,2.7-6.9,6.5-6.9c5.1,0,7.6,3.9,11.7,3.9c3.1,0,6.1-0.9,8.8-5.1c1.8-3.1,2.2-3.8,3.5-6.5L113.7,173
		c-3.6-6.9-5.5-10.4-14.4-10.4v-4h35v4c-6.5,0-9,1.4-9,4.5s1.3,5.7,5.1,13.1l11.1,21.2l5.5,11.7h0.8l15.1-33.2
		c1.9-4.2,3.4-8.2,3.4-11.9c0-3.9-3.2-5.4-8.8-5.4v-4h29.3v4H186.7z"/>
	<path d="M264.5,162.6c-10.1,0-13.1,1.6-13.1,10.8v58.2c0,9.9,1.6,11.6,13.1,11.6v4h-38.6v-4c10.7,0,13.1-1.5,13.1-11.6v-67.1h-22.8
		c-0.8,23.4-5,51.8-11.1,66.8c-4.7,11.6-10.3,17.5-19.3,17.5c-7,0-11.2-4.2-11.2-8.8c0-3.2,2.2-6.9,6.6-6.9c4.2,0,5.7,3.1,9.7,3.1
		c3.1,0,5.4-1.5,8.4-8.2c5.4-11.7,9.9-40,9.9-57c0-7.8-3.8-8.5-13.2-8.5v-4h68.6v4.1H264.5z"/>
	<path d="M274.3,162.6v-4h39.1v4c-11.2,0-13.2,2.4-13.2,11.7v23.2c4.1-0.4,9.2-0.7,14.6-0.7c22.8,0,32.8,10.3,32.8,24
		c0,16.7-12.7,26.3-35.1,26.3h-36.9v-4c11.6,0,12.1-3.1,12.1-17v-51.7C287.8,164.9,286.5,162.6,274.3,162.6z M308.9,202.4
		c-4.6,0-7,0.1-8.6,0.3v38.7c3.4,0.3,6.1,0.4,9.7,0.4c11.1,0,23.8-3,23.8-20C333.7,208.2,323.6,202.4,308.9,202.4z"/>
	<path d="M423.1,182.9c-3-14.7-4.6-18.2-19.6-18.2H395v64.9c0,12.3,1.8,13.6,13.4,13.6v4h-39.1v-4c11.3,0,13.2-1.4,13.2-13.6v-64.9
		h-8.6c-14.8,0-16.7,3.5-19.6,18.2h-4.2l1.5-24.3h74.7l1.1,24.3H423.1z"/>
	<path d="M522.2,162.6c-9,0-12.7,7.3-19,20.9l-17.5,38.2c-6.7,14.7-13.4,27.5-26.9,27.5c-7.8,0-12.3-3.9-12.3-8.9
		c0-3.6,2.7-6.9,6.5-6.9c5.1,0,7.6,3.9,11.7,3.9c3.1,0,6.1-0.9,8.8-5.1c1.8-3.1,2.2-3.8,3.5-6.5L449.2,173
		c-3.6-6.9-5.5-10.4-14.4-10.4v-4h35v4c-6.5,0-9,1.4-9,4.5s1.3,5.7,5.1,13.1l11.1,21.2l5.5,11.7h0.8l15.1-33.2
		c1.9-4.2,3.4-8.2,3.4-11.9c0-3.9-3.2-5.4-8.8-5.4v-4h29.3L522.2,162.6L522.2,162.6z"/>
	<path d="M565.1,158.6c17.3,0,33.3,4.5,33.3,22.4c0,21.1-17.7,27.7-35.4,27.7c-2.7,0-6.2-0.4-7.7-1.1v23.1
		c0,11.1,2.7,12.6,13.6,12.6v4H531v-4c10.5,0,12-1.8,12-13.1v-58c0-8-2.8-9.4-11.5-9.4v-4h33.6V158.6z M555.4,202.6
		c1.5,0.3,4.6,0.5,7.3,0.5c14.6,0,22.4-4.6,22.4-20.2c0-12.1-7-19-21.6-19c-2.7,0-5.3,0.3-8.1,0.5L555.4,202.6L555.4,202.6z"/>
	<path d="M630.3,199.1h44.3v-22.7c0-10.5-0.7-13.8-13.1-13.8v-4h38.6v4c-12.8,0-13.2,3.1-13.2,13.8v53.2c0,11.7,0.9,13.6,13.2,13.6
		v4h-38.6v-4c12,0,13.1-1.9,13.1-13.6v-25.2h-44.3v25.2c0,11.9,1.1,13.6,13.2,13.6v4h-38.7v-4c12.1,0,13.1-1.6,13.1-13.6v-53.2
		c0-10.5-0.7-13.8-13.1-13.8v-4h38.7v4c-12.8,0-13.2,3.2-13.2,13.8V199.1z"/>
	<path d="M707.4,162.6v-4h39.1v4c-11.2,0-13.2,2.4-13.2,11.7v23.2c3.8-0.4,8.6-0.7,13.6-0.7c21.6,0,31.2,10.3,31.2,24
		c0,16.7-12.3,26.3-33.9,26.3h-35.5v-4c11.6,0,12.1-3.1,12.1-17v-51.7C720.9,164.9,719.6,162.6,707.4,162.6z M741.4,202.4
		c-4.3,0-6.6,0.1-8.1,0.3v38.7c3.1,0.3,5.7,0.4,9.2,0.4c10.3,0,22.1-3,22.1-20C764.6,208.2,755.1,202.4,741.4,202.4z M792.3,176.4
		c0-10.5-0.5-13.8-13.4-13.8v-4h39v4c-13,0-13.2,3.2-13.2,13.8v53.2c0,11.3,1.2,13.6,13.2,13.6v4h-39v-4c12.3,0,13.4-1.8,13.4-13.6
		V176.4z"/>
	<path d="M897.6,181.1h-0.4l-44.1,53.3c0.1,6.6,2,8.8,13.2,8.8v4h-38.9v-4c12.3,0,13.2-1.8,13.2-13.6v-53.2
		c0-10.5-0.4-13.8-13.2-13.8v-4h38.9v4c-12.8,0-13.2,3.2-13.2,13.8v48.9h0.4l44.1-53.2c-0.1-6.3-0.8-9.4-13.4-9.4v-4h38.9v4
		c-12.8,0-13.1,3.2-13.1,13.8v53.2c0,11.3,1.2,13.6,13.1,13.6v4h-38.9v-4c12.3,0,13.4-1.8,13.4-13.6V181.1z M886.9,142.4
		c0-3.4-3.2-3.8-3.2-7.7c0-3.8,2.7-5.4,5.9-5.4c4.1,0,8.1,3,8.1,9c0,10.4-11.9,14.3-22.4,14.3c-10.7,0-22.4-3.9-22.4-14.3
		c0-5.9,3.8-9,8.1-9c3.2,0,5.8,1.8,5.8,5.4c0,3.8-3.2,4.5-3.2,7.6c0,2.3,1.6,5.9,11.7,5.9S886.9,144.4,886.9,142.4z"/>
	<path d="M89.8,353c-7.3,10.9-18.5,18.8-36.2,18.8c-27.8,0-42.4-19.4-42.4-45.8c0-29.4,18.4-46,44.3-46c14.2,0,19.2,4.9,22.5,4.9
		c2.2,0,3-2.2,4.6-4.9h4v30.9H82c-3-17.7-12.6-25.1-26.5-25.1c-19.4,0-30.4,14.8-30.4,38.9c0,27,13.2,38.6,32.3,38.6
		c12.4,0,21.5-4.9,29-13.1L89.8,353z"/>
	<path d="M151.6,370.3v-4c4,0,9.3-0.3,9.3-5c0-1.9-0.5-4.3-2.3-8.4l-5.3-12.1h-34.6l-6.1,14.3c-0.8,2.2-1.5,4.2-1.5,6.6
		c0,3.8,2.7,4.6,9,4.6v4H91.8v-4c7.6,0,9.4-2.2,15.9-17.5l28.6-67.8h5.5l32,73.3c3.9,8.9,6.6,12,13.9,12v4L151.6,370.3L151.6,370.3z
		 M136.5,297.5h-0.4l-15.3,37.8h30.5L136.5,297.5z"/>
	<path d="M270.7,370.3v-4c10.4,0,12-2.2,12-12V296h-0.5l-31.5,74.2h-3.2l-31.9-74.1h-0.5v54.4c0,13.9,2,15.7,12.3,15.7v4h-31.7v-4
		c10.9,0,12.8-1.8,12.8-15.7V298c0-10.1-1.9-12.4-12.6-12.4v-4h27.5l28.5,67.9h0.5l28.3-67.9h25.6v4c-9.6,0-11.7,2.3-11.7,12.3v56.3
		c0,9.9,2.2,12,11.9,12v4L270.7,370.3L270.7,370.3z"/>
	<path d="M390.2,370.3v-4c10.4,0,12-2.2,12-12V296h-0.5l-31.5,74.2H367l-31.9-74.1h-0.5v54.4c0,13.9,2,15.7,12.3,15.7v4h-31.7v-4
		c10.9,0,12.8-1.8,12.8-15.7V298c0-10.1-1.9-12.4-12.6-12.4v-4h27.5l28.5,67.9h0.5l28.3-67.9h25.6v4c-9.6,0-11.7,2.3-11.7,12.3v56.3
		c0,9.9,2.2,12,11.9,12v4L390.2,370.3L390.2,370.3z"/>
	<path d="M505.7,304.1h-0.4l-44.1,53.3c0.1,6.6,2,8.8,13.2,8.8v4h-38.9v-4c12.3,0,13.2-1.8,13.2-13.6v-53.2
		c0-10.5-0.4-13.8-13.2-13.8v-4h38.9v4c-12.8,0-13.2,3.2-13.2,13.8v48.9h0.4l44.1-53.2c-0.1-6.3-0.8-9.4-13.4-9.4v-4h38.9v4
		c-12.8,0-13.1,3.2-13.1,13.8v53.2c0,11.3,1.2,13.6,13.1,13.6v4h-38.9v-4c12.3,0,13.4-1.8,13.4-13.6V304.1z"/>
	<path d="M612.5,305.9c-3-14.7-4.6-18.2-19.6-18.2h-8.5v64.9c0,12.3,1.8,13.6,13.4,13.6v4h-39.1v-4c11.3,0,13.2-1.4,13.2-13.6v-64.9
		h-8.6c-14.8,0-16.7,3.5-19.6,18.2h-4.2l1.5-24.3h74.7l1.1,24.3H612.5z"/>
</g>
</svg>
