<?xml version="1.0" standalone="no"?>
<!DOCTYPE svg PUBLIC "-//W3C//DTD SVG 20010904//EN"
 "http://www.w3.org/TR/2001/REC-SVG-20010904/DTD/svg10.dtd">
<svg version="1.0" xmlns="http://www.w3.org/2000/svg"
 width="1270.000000pt" height="1270.000000pt" viewBox="0 0 1270.000000 1270.000000"
 preserveAspectRatio="xMidYMid meet">
<metadata>
Created by potrace 1.14, written by Peter Selinger 2001-2017
</metadata>
<g transform="translate(0.000000,1270.000000) scale(0.100000,-0.100000)"
fill="#000000" stroke="none">
<path d="M1083 9747 c-15 -6 -33 -36 -53 -86 -17 -42 -35 -85 -40 -96 -5 -11
-32 -78 -59 -150 -44 -116 -297 -751 -324 -815 -6 -14 -11 -27 -12 -30 -1 -3
-9 -22 -18 -42 -10 -21 -17 -40 -17 -43 0 -3 -9 -25 -19 -48 -11 -23 -33 -78
-51 -122 -77 -197 -106 -231 -220 -266 -83 -25 -110 -42 -105 -67 2 -9 4 -23
4 -29 1 -14 55 -45 64 -37 4 5 439 6 525 1 23 -1 42 1 42 5 0 4 9 10 21 13 16
5 20 14 17 43 -4 46 -23 57 -152 87 -10 2 -34 15 -52 27 -35 24 -48 61 -39
113 9 46 70 209 104 275 33 63 43 65 370 65 l294 1 32 -31 c17 -16 40 -52 50
-80 9 -27 23 -63 30 -80 64 -145 74 -221 34 -260 -13 -13 -53 -35 -89 -48 -74
-28 -94 -57 -70 -102 l13 -25 241 1 c133 1 278 0 324 -1 74 -2 86 0 107 20 15
14 21 28 17 43 -8 36 -20 45 -88 67 -83 28 -118 63 -169 175 -44 96 -57 124
-60 140 -2 6 -17 40 -34 78 -17 37 -31 70 -31 72 0 3 -8 24 -19 48 -27 63 -56
131 -101 242 -23 55 -45 109 -50 120 -5 11 -30 72 -56 135 -25 63 -52 129 -59
145 -7 17 -20 50 -30 75 -10 25 -26 63 -35 85 -9 22 -25 60 -35 85 -10 25 -25
63 -34 85 -10 22 -33 77 -52 123 -32 77 -44 90 -84 98 -5 0 -20 -3 -32 -9z m5
-469 c10 -13 149 -337 160 -373 3 -11 8 -22 11 -25 3 -3 14 -27 25 -55 10 -27
26 -69 34 -92 15 -39 15 -43 -2 -62 -18 -20 -29 -21 -253 -21 -142 0 -242 4
-254 10 -10 6 -19 21 -19 33 0 25 212 560 231 583 14 17 53 18 67 2z"/>
<path d="M4877 9749 c-22 -13 -45 -63 -127 -274 -83 -214 -368 -930 -390 -980
-9 -22 -43 -103 -74 -180 -32 -77 -70 -158 -84 -179 -27 -40 -93 -81 -142 -90
-32 -5 -83 -28 -92 -41 -13 -17 -9 -53 7 -69 13 -12 56 -15 263 -15 136 0 252
-1 258 -2 5 -1 30 -1 57 0 49 1 88 26 83 53 -8 48 -17 56 -84 73 -37 9 -82 24
-101 32 -40 19 -71 66 -65 99 2 13 6 36 9 50 3 23 24 81 56 159 69 171 42 160
400 161 359 1 338 8 397 -135 56 -139 73 -188 79 -233 7 -54 -20 -93 -81 -118
-108 -45 -123 -60 -107 -103 14 -36 26 -40 110 -37 42 2 184 2 317 2 257 -2
267 0 279 48 8 32 -23 62 -80 78 -100 29 -129 66 -217 277 -33 77 -65 154 -73
170 -7 17 -25 59 -40 95 -14 36 -32 79 -40 95 -7 17 -28 66 -45 110 -18 44
-40 98 -49 120 -10 22 -42 99 -70 170 -29 72 -57 139 -62 150 -30 65 -139 342
-139 352 0 7 -4 13 -10 13 -5 0 -10 6 -10 14 0 19 -34 96 -52 117 -17 22 -58
30 -81 18z m10 -479 c9 -10 18 -25 19 -32 1 -7 13 -38 27 -68 13 -30 53 -122
87 -205 35 -82 70 -166 78 -185 29 -65 32 -92 15 -112 -13 -15 -43 -17 -255
-18 -258 -1 -268 1 -268 50 0 23 123 346 150 392 5 10 10 23 10 29 0 6 6 25
14 42 7 18 19 47 26 65 24 63 64 80 97 42z"/>
<path d="M2198 9698 c-21 -21 -22 -29 -7 -61 8 -17 30 -31 77 -47 63 -22 120
-66 123 -93 1 -7 3 -23 6 -37 7 -41 7 -1211 0 -1268 -12 -95 -37 -121 -145
-153 -24 -7 -49 -21 -56 -31 -15 -20 -10 -64 8 -76 6 -4 157 -7 335 -8 302 -1
326 1 343 18 31 31 16 84 -27 92 -37 8 -120 38 -142 52 -53 34 -66 99 -66 338
0 226 1 228 27 261 22 28 27 29 98 29 58 -1 83 -6 114 -23 45 -26 39 -18 292
-396 199 -297 230 -337 279 -356 34 -14 300 -19 329 -6 31 13 45 42 35 70 -10
25 -33 37 -112 57 -81 21 -96 37 -342 372 -31 43 -57 82 -57 87 0 5 -4 11 -8
13 -12 4 -110 152 -122 182 -11 31 2 50 60 79 82 42 95 51 161 118 76 77 113
146 135 254 6 32 6 117 -1 150 -4 17 -8 35 -9 40 -7 36 -66 133 -105 173 -47
48 -134 112 -152 112 -5 0 -28 9 -49 20 -22 11 -40 18 -40 14 0 -4 -7 -1 -15
6 -8 7 -15 10 -15 6 0 -3 -10 -2 -23 3 -54 21 -122 24 -507 25 -373 1 -406 0
-422 -16z m737 -98 c63 -14 161 -61 201 -97 164 -147 165 -431 2 -579 -45 -40
-141 -87 -203 -99 -75 -14 -197 -14 -231 0 -56 23 -57 30 -57 375 1 319 4 364
23 384 33 33 157 40 265 16z"/>
<path d="M5996 9705 c-19 -14 -21 -55 -3 -77 6 -8 32 -23 57 -32 125 -48 140
-66 147 -170 5 -69 7 -1048 2 -1176 -4 -128 -42 -182 -145 -209 -52 -14 -78
-42 -70 -75 3 -14 15 -30 26 -36 13 -7 238 -11 664 -12 608 -2 646 -1 665 16
20 18 30 49 36 109 13 144 18 185 21 202 2 11 7 46 10 78 6 66 -10 97 -52 97
-32 0 -56 -29 -78 -92 -59 -166 -133 -257 -223 -273 -18 -3 -42 -9 -55 -14
-34 -12 -345 -11 -403 1 -94 20 -128 60 -142 169 -14 110 -9 1238 6 1282 15
45 58 79 128 102 74 23 105 74 66 106 -22 19 -632 22 -657 4z"/>
<path d="M1177 7294 c-1 -1 -36 -5 -77 -9 -75 -7 -115 -12 -115 -15 0 -1 -11
-3 -25 -6 -44 -8 -123 -36 -190 -67 -277 -130 -451 -376 -497 -702 -9 -60 -7
-257 2 -305 3 -19 8 -44 10 -55 7 -43 38 -142 56 -177 11 -21 17 -38 13 -38
-4 0 -1 -7 6 -15 7 -8 22 -33 34 -54 48 -89 162 -209 255 -269 56 -36 174 -93
202 -99 9 -1 29 -8 45 -14 32 -13 33 -13 154 -32 96 -16 301 -14 400 2 108 18
122 21 195 42 195 55 207 67 220 218 3 36 8 80 10 96 3 17 7 53 10 80 3 28 7
60 9 72 9 44 -59 86 -96 59 -9 -7 -30 -49 -47 -95 -50 -138 -112 -224 -205
-285 -76 -49 -130 -69 -226 -82 -102 -15 -260 -1 -314 28 -12 6 -21 10 -21 8
0 -7 -81 34 -120 61 -40 27 -92 76 -140 134 -31 37 -98 173 -118 240 -75 248
-64 575 26 790 81 194 254 336 442 362 247 34 448 -39 581 -212 26 -35 94
-168 94 -187 1 -23 34 -53 61 -55 15 -2 35 6 48 18 20 19 21 27 15 77 -3 32
-8 64 -9 72 -5 26 -17 127 -20 162 -6 73 -18 109 -46 132 -39 33 -202 79 -374
106 -61 9 -242 20 -248 14z"/>
<path d="M11033 7258 c-64 -17 -66 -80 -3 -113 16 -8 30 -13 30 -10 0 3 22 -6
50 -20 55 -28 78 -57 88 -107 7 -40 7 -1180 -1 -1258 -10 -103 -35 -135 -133
-166 -68 -21 -91 -49 -72 -88 12 -27 49 -42 93 -39 38 3 170 5 180 3 6 -1 15
-1 20 0 25 6 497 4 501 -2 3 -4 15 -4 27 0 12 5 33 7 47 5 14 -1 139 -4 278
-7 247 -4 253 -4 272 17 11 11 21 23 21 26 7 28 13 83 24 199 3 41 8 81 10 90
22 119 12 162 -37 167 -35 4 -60 -25 -87 -98 -51 -139 -114 -230 -184 -261
-55 -25 -143 -33 -310 -30 -197 4 -182 3 -240 20 -74 20 -104 43 -126 93 -28
67 -32 109 -33 352 -1 189 1 221 16 244 10 14 27 30 39 34 12 5 87 8 167 7
213 -4 236 -17 313 -178 29 -60 45 -70 89 -55 33 10 40 38 31 114 -9 71 -8
287 2 366 8 64 -7 100 -44 110 -31 8 -60 -20 -91 -89 -61 -133 -107 -156 -318
-157 -144 -1 -172 6 -193 45 -12 23 -17 571 -5 625 12 52 38 57 310 55 228 -2
261 -3 313 -15 89 -21 142 -92 223 -295 25 -64 39 -86 58 -93 52 -20 88 16 78
79 -3 20 -8 62 -11 92 -3 30 -8 66 -10 80 -2 14 -7 60 -10 104 -8 110 -24 143
-72 152 -21 4 -51 7 -68 6 -16 -1 -40 -2 -52 -2 -13 0 -31 0 -40 0 -159 -4
-1065 -4 -1083 1 -14 3 -40 2 -57 -3z"/>
<path d="M2108 7238 c-37 -37 -11 -76 72 -108 84 -33 117 -62 126 -112 4 -24
9 -254 10 -513 1 -258 5 -492 8 -520 14 -141 77 -276 176 -376 51 -52 143
-116 180 -124 3 -1 37 -11 76 -24 74 -23 174 -37 259 -35 49 1 165 13 195 20
71 17 98 26 164 59 42 21 76 41 76 46 0 5 5 9 10 9 14 0 100 86 100 100 0 5 4
10 9 10 10 0 82 143 96 190 5 17 25 122 31 160 4 25 7 257 8 515 2 348 5 476
15 493 6 12 8 22 4 22 -13 0 42 47 77 65 18 9 44 19 59 21 58 11 89 82 48 109
-28 17 -529 17 -547 -1 -6 -6 -10 -27 -8 -45 3 -31 8 -36 73 -64 94 -41 114
-56 130 -102 20 -59 19 -991 -1 -1087 -47 -218 -193 -360 -393 -383 -288 -32
-500 100 -576 359 -24 85 -27 137 -27 578 0 491 2 528 30 568 19 26 79 60 120
68 53 10 88 72 58 102 -15 15 -52 17 -328 18 -290 1 -312 0 -330 -18z"/>
<path d="M4098 7252 c-24 -5 -34 -48 -19 -76 7 -12 29 -28 49 -36 148 -52 159
-71 162 -269 5 -283 2 -1069 -4 -1123 -7 -65 -13 -84 -35 -111 -18 -21 -93
-57 -120 -57 -22 0 -54 -34 -58 -60 -3 -21 28 -60 50 -61 6 0 296 -1 642 -1
483 -1 635 1 653 11 35 19 40 35 58 216 3 39 8 78 10 87 1 9 6 47 9 83 8 74
-7 105 -52 105 -32 0 -49 -23 -90 -126 -65 -163 -128 -226 -248 -250 -52 -10
-390 -11 -435 -1 -34 8 -100 46 -97 57 1 3 -4 15 -11 27 -7 13 -16 58 -20 100
-8 90 -7 1179 1 1235 11 70 46 106 123 127 59 16 98 54 89 89 -4 15 -9 29 -12
32 -5 6 -619 8 -645 2z"/>
<path d="M5476 7245 c-31 -15 -43 -50 -51 -140 -3 -44 -10 -109 -15 -145 -23
-171 -23 -177 -1 -199 46 -46 87 -18 126 89 42 112 74 170 125 221 55 55 111
73 230 73 197 -1 219 -27 226 -262 2 -68 6 -128 10 -133 3 -5 1 -9 -3 -9 -5 0
-8 -12 -7 -27 3 -34 5 -72 4 -93 -1 -8 0 -34 2 -58 2 -24 1 -45 -3 -47 -3 -3
-3 -26 2 -52 4 -26 4 -52 -1 -56 -4 -4 -4 -25 -1 -45 4 -20 6 -46 4 -57 -2
-23 -3 -48 -2 -90 0 -16 0 -54 -1 -83 0 -29 2 -57 5 -62 3 -6 1 -10 -6 -10 -9
0 -9 -3 0 -14 7 -8 8 -17 3 -20 -5 -3 -6 -23 -2 -46 4 -22 5 -40 1 -40 -3 0
-6 -48 -7 -108 0 -59 -3 -120 -7 -136 -11 -49 -54 -84 -132 -107 -97 -28 -131
-73 -85 -114 15 -14 34 -17 92 -15 78 2 422 2 524 -1 67 -1 99 10 107 40 10
38 -15 63 -83 86 -127 42 -146 60 -159 155 -4 30 -6 321 -6 645 1 635 4 671
52 719 31 31 84 43 188 41 116 -3 162 -18 215 -74 44 -45 106 -157 145 -264
20 -52 40 -69 75 -62 45 9 52 24 46 99 -3 39 -8 80 -10 91 -3 18 -13 121 -21
224 -4 44 -23 79 -49 87 -36 12 -1507 10 -1530 -1z"/>
<path d="M7260 7233 c-19 -24 -17 -48 5 -68 16 -15 53 -35 65 -35 28 0 98 -44
115 -72 22 -38 23 -70 25 -643 2 -421 5 -466 45 -586 71 -215 259 -360 510
-395 60 -9 302 -3 320 7 6 4 27 10 49 13 21 4 50 12 65 17 14 6 27 10 28 10 2
0 31 16 65 35 117 68 210 185 258 324 38 114 43 167 46 570 5 587 6 601 22
635 18 37 43 59 82 74 17 6 44 16 61 23 42 15 68 45 62 69 -12 44 -34 47 -300
45 -264 -1 -273 -3 -280 -46 -5 -33 12 -54 54 -68 67 -23 125 -56 140 -79 8
-12 17 -48 19 -80 3 -32 7 -66 9 -75 2 -10 -2 -18 -7 -18 -7 0 -7 -5 -1 -12
11 -15 10 -808 -1 -887 -4 -30 -12 -66 -18 -80 -5 -14 -9 -26 -8 -26 4 0 -14
-46 -36 -91 -85 -176 -298 -268 -527 -227 -38 7 -82 19 -99 28 -17 8 -35 15
-39 15 -26 0 -179 133 -179 155 0 4 -8 19 -19 33 -20 29 -55 124 -67 182 -11
54 -14 1017 -3 1049 16 45 56 79 115 97 68 22 103 54 96 89 -2 14 -9 29 -16
33 -6 4 -152 7 -324 8 l-313 1 -19 -24z"/>
<path d="M9249 7248 c-10 -4 -19 -11 -20 -15 0 -4 -2 -18 -3 -31 -3 -26 32
-59 73 -69 39 -9 94 -38 112 -59 33 -40 36 -87 34 -719 -1 -680 -1 -687 -54
-733 -14 -12 -47 -29 -73 -36 -25 -8 -55 -19 -66 -25 -27 -15 -33 -56 -11 -79
16 -18 33 -19 291 -18 150 1 287 -1 303 -4 37 -8 91 13 99 37 14 45 -2 67 -61
83 -27 7 -52 17 -58 21 -5 5 -19 9 -30 9 -22 0 -54 29 -74 68 -17 32 -23 105
-23 281 -1 237 -1 237 25 267 22 25 30 27 94 28 55 0 80 -5 114 -22 51 -27 42
-16 297 -397 107 -159 206 -301 220 -315 47 -45 82 -53 242 -54 161 -1 175 3
185 54 7 38 -33 69 -100 75 -24 2 -63 19 -93 42 -31 23 -196 238 -302 393 -25
36 -47 67 -50 70 -29 29 -94 140 -97 166 -3 29 1 36 29 51 18 9 35 17 38 18
18 2 123 79 158 116 107 110 161 292 126 419 -4 14 -8 30 -10 35 -5 21 -36 88
-47 103 -38 50 -132 132 -183 159 -60 31 -169 69 -234 80 -51 8 -828 9 -851 1z
m696 -101 c88 -14 192 -65 251 -123 20 -21 51 -65 68 -98 28 -57 31 -68 30
-166 0 -129 -22 -195 -94 -272 -83 -92 -209 -136 -374 -133 -84 1 -90 3 -112
29 -27 31 -26 4 -26 387 -1 152 2 292 6 312 7 35 33 61 71 69 20 4 144 1 180
-5z"/>
<path d="M857 4854 c-1 -1 -33 -5 -70 -9 -137 -13 -282 -78 -362 -162 -45 -47
-92 -142 -104 -208 -20 -108 3 -259 50 -327 11 -14 19 -30 19 -35 0 -5 28 -37
63 -72 69 -69 180 -147 302 -211 44 -23 103 -55 130 -71 28 -16 60 -34 73 -41
12 -6 22 -15 22 -20 0 -4 5 -8 10 -8 11 0 64 -45 111 -94 42 -45 80 -127 86
-189 16 -157 -109 -293 -281 -304 -71 -5 -115 -5 -136 0 -8 2 -33 7 -55 12
-83 17 -173 92 -224 187 -28 52 -60 148 -68 205 -9 70 -66 101 -107 60 -22
-22 -22 -28 -22 -224 l1 -201 25 -21 c20 -17 121 -72 140 -76 3 -1 25 -7 50
-14 170 -49 360 -59 510 -27 201 43 351 170 395 335 17 66 18 187 1 249 -18
65 -53 125 -103 178 -46 49 -166 144 -182 144 -6 0 -11 4 -11 8 0 4 -12 13
-27 19 -71 31 -325 176 -354 203 -139 126 -171 184 -175 310 -2 69 1 93 18
127 32 68 102 125 168 138 11 2 25 7 30 10 14 9 162 9 191 0 88 -27 143 -73
188 -158 28 -54 66 -163 74 -214 8 -56 76 -83 111 -44 15 17 18 44 19 201 2
219 -3 240 -72 272 -25 12 -52 23 -58 25 -25 6 -38 10 -53 16 -38 15 -312 41
-323 31z"/>
<path d="M3775 4824 c-5 -1 -22 -5 -36 -8 -35 -8 -51 -44 -34 -77 9 -17 33
-32 78 -48 36 -12 74 -33 86 -45 43 -45 44 -75 16 -381 -11 -123 -17 -185 -20
-225 -11 -107 -18 -198 -19 -232 0 -21 -3 -38 -6 -38 -3 0 -5 -21 -6 -48 0
-26 -4 -85 -8 -132 -4 -47 -9 -107 -12 -135 -12 -136 -26 -205 -50 -242 -17
-27 -76 -59 -127 -68 -63 -12 -92 -71 -55 -110 5 -6 110 -10 268 -11 241 -1
261 1 280 18 23 21 24 27 10 62 -7 18 -21 28 -52 36 -83 21 -127 50 -137 89
-9 35 -7 222 4 289 3 18 8 70 11 115 3 45 7 98 9 117 2 19 6 73 10 120 4 47 9
99 11 115 2 17 6 59 9 95 9 104 14 124 36 142 16 13 26 15 40 8 16 -9 40 -42
44 -60 1 -3 7 -18 14 -34 6 -15 25 -63 42 -105 17 -42 40 -95 50 -118 10 -24
19 -49 19 -56 0 -7 4 -17 8 -22 4 -6 23 -48 41 -95 18 -47 37 -94 42 -105 4
-11 43 -108 85 -215 164 -419 155 -400 185 -416 51 -26 103 15 134 106 5 15
18 48 25 65 5 11 21 49 36 85 14 36 34 83 44 105 10 22 39 90 65 150 26 61 53
124 60 140 7 17 33 77 58 135 25 58 56 130 69 160 14 30 40 91 58 135 18 44
42 88 53 98 44 39 82 9 91 -73 11 -104 17 -165 21 -215 2 -27 6 -72 9 -100 3
-27 9 -83 12 -122 3 -40 8 -94 10 -120 2 -27 7 -109 10 -183 5 -131 5 -136
-18 -164 -16 -19 -47 -36 -93 -51 -48 -15 -74 -29 -81 -44 -15 -29 -7 -59 19
-73 21 -11 592 -14 627 -3 26 8 36 62 16 84 -8 9 -44 25 -78 36 -108 32 -138
82 -153 255 -3 30 -7 75 -10 100 -2 25 -7 74 -9 110 -3 36 -9 94 -12 130 -3
36 -8 83 -9 105 -8 91 -15 183 -20 230 -2 28 -7 86 -10 130 -3 44 -8 112 -11
150 -15 193 -11 249 19 279 17 18 74 47 100 52 63 12 97 77 58 111 -16 13 -39
17 -101 18 -44 0 -80 -2 -80 -5 0 -3 -24 -4 -52 -2 -113 6 -151 -1 -171 -32
-9 -13 -34 -72 -57 -132 -40 -103 -51 -130 -84 -206 -8 -18 -31 -76 -51 -128
-20 -52 -43 -108 -50 -125 -16 -39 -87 -208 -170 -410 -37 -88 -72 -173 -79
-190 -8 -16 -21 -51 -31 -78 -10 -26 -28 -58 -41 -72 -40 -43 -58 -25 -117
115 -27 63 -129 314 -149 365 -10 28 -24 61 -30 75 -13 30 -17 41 -57 140 -40
101 -90 230 -146 380 -96 259 -103 272 -133 286 -9 4 -79 9 -155 10 -76 1
-143 4 -150 7 -7 2 -16 3 -22 1z"/>
<path d="M6159 4822 c-15 -2 -32 -14 -41 -30 -26 -43 -4 -73 75 -101 96 -34
124 -71 122 -161 -2 -62 -13 -214 -21 -275 -4 -39 -7 -66 -18 -215 -4 -41 -8
-93 -11 -115 -2 -22 -7 -76 -11 -120 -3 -44 -8 -96 -10 -115 -2 -19 -6 -64 -9
-100 -12 -155 -23 -257 -36 -313 -16 -67 -59 -108 -135 -129 -33 -9 -68 -26
-78 -37 -16 -18 -17 -24 -6 -51 7 -17 22 -32 34 -35 11 -2 133 -3 269 -2 227
2 250 4 262 20 7 10 12 26 10 35 -2 9 -4 22 -4 27 -1 14 -38 36 -70 41 -14 3
-44 14 -66 24 -74 36 -75 56 -30 580 3 30 7 84 10 120 3 36 7 81 10 100 2 19
7 70 10 113 9 101 16 127 42 144 42 28 61 -8 233 -442 89 -225 171 -429 181
-452 10 -24 19 -46 19 -50 0 -4 23 -65 51 -136 41 -101 57 -131 78 -141 52
-26 93 2 128 89 32 78 212 501 239 564 14 31 29 65 34 76 5 11 20 46 34 77 14
31 26 63 26 70 0 8 4 18 9 23 5 6 31 62 57 125 58 140 78 170 109 170 29 0 55
-24 56 -53 0 -12 2 -33 4 -47 2 -14 6 -59 10 -100 3 -41 8 -87 10 -102 5 -26
10 -82 20 -233 3 -38 8 -99 12 -135 4 -36 7 -121 8 -188 0 -123 0 -124 -28
-148 -15 -13 -53 -31 -85 -40 -31 -9 -62 -21 -68 -26 -20 -15 -22 -58 -5 -79
16 -20 27 -20 322 -20 169 0 313 3 322 7 9 3 19 19 22 36 9 39 -12 60 -85 83
-98 31 -129 66 -144 165 -9 61 -17 135 -21 190 -1 25 -5 74 -9 110 -4 36 -8
90 -11 120 -6 88 -16 202 -21 240 -2 19 -7 73 -9 120 -3 47 -7 100 -10 119 -6
37 -15 177 -20 301 -3 85 9 116 59 146 17 10 34 19 38 19 3 0 10 3 14 8 4 4
18 7 30 7 25 0 64 43 64 71 0 10 -9 26 -20 36 -19 19 -23 19 -240 13 -14 0
-34 0 -45 0 -71 1 -85 -2 -105 -23 -12 -13 -67 -135 -122 -273 -55 -137 -106
-262 -113 -279 -7 -16 -23 -55 -35 -85 -12 -30 -28 -68 -35 -85 -8 -16 -23
-55 -35 -85 -20 -53 -36 -91 -65 -155 -23 -51 -97 -229 -99 -240 -2 -5 -8 -21
-14 -35 -55 -131 -61 -138 -105 -126 -17 5 -33 33 -75 138 -30 73 -60 147 -67
163 -7 17 -46 111 -85 210 -39 99 -78 194 -85 210 -16 37 -40 98 -40 105 -1 3
-8 21 -17 41 -9 20 -19 47 -23 60 -4 13 -13 38 -21 54 -7 17 -19 48 -27 70
-43 122 -102 273 -114 292 -21 31 -68 41 -198 41 -60 0 -121 2 -135 4 -14 2
-37 2 -51 0z"/>
<path d="M1650 4803 c-12 -8 -20 -26 -20 -42 0 -24 7 -32 48 -51 128 -61 137
-67 155 -105 17 -34 19 -80 22 -549 2 -303 8 -527 14 -551 5 -22 10 -40 9 -40
-6 0 32 -106 55 -155 42 -85 160 -205 237 -240 30 -14 58 -29 62 -35 4 -5 8
-7 8 -2 0 4 15 1 33 -7 104 -43 336 -51 489 -17 73 17 157 53 213 92 127 88
207 216 245 394 18 83 21 162 25 625 1 245 5 453 7 463 10 43 55 82 121 106
70 24 80 32 91 69 5 15 2 28 -10 40 -16 15 -44 17 -276 18 -278 2 -290 -1
-290 -49 0 -38 14 -51 82 -76 76 -28 115 -61 127 -109 11 -42 11 -1005 0
-1065 -11 -59 -54 -163 -85 -210 -62 -89 -149 -147 -257 -172 -57 -14 -173
-23 -195 -15 -3 0 -22 3 -42 5 -138 15 -288 121 -351 248 -16 31 -28 59 -28
62 0 2 -6 23 -14 45 -8 22 -17 66 -21 97 -8 63 -9 938 -1 990 9 66 31 84 170
141 15 7 32 23 37 36 10 28 3 65 -14 67 -6 1 -149 3 -319 4 -249 1 -311 -1
-327 -12z"/>
<path d="M8428 4798 c-40 -40 -14 -80 70 -110 84 -29 119 -63 128 -125 8 -54
9 -1143 1 -1243 -6 -75 -17 -108 -43 -131 -23 -20 -59 -39 -82 -44 -62 -12
-93 -40 -86 -80 7 -48 23 -50 345 -49 325 1 324 1 334 56 6 32 -13 49 -92 77
-61 23 -93 48 -108 86 -4 11 -10 72 -13 135 -7 149 -6 1147 1 1180 3 14 6 32
6 40 2 36 79 92 134 98 26 3 67 40 73 65 13 61 8 61 -338 62 -288 1 -313 0
-330 -17z"/>
<path d="M9370 4808 c-33 -12 -49 -50 -55 -133 -3 -44 -8 -96 -11 -115 -2 -19
-6 -51 -8 -70 -2 -19 -7 -55 -11 -80 -8 -58 7 -98 40 -106 43 -11 69 17 99
103 63 178 133 263 241 290 43 11 192 9 233 -3 43 -12 91 -56 93 -84 0 -8 3
-24 7 -35 3 -11 7 -304 9 -651 2 -540 0 -638 -12 -675 -19 -56 -57 -82 -150
-105 -55 -13 -77 -32 -83 -71 -5 -39 39 -58 127 -54 144 6 386 7 416 1 17 -4
41 -4 55 0 14 3 36 3 50 0 36 -9 80 9 91 37 16 44 -16 75 -91 90 -13 2 -30 9
-37 15 -7 6 -13 7 -13 4 0 -13 -61 29 -76 51 -27 42 -31 144 -29 737 2 635 4
662 52 711 14 14 28 25 32 26 3 0 17 3 31 6 47 11 215 7 255 -7 81 -27 159
-135 225 -313 23 -61 52 -84 91 -72 32 10 41 41 33 113 -13 128 -23 228 -29
287 -5 55 -24 93 -49 101 -28 9 -1502 11 -1526 2z"/>
</g>
</svg>
